<svg width="120" height="41" viewBox="0 0 120 41" fill="none" xmlns="http://www.w3.org/2000/svg">
<g clip-path="url(#clip0_3931_890)">
<path d="M110.421 0.50013H9.8213C9.4546 0.50013 9.0923 0.50013 8.72657 0.50213C8.42042 0.50413 8.11671 0.50994 7.80762 0.51483C7.13613 0.522732 6.46623 0.581806 5.80372 0.69154C5.14214 0.803663 4.50129 1.01505 3.90284 1.31854C3.30512 1.6246 2.75897 2.0223 2.28419 2.4972C1.80692 2.97077 1.40908 3.51815 1.10597 4.11829C0.802021 4.71724 0.591262 5.35907 0.480971 6.02161C0.369632 6.68332 0.309719 7.35265 0.301771 8.02361C0.292491 8.33021 0.291511 8.63783 0.286621 8.94447V32.0587C0.291511 32.3692 0.292491 32.67 0.301771 32.9806C0.309722 33.6516 0.369634 34.3209 0.480971 34.9825C0.590957 35.6455 0.801729 36.2877 1.10597 36.8868C1.40895 37.485 1.80684 38.0302 2.28419 38.5011C2.75717 38.9781 3.30367 39.3761 3.90284 39.6798C4.50129 39.9841 5.14207 40.1968 5.80372 40.3106C6.46634 40.4195 7.13618 40.4786 7.80762 40.4874C8.11671 40.4942 8.42042 40.4981 8.72657 40.4981C9.09229 40.5001 9.45462 40.5001 9.8213 40.5001H110.421C110.781 40.5001 111.146 40.5001 111.505 40.4981C111.81 40.4981 112.123 40.4942 112.427 40.4874C113.097 40.4791 113.766 40.42 114.427 40.3106C115.091 40.196 115.734 39.9834 116.335 39.6798C116.934 39.3759 117.48 38.978 117.953 38.5011C118.429 38.0284 118.828 37.4836 119.134 36.8868C119.436 36.2872 119.645 35.6451 119.753 34.9825C119.865 34.3208 119.927 33.6516 119.939 32.9806C119.943 32.67 119.943 32.3692 119.943 32.0587C119.951 31.6954 119.951 31.3341 119.951 30.9649V10.0363C119.951 9.67005 119.951 9.30677 119.943 8.94447C119.943 8.63783 119.943 8.33021 119.939 8.02357C119.927 7.35255 119.865 6.68337 119.753 6.02157C119.645 5.35941 119.436 4.71763 119.134 4.11825C118.517 2.91533 117.538 1.93616 116.335 1.31845C115.734 1.0157 115.091 0.80437 114.427 0.69145C113.766 0.581233 113.098 0.522138 112.427 0.51469C112.123 0.50981 111.81 0.50395 111.505 0.502C111.146 0.5 110.781 0.50013 110.421 0.50013Z" fill="#A6A6A6"/>
<path d="M8.73149 39.625C8.42681 39.625 8.12949 39.6211 7.8272 39.6143C7.20098 39.6061 6.57623 39.5516 5.95806 39.4512C5.38165 39.3519 4.82326 39.1673 4.30132 38.9033C3.78416 38.6415 3.31247 38.2983 2.90432 37.8867C2.49026 37.48 2.14553 37.0082 1.88381 36.4902C1.6192 35.9688 1.43607 35.4099 1.34081 34.833C1.23793 34.2131 1.18227 33.5863 1.17431 32.958C1.16797 32.7471 1.15967 32.0449 1.15967 32.0449V8.94434C1.15967 8.94434 1.16851 8.25293 1.17436 8.0498C1.18198 7.42248 1.23732 6.79665 1.33989 6.17773C1.43533 5.59925 1.61859 5.03875 1.88335 4.51563C2.14411 3.99794 2.48692 3.52586 2.89849 3.11768C3.30959 2.70562 3.78279 2.3606 4.30083 2.09521C4.82157 1.83209 5.3789 1.64873 5.95415 1.55127C6.57435 1.44984 7.20127 1.395 7.82966 1.38721L8.73198 1.375H111.501L112.414 1.3877C113.036 1.3951 113.658 1.44945 114.272 1.55029C114.853 1.64898 115.416 1.83362 115.943 2.09814C116.981 2.63299 117.825 3.47916 118.358 4.51807C118.618 5.03758 118.799 5.59351 118.893 6.16699C118.997 6.79099 119.055 7.42174 119.067 8.0542C119.07 8.3374 119.07 8.6416 119.07 8.94434C119.078 9.31934 119.078 9.67627 119.078 10.0361V30.9648C119.078 31.3281 119.078 31.6826 119.07 32.04C119.07 32.3652 119.07 32.6631 119.066 32.9697C119.054 33.5909 118.997 34.2104 118.895 34.8232C118.802 35.4043 118.62 35.9675 118.355 36.4932C118.091 37.0056 117.749 37.4733 117.339 37.8789C116.931 38.2927 116.458 38.6379 115.94 38.9014C115.415 39.1674 114.852 39.3527 114.272 39.4512C113.654 39.5522 113.029 39.6067 112.403 39.6143C112.11 39.6211 111.803 39.625 111.505 39.625L110.421 39.627L8.73149 39.625Z" fill="black"/>
<path d="M25.0507 20.8013C25.0615 19.9666 25.2832 19.1483 25.6952 18.4223C26.1072 17.6964 26.6962 17.0864 27.4073 16.6492C26.9556 16.0041 26.3596 15.4731 25.6668 15.0986C24.974 14.724 24.2033 14.5162 23.4161 14.4916C21.7369 14.3153 20.1089 15.4964 19.2532 15.4964C18.381 15.4964 17.0635 14.5091 15.6447 14.5383C14.7271 14.5679 13.8327 14.8348 13.0488 15.3128C12.265 15.7909 11.6183 16.4638 11.1718 17.2661C9.23781 20.6145 10.6804 25.5356 12.533 28.2422C13.4599 29.5676 14.5432 31.048 15.9606 30.9955C17.3477 30.938 17.8657 30.111 19.54 30.111C21.1988 30.111 21.6848 30.9955 23.131 30.9621C24.6194 30.938 25.5572 29.6309 26.4516 28.293C27.1175 27.3486 27.63 26.3049 27.97 25.2005C27.1053 24.8347 26.3673 24.2226 25.8482 23.4403C25.3291 22.658 25.0517 21.7402 25.0507 20.8013Z" fill="white"/>
<path d="M22.3183 12.7113C23.1299 11.7371 23.5297 10.4849 23.4329 9.2207C22.193 9.35092 21.0478 9.94348 20.2253 10.8803C19.8231 11.338 19.5151 11.8704 19.3189 12.4472C19.1226 13.024 19.042 13.6337 19.0816 14.2417C19.7017 14.2481 20.3152 14.1137 20.8759 13.8486C21.4365 13.5835 21.9297 13.1946 22.3183 12.7113Z" fill="white"/>
<path d="M42.5864 27.6397H37.853L36.7163 30.9961H34.7114L39.1948 18.5781H41.2778L45.7612 30.9961H43.7222L42.5864 27.6397ZM38.3433 26.0908H42.0953L40.2456 20.6436H40.1939L38.3433 26.0908Z" fill="white"/>
<path d="M55.4429 26.4695C55.4429 29.2829 53.937 31.0905 51.6646 31.0905C51.0889 31.1207 50.5164 30.9881 50.0126 30.7079C49.5088 30.4278 49.0941 30.0114 48.816 29.5065H48.7729V33.9909H46.9146V21.9421H48.7134V23.448H48.7476C49.0385 22.9455 49.4603 22.5313 49.9679 22.2495C50.4755 21.9676 51.0501 21.8287 51.6304 21.8474C53.9282 21.8474 55.4429 23.6638 55.4429 26.4695ZM53.5327 26.4695C53.5327 24.6365 52.5855 23.4314 51.1402 23.4314C49.7202 23.4314 48.7652 24.6618 48.7652 26.4695C48.7652 28.2937 49.7202 29.5154 51.1402 29.5154C52.5855 29.5154 53.5327 28.3191 53.5327 26.4695Z" fill="white"/>
<path d="M65.4077 26.4694C65.4077 29.2829 63.9019 31.0905 61.6294 31.0905C61.0538 31.1206 60.4813 30.988 59.9775 30.7079C59.4737 30.4278 59.059 30.0114 58.7808 29.5065H58.7378V33.9909H56.8794V21.9421H58.6782V23.448H58.7124C59.0034 22.9455 59.4251 22.5313 59.9327 22.2495C60.4403 21.9676 61.0149 21.8287 61.5952 21.8474C63.8931 21.8474 65.4077 23.6638 65.4077 26.4694ZM63.4976 26.4694C63.4976 24.6364 62.5503 23.4314 61.105 23.4314C59.6851 23.4314 58.73 24.6618 58.73 26.4694C58.73 28.2937 59.6851 29.5153 61.105 29.5153C62.5503 29.5153 63.4976 28.3191 63.4976 26.4694Z" fill="white"/>
<path d="M71.9947 27.5362C72.1324 28.7676 73.3287 29.5762 74.9634 29.5762C76.5298 29.5762 77.6568 28.7676 77.6568 27.6572C77.6568 26.6934 76.9771 26.1162 75.3677 25.7207L73.7583 25.333C71.4781 24.7822 70.4195 23.7158 70.4195 21.9854C70.4195 19.8428 72.2867 18.3711 74.938 18.3711C77.562 18.3711 79.3609 19.8428 79.4214 21.9854H77.5454C77.4331 20.7461 76.4087 19.9981 74.9116 19.9981C73.4146 19.9981 72.3901 20.7549 72.3901 21.8565C72.3901 22.7344 73.0444 23.251 74.645 23.6465L76.0132 23.9824C78.561 24.5849 79.6196 25.6084 79.6196 27.4248C79.6196 29.748 77.769 31.2031 74.8257 31.2031C72.0718 31.2031 70.2124 29.7822 70.0923 27.5361L71.9947 27.5362Z" fill="white"/>
<path d="M83.6294 19.7998V21.9424H85.3511V23.4141H83.6294V28.4053C83.6294 29.1807 83.9741 29.542 84.7309 29.542C84.9353 29.5384 85.1394 29.5241 85.3423 29.499V30.9619C85.002 31.0255 84.6562 31.0543 84.3101 31.0478C82.4771 31.0478 81.7622 30.3593 81.7622 28.6035V23.4141H80.4458V21.9424H81.7622V19.7998H83.6294Z" fill="white"/>
<path d="M86.3501 26.4697C86.3501 23.6211 88.0278 21.8311 90.644 21.8311C93.269 21.8311 94.939 23.6211 94.939 26.4697C94.939 29.3262 93.2778 31.1084 90.644 31.1084C88.0112 31.1084 86.3501 29.3262 86.3501 26.4697ZM93.0454 26.4697C93.0454 24.5156 92.1499 23.3623 90.644 23.3623C89.1382 23.3623 88.2436 24.5244 88.2436 26.4697C88.2436 28.4316 89.1382 29.5762 90.644 29.5762C92.1499 29.5762 93.0454 28.4316 93.0454 26.4697Z" fill="white"/>
<path d="M96.4692 21.942H98.2417V23.483H98.2847C98.4046 23.0017 98.6866 22.5764 99.0832 22.2785C99.4798 21.9806 99.9668 21.8284 100.462 21.8473C100.677 21.8465 100.89 21.8698 101.099 21.9166V23.6549C100.829 23.5723 100.547 23.5343 100.264 23.5426C99.9942 23.5316 99.725 23.5792 99.4752 23.6821C99.2253 23.785 99.0007 23.9408 98.8167 24.1386C98.6328 24.3365 98.4938 24.5719 98.4094 24.8286C98.325 25.0852 98.2971 25.3571 98.3276 25.6256V30.9957H96.4692L96.4692 21.942Z" fill="white"/>
<path d="M109.667 28.3369C109.417 29.9805 107.817 31.1084 105.769 31.1084C103.135 31.1084 101.5 29.3437 101.5 26.5127C101.5 23.6729 103.144 21.8311 105.691 21.8311C108.196 21.8311 109.771 23.5518 109.771 26.2969V26.9336H103.376V27.0459C103.347 27.3791 103.389 27.7148 103.499 28.0306C103.609 28.3464 103.785 28.6352 104.016 28.8778C104.246 29.1203 104.525 29.3111 104.835 29.4374C105.145 29.5637 105.478 29.6226 105.812 29.6103C106.251 29.6515 106.692 29.5498 107.069 29.3203C107.445 29.0909 107.738 28.746 107.903 28.3369L109.667 28.3369ZM103.385 25.6348H107.912C107.928 25.3352 107.883 25.0354 107.778 24.7541C107.674 24.4729 107.512 24.2164 107.303 24.0006C107.095 23.7849 106.844 23.6145 106.566 23.5003C106.289 23.3861 105.991 23.3305 105.691 23.3369C105.388 23.3351 105.088 23.3933 104.808 23.508C104.528 23.6227 104.274 23.7918 104.059 24.0054C103.845 24.2191 103.675 24.473 103.559 24.7527C103.444 25.0323 103.384 25.3321 103.385 25.6348Z" fill="white"/>
<path d="M38.1118 9.23138C38.5014 9.20342 38.8924 9.26228 39.2565 9.40371C39.6206 9.54515 39.9488 9.76563 40.2174 10.0493C40.486 10.3329 40.6883 10.6726 40.8097 11.0438C40.9311 11.4151 40.9686 11.8087 40.9194 12.1962C40.9194 14.1025 39.8892 15.1982 38.1118 15.1982H35.9565V9.23138H38.1118ZM36.8833 14.3544H38.0083C38.2867 14.371 38.5653 14.3254 38.8238 14.2208C39.0824 14.1161 39.3143 13.9552 39.5028 13.7496C39.6913 13.5441 39.8316 13.2991 39.9135 13.0324C39.9953 12.7658 40.0167 12.4843 39.9761 12.2084C40.0138 11.9335 39.9902 11.6538 39.9071 11.3891C39.824 11.1244 39.6834 10.8814 39.4953 10.6775C39.3072 10.4736 39.0764 10.3138 38.8193 10.2095C38.5622 10.1053 38.2853 10.0592 38.0083 10.0746H36.8833V14.3544Z" fill="white"/>
<path d="M41.9666 12.9448C41.9383 12.6489 41.9721 12.3503 42.066 12.0682C42.1598 11.7862 42.3116 11.5268 42.5115 11.3068C42.7115 11.0868 42.9552 10.9111 43.227 10.7908C43.4989 10.6705 43.7929 10.6084 44.0901 10.6084C44.3874 10.6084 44.6814 10.6705 44.9532 10.7908C45.2251 10.9111 45.4688 11.0868 45.6687 11.3068C45.8687 11.5268 46.0204 11.7862 46.1143 12.0682C46.2081 12.3503 46.242 12.6489 46.2137 12.9448C46.2425 13.241 46.2091 13.54 46.1155 13.8225C46.0219 14.105 45.8702 14.3648 45.6702 14.5853C45.4702 14.8057 45.2263 14.9818 44.9542 15.1023C44.6821 15.2229 44.3877 15.2851 44.0901 15.2851C43.7925 15.2851 43.4982 15.2229 43.226 15.1023C42.9539 14.9818 42.71 14.8057 42.51 14.5853C42.31 14.3648 42.1584 14.105 42.0648 13.8225C41.9712 13.54 41.9377 13.241 41.9666 12.9448ZM45.2996 12.9448C45.2996 11.9687 44.8611 11.3979 44.0916 11.3979C43.3191 11.3979 42.8846 11.9687 42.8846 12.9448C42.8846 13.9287 43.3192 14.4951 44.0916 14.4951C44.8611 14.4951 45.2996 13.9248 45.2996 12.9448Z" fill="white"/>
<path d="M51.8589 15.1982H50.937L50.0064 11.8818H49.936L49.0093 15.1982H48.0962L46.855 10.6953H47.7564L48.563 14.1313H48.6294L49.5552 10.6953H50.4077L51.3335 14.1313H51.4038L52.2065 10.6953H53.0952L51.8589 15.1982Z" fill="white"/>
<path d="M54.1382 10.6949H54.9937V11.4102H55.0601C55.1727 11.1533 55.3627 10.9379 55.6036 10.7941C55.8445 10.6503 56.1242 10.5852 56.4038 10.6079C56.6229 10.5915 56.8429 10.6245 57.0475 10.7046C57.2521 10.7847 57.4361 10.9098 57.5857 11.0707C57.7354 11.2315 57.847 11.424 57.9122 11.6338C57.9774 11.8436 57.9946 12.0654 57.9624 12.2827V15.1977H57.0737V12.5059C57.0737 11.7823 56.7593 11.4224 56.1021 11.4224C55.9533 11.4155 55.8048 11.4408 55.6667 11.4966C55.5287 11.5525 55.4043 11.6375 55.3022 11.7459C55.2001 11.8543 55.1226 11.9834 55.0751 12.1246C55.0275 12.2657 55.0111 12.4154 55.0269 12.5635V15.1978H54.1382L54.1382 10.6949Z" fill="white"/>
<path d="M59.3784 8.9375H60.2671V15.1982H59.3784V8.9375Z" fill="white"/>
<path d="M61.5037 12.9449C61.4754 12.6489 61.5093 12.3503 61.6031 12.0683C61.697 11.7862 61.8488 11.5268 62.0487 11.3068C62.2487 11.0869 62.4924 10.9111 62.7643 10.7908C63.0362 10.6705 63.3302 10.6084 63.6275 10.6084C63.9247 10.6084 64.2187 10.6705 64.4906 10.7908C64.7625 10.9111 65.0062 11.0869 65.2062 11.3068C65.4061 11.5268 65.5579 11.7862 65.6518 12.0683C65.7456 12.3503 65.7795 12.6489 65.7512 12.9449C65.78 13.2411 65.7466 13.5401 65.6529 13.8226C65.5593 14.1051 65.4076 14.3649 65.2076 14.5853C65.0076 14.8058 64.7637 14.9819 64.4916 15.1024C64.2194 15.2229 63.9251 15.2852 63.6275 15.2852C63.3298 15.2852 63.0355 15.2229 62.7633 15.1024C62.4912 14.9819 62.2473 14.8058 62.0473 14.5853C61.8473 14.3649 61.6956 14.1051 61.602 13.8226C61.5083 13.5401 61.4749 13.2411 61.5037 12.9449ZM64.8367 12.9449C64.8367 11.9688 64.3982 11.398 63.6287 11.398C62.8562 11.398 62.4217 11.9688 62.4217 12.9449C62.4217 13.9288 62.8562 14.4952 63.6287 14.4952C64.3982 14.4952 64.8367 13.9248 64.8367 12.9449Z" fill="white"/>
<path d="M66.687 13.9248C66.687 13.1142 67.2905 12.647 68.3618 12.5806L69.5815 12.5102V12.1216C69.5815 11.646 69.2671 11.3774 68.6597 11.3774C68.1636 11.3774 67.8198 11.5596 67.7212 11.8779H66.8608C66.9517 11.1045 67.6792 10.6084 68.7007 10.6084C69.8296 10.6084 70.4663 11.1704 70.4663 12.1216V15.1982H69.6108V14.5654H69.5405C69.3978 14.7924 69.1974 14.9775 68.9598 15.1017C68.7222 15.2259 68.4558 15.2848 68.188 15.2724C67.999 15.2921 67.8079 15.2719 67.6271 15.2132C67.4464 15.1545 67.2799 15.0586 67.1385 14.9316C66.9971 14.8047 66.8838 14.6495 66.8061 14.4761C66.7283 14.3026 66.6878 14.1149 66.687 13.9248ZM69.5815 13.54V13.1636L68.4819 13.2339C67.8618 13.2754 67.5806 13.4863 67.5806 13.8833C67.5806 14.2886 67.9321 14.5244 68.4156 14.5244C68.5572 14.5387 68.7003 14.5244 68.8363 14.4823C68.9723 14.4403 69.0984 14.3712 69.2072 14.2794C69.316 14.1876 69.4052 14.0748 69.4695 13.9477C69.5338 13.8207 69.5719 13.6821 69.5815 13.54Z" fill="white"/>
<path d="M71.6343 12.9448C71.6343 11.522 72.3657 10.6206 73.5034 10.6206C73.7848 10.6077 74.0641 10.6751 74.3087 10.815C74.5532 10.9548 74.7528 11.1615 74.8843 11.4106H74.9507V8.9375H75.8394V15.1982H74.9878V14.4868H74.9175C74.7759 14.7343 74.5693 14.9383 74.32 15.0768C74.0708 15.2153 73.7884 15.283 73.5034 15.2724C72.3579 15.2725 71.6343 14.3711 71.6343 12.9448ZM72.5523 12.9448C72.5523 13.8999 73.0025 14.4746 73.7554 14.4746C74.5044 14.4746 74.9673 13.8916 74.9673 12.9487C74.9673 12.0103 74.4995 11.419 73.7554 11.419C73.0073 11.419 72.5523 11.9976 72.5523 12.9448Z" fill="white"/>
<path d="M79.5154 12.9448C79.4871 12.6489 79.521 12.3503 79.6148 12.0682C79.7086 11.7862 79.8604 11.5268 80.0603 11.3068C80.2603 11.0868 80.504 10.9111 80.7758 10.7908C81.0477 10.6705 81.3417 10.6084 81.639 10.6084C81.9362 10.6084 82.2302 10.6705 82.5021 10.7908C82.7739 10.9111 83.0176 11.0868 83.2176 11.3068C83.4175 11.5268 83.5693 11.7862 83.6631 12.0682C83.7569 12.3503 83.7908 12.6489 83.7625 12.9448C83.7913 13.241 83.7579 13.54 83.6643 13.8225C83.5707 14.105 83.419 14.3648 83.219 14.5853C83.019 14.8057 82.7751 14.9818 82.503 15.1023C82.2309 15.2229 81.9366 15.2851 81.639 15.2851C81.3413 15.2851 81.047 15.2229 80.7749 15.1023C80.5027 14.9818 80.2589 14.8057 80.0589 14.5853C79.8589 14.3648 79.7072 14.105 79.6136 13.8225C79.52 13.54 79.4866 13.241 79.5154 12.9448ZM82.8484 12.9448C82.8484 11.9687 82.4099 11.3979 81.6404 11.3979C80.868 11.3979 80.4334 11.9687 80.4334 12.9448C80.4334 13.9287 80.868 14.4951 81.6404 14.4951C82.4099 14.4951 82.8484 13.9248 82.8484 12.9448Z" fill="white"/>
<path d="M84.9546 10.6949H85.8101V11.4102H85.8765C85.9891 11.1533 86.1791 10.9379 86.42 10.7941C86.6609 10.6503 86.9406 10.5852 87.2202 10.6079C87.4393 10.5915 87.6593 10.6245 87.8639 10.7046C88.0685 10.7847 88.2525 10.9098 88.4022 11.0707C88.5518 11.2315 88.6634 11.424 88.7286 11.6338C88.7938 11.8436 88.811 12.0654 88.7788 12.2827V15.1977H87.8901V12.5059C87.8901 11.7823 87.5757 11.4224 86.9185 11.4224C86.7697 11.4155 86.6212 11.4408 86.4831 11.4966C86.3451 11.5525 86.2207 11.6375 86.1186 11.7459C86.0165 11.8543 85.939 11.9834 85.8915 12.1246C85.844 12.2657 85.8275 12.4154 85.8433 12.5635V15.1978H84.9546V10.6949Z" fill="white"/>
<path d="M93.8013 9.57422V10.7158H94.7769V11.4644H93.8013V13.7798C93.8013 14.2515 93.9956 14.458 94.438 14.458C94.5512 14.4576 94.6644 14.4508 94.7769 14.4375V15.1777C94.6173 15.2063 94.4556 15.2215 94.2935 15.2231C93.3052 15.2231 92.9116 14.8755 92.9116 14.0073V11.4643H92.1968V10.7158H92.9116V9.57422H93.8013Z" fill="white"/>
<path d="M95.9897 8.9375H96.8706V11.419H96.9409C97.059 11.1596 97.2543 10.943 97.5 10.7987C97.7457 10.6543 98.0299 10.5893 98.3139 10.6123C98.5319 10.6004 98.7498 10.6368 98.952 10.7189C99.1543 10.8009 99.336 10.9266 99.4841 11.0869C99.6322 11.2473 99.7432 11.4383 99.8089 11.6465C99.8747 11.8546 99.8938 12.0747 99.8647 12.291V15.1982H98.9751V12.5103C98.9751 11.791 98.6401 11.4268 98.0122 11.4268C97.8595 11.4142 97.7059 11.4352 97.5621 11.4883C97.4183 11.5413 97.2879 11.6252 97.1799 11.7339C97.0719 11.8426 96.989 11.9737 96.9369 12.1178C96.8848 12.2619 96.8649 12.4157 96.8785 12.5683V15.1982H95.9898L95.9897 8.9375Z" fill="white"/>
<path d="M105.046 13.9825C104.925 14.394 104.664 14.75 104.307 14.9882C103.95 15.2263 103.521 15.3315 103.095 15.2852C102.798 15.2931 102.503 15.2362 102.231 15.1187C101.958 15.0012 101.715 14.8258 101.517 14.6046C101.319 14.3835 101.172 14.1219 101.085 13.8381C100.998 13.5543 100.974 13.255 101.015 12.961C100.975 12.6661 101 12.3662 101.086 12.0815C101.173 11.7969 101.319 11.5341 101.516 11.311C101.713 11.0879 101.955 10.9098 102.227 10.7886C102.499 10.6674 102.793 10.6059 103.091 10.6085C104.344 10.6085 105.1 11.4645 105.1 12.8785V13.1886H101.92V13.2384C101.906 13.4036 101.927 13.5699 101.981 13.7267C102.035 13.8834 102.121 14.0271 102.234 14.1486C102.347 14.2701 102.484 14.3666 102.637 14.432C102.789 14.4974 102.953 14.5302 103.119 14.5284C103.332 14.5539 103.547 14.5156 103.738 14.4184C103.929 14.3212 104.086 14.1694 104.191 13.9825L105.046 13.9825ZM101.92 12.5313H104.194C104.206 12.3802 104.185 12.2284 104.134 12.0857C104.083 11.943 104.003 11.8125 103.899 11.7026C103.794 11.5928 103.668 11.506 103.528 11.4478C103.388 11.3896 103.238 11.3614 103.086 11.3648C102.932 11.3629 102.78 11.3918 102.637 11.4497C102.495 11.5076 102.366 11.5935 102.257 11.7022C102.148 11.8109 102.063 11.9403 102.005 12.0827C101.947 12.2251 101.918 12.3776 101.92 12.5313Z" fill="white"/>
</g>
<defs>
<clipPath id="clip0_3931_890">
<rect width="119.664" height="40" fill="white" transform="translate(0.286621 0.5)"/>
</clipPath>
</defs>
</svg>
