<svg width="40" height="40" viewBox="0 0 40 40" fill="none" xmlns="http://www.w3.org/2000/svg">
<g clip-path="url(#clip0_6495_133)">
<path d="M12.1701 34.37C12.0401 34.37 11.9101 34.32 11.8201 34.22L6.0001 28.4C5.8001 28.2 5.8001 27.89 6.0001 27.69L11.8201 21.87C11.8201 21.87 11.8401 21.85 11.8501 21.84C12.7001 21.12 13.9401 20.71 15.2501 20.71C16.4601 20.71 17.6001 21.06 18.4601 21.69C19.0401 22.11 19.6701 22.34 20.3001 22.34H23.1201C24.1701 22.34 25.0201 23.19 25.0201 24.24V24.37C25.0201 25.42 24.1701 26.27 23.1201 26.27H19.6901C19.3401 26.27 19.0501 26.56 19.0501 26.91C19.0501 27.26 19.3401 27.55 19.6901 27.55H25.1701L31.1401 23.08C31.5901 22.74 32.1701 22.61 32.7101 22.7C33.2701 22.8 33.7501 23.11 34.0601 23.58C34.1901 23.78 34.1601 24.05 33.9901 24.22L26.6501 31.15C25.9101 31.85 24.9301 32.24 23.9101 32.24H15.4001C14.8201 32.24 14.2701 32.47 13.8601 32.88L12.5101 34.23C12.4101 34.33 12.2801 34.38 12.1601 34.38L12.1701 34.37ZM7.0501 28.05L12.1601 33.16L13.1601 32.16C13.7601 31.56 14.5601 31.23 15.4101 31.23H23.9201C24.6901 31.23 25.4201 30.94 25.9701 30.41L32.9401 23.83C32.8201 23.75 32.6901 23.7 32.5401 23.67C32.2601 23.62 31.9701 23.69 31.7401 23.86L25.6301 28.43C25.5401 28.49 25.4401 28.53 25.3301 28.53H19.6801C18.7801 28.53 18.0401 27.8 18.0401 26.89C18.0401 25.98 18.7701 25.25 19.6801 25.25H23.1101C23.6101 25.25 24.0101 24.85 24.0101 24.35V24.22C24.0101 23.72 23.6101 23.32 23.1101 23.32H20.2901C19.4501 23.32 18.6101 23.03 17.8601 22.48C17.1801 21.98 16.2201 21.69 15.2401 21.69C14.1701 21.69 13.1701 22.01 12.5001 22.58L7.0501 28.03V28.05Z" fill="#121212"/>
<path d="M26.3903 13.3199H20.5103L21.8203 9.91992H25.0703L26.3903 13.3199Z" fill="#FFCB09"/>
<path d="M31.0399 18.6399H25.1499L26.4699 15.2399H29.7199L31.0399 18.6399Z" fill="#FFCB09"/>
<path d="M21.7501 18.6399H15.8701L17.1901 15.2399H20.4301L21.7501 18.6399Z" fill="#FFCB09"/>
<path d="M22.1199 19.0699H13.0099C12.8399 19.0699 12.6899 18.9899 12.5999 18.8499C12.5099 18.7099 12.4899 18.5399 12.5499 18.3899L14.5899 13.1399C14.6599 12.9499 14.8499 12.8199 15.0599 12.8199H20.0799C20.2899 12.8199 20.4699 12.9499 20.5499 13.1399L22.5899 18.3899C22.6499 18.5399 22.6299 18.7199 22.5399 18.8499C22.4499 18.9899 22.2899 19.0699 22.1299 19.0699H22.1199ZM13.7399 18.0699H21.3899L19.7399 13.8199H15.3999L13.7499 18.0699H13.7399Z" fill="#121212"/>
<path d="M31.22 19.0699H22.11C21.94 19.0699 21.79 18.9899 21.7 18.8499C21.61 18.7099 21.59 18.5399 21.65 18.3899L23.69 13.1399C23.76 12.9499 23.95 12.8199 24.16 12.8199H29.18C29.39 12.8199 29.57 12.9499 29.65 13.1399L31.69 18.3899C31.75 18.5399 31.73 18.7199 31.64 18.8499C31.55 18.9899 31.39 19.0699 31.23 19.0699H31.22ZM22.85 18.0699H30.49L28.84 13.8199H24.5L22.85 18.0699Z" fill="#121212"/>
<path d="M26.6697 13.8199H17.5597C17.3897 13.8199 17.2397 13.7399 17.1497 13.5999C17.0597 13.4599 17.0397 13.2899 17.0997 13.1399L19.1397 7.88995C19.2097 7.69995 19.3997 7.56995 19.6097 7.56995H24.6297C24.8397 7.56995 25.0197 7.69995 25.0997 7.88995L27.1397 13.1399C27.1997 13.2899 27.1797 13.4699 27.0897 13.5999C26.9997 13.7399 26.8397 13.8199 26.6797 13.8199H26.6697ZM18.2897 12.8199H25.9397L24.2897 8.56995H19.9497L18.2997 12.8199H18.2897Z" fill="#121212"/>
</g>
<defs>
<clipPath id="clip0_6495_133">
<rect width="40" height="40" fill="white"/>
</clipPath>
</defs>
</svg>
