<svg width="39" height="23" viewBox="0 0 39 23" fill="none" xmlns="http://www.w3.org/2000/svg">
<path d="M26.0709 9.21932C25.3909 9.21932 19.7109 9.21932 19.7109 9.21932V8.07932C19.7109 5.79932 24.5609 3.36932 27.6009 6.44932C27.8609 7.25932 27.8709 7.26932 27.8809 7.32932C27.6609 7.77932 27.4809 8.13932 27.3509 8.41932C27.0709 8.98932 26.7509 9.21932 26.0709 9.22932V9.21932Z" fill="#FFCB09"/>
<path d="M26.23 9.15874C24.83 9.15874 18.75 9.15874 18.75 9.15874C18.47 9.15874 18.25 8.93874 18.25 8.65874V7.27874C18.25 5.85874 19.53 4.37874 21.44 3.58874C23.45 2.76874 26.4 2.68874 28.63 4.95874C28.69 5.01874 28.73 5.07874 28.75 5.15874L29.09 6.22874C29.13 6.34874 29.12 6.48874 29.06 6.59874L28.42 7.90874C27.99 8.79874 27.41 9.15874 26.43 9.15874H26.22H26.23ZM19.25 8.14874C20.84 8.14874 25.75 8.14874 26.43 8.14874C27.03 8.14874 27.25 8.00874 27.52 7.45874L28.08 6.32874L27.84 5.56874C25.47 3.25874 22.64 4.16874 21.82 4.49874C20.31 5.11874 19.25 6.24874 19.25 7.25874V8.13874V8.14874Z" fill="black"/>
<path d="M31.3878 7.4993H30.3078C28.8978 7.4993 27.7578 6.3293 27.7578 4.8893C27.7578 3.4493 28.9078 2.2793 30.3078 2.2793H31.3878C31.6678 2.2793 31.8878 2.4993 31.8878 2.7793V6.9893C31.8878 7.2693 31.6678 7.4893 31.3878 7.4893V7.4993ZM30.3078 3.2893C29.4478 3.2893 28.7578 4.0093 28.7578 4.8993C28.7578 5.7893 29.4578 6.5093 30.3078 6.5093H30.8878V3.2993H30.3078V3.2893Z" fill="black"/>
<path d="M37.3984 18.6387C37.3984 20.8487 35.6084 22.6387 33.3984 22.6387C31.1884 22.6387 29.3984 20.8487 29.3984 18.6387C29.3984 16.4287 31.1884 14.6387 33.3984 14.6387C35.6084 14.6387 37.3984 16.4287 37.3984 18.6387Z" fill="#FFCB09"/>
<path d="M31.9412 22.9203C28.5512 22.9203 25.7812 20.0903 25.7812 16.6203C25.7812 13.1503 28.5412 10.3203 31.9412 10.3203C35.3412 10.3203 38.1012 13.1503 38.1012 16.6203C38.1012 20.0903 35.3412 22.9203 31.9412 22.9203ZM31.9412 11.3203C29.1012 11.3203 26.7812 13.7003 26.7812 16.6203C26.7812 19.5403 29.0912 21.9203 31.9412 21.9203C34.7912 21.9203 37.1012 19.5403 37.1012 16.6203C37.1012 13.7003 34.7912 11.3203 31.9412 11.3203Z" fill="black"/>
<path d="M31.9362 17.1196C31.7262 17.1196 31.5262 16.9896 31.4562 16.7696L26.6362 1.85961H23.9062C23.6262 1.84961 23.4062 1.61961 23.4062 1.34961C23.4062 1.07961 23.6262 0.849609 23.9062 0.849609H27.0063C27.2263 0.869609 27.4162 1.00961 27.4762 1.20961L32.4062 16.4596C32.4862 16.7196 32.3463 16.9996 32.0863 17.0896C32.0363 17.1096 31.9862 17.1096 31.9362 17.1096V17.1196Z" fill="black"/>
<path d="M11.2266 18.2598C11.2266 20.4698 9.43656 22.2598 7.22656 22.2598C5.01656 22.2598 3.22656 20.4698 3.22656 18.2598C3.22656 16.0498 5.01656 14.2598 7.22656 14.2598C9.43656 14.2598 11.2266 16.0498 11.2266 18.2598Z" fill="#FFCB09"/>
<path d="M20.7447 18.1503H7.05469C6.77469 18.1503 6.55469 17.9303 6.55469 17.6503V15.5403C6.55469 15.2603 6.77469 15.0403 7.05469 15.0403H20.7447C21.0247 15.0403 21.2447 15.2603 21.2447 15.5403C21.2447 15.8203 21.0247 16.0403 20.7447 16.0403H7.55469V17.1503H20.7447C22.5347 17.1503 23.9847 15.6503 23.9847 13.8203C23.9847 13.5403 24.2047 13.3203 24.4847 13.3203C24.7647 13.3203 24.9847 13.5403 24.9847 13.8203C24.9847 16.2103 23.0847 18.1503 20.7447 18.1503Z" fill="black"/>
<path d="M7.05844 22.9203C3.65844 22.9203 0.898438 20.0903 0.898438 16.6203C0.898438 13.1503 3.65844 10.3203 7.05844 10.3203C10.0184 10.3203 12.5584 12.4803 13.1084 15.4603L12.1284 15.6403C11.6684 13.1403 9.53844 11.3203 7.05844 11.3203C4.21844 11.3203 1.89844 13.7003 1.89844 16.6203C1.89844 19.5403 4.20844 21.9203 7.05844 21.9203C9.55844 21.9203 11.6884 20.0903 12.1284 17.5603L13.1084 17.7303C12.5784 20.7403 10.0384 22.9203 7.04844 22.9203H7.05844Z" fill="black"/>
<path d="M24.4906 14.3088C24.4306 14.3088 24.3806 14.3088 24.3206 14.2788C24.0606 14.1888 23.9306 13.8988 24.0206 13.6388L25.9006 8.47883C25.9906 8.21883 26.2806 8.08883 26.5406 8.17883C26.8006 8.26883 26.9306 8.55883 26.8406 8.81883L24.9606 13.9788C24.8906 14.1788 24.6906 14.3088 24.4906 14.3088Z" fill="black"/>
<path d="M9.99689 15.779C9.92689 15.779 9.85689 15.769 9.79689 15.739C9.54689 15.629 9.42689 15.329 9.54689 15.079L12.4869 8.459C12.5969 8.209 12.8969 8.089 13.1469 8.209C13.3969 8.329 13.5169 8.619 13.3969 8.869L10.4569 15.489C10.3769 15.679 10.1869 15.789 9.99689 15.789V15.779Z" fill="black"/>
<path d="M24.4988 14.2988H20.9688C20.6887 14.2988 20.4688 14.0788 20.4688 13.7988C20.4688 13.5188 20.6887 13.2988 20.9688 13.2988H24.4988C24.7788 13.2988 24.9988 13.5188 24.9988 13.7988C24.9988 14.0788 24.7788 14.2988 24.4988 14.2988Z" fill="black"/>
<path d="M19.331 9.07992H3.93095C3.67095 9.07992 3.42095 8.94992 3.26095 8.72992C3.05095 8.44992 2.99095 8.05992 3.10095 7.71992L3.68095 5.83992C3.81095 5.42992 4.13096 5.16992 4.51096 5.16992H19.141C19.421 5.16992 19.641 5.38992 19.641 5.66992C19.641 5.94992 19.421 6.16992 19.141 6.16992H4.63095L4.06095 8.00992C4.06095 8.00992 4.06095 8.05992 4.06095 8.07992H19.341C19.621 8.07992 19.841 8.29992 19.841 8.57992C19.841 8.85992 19.621 9.07992 19.341 9.07992H19.331Z" fill="black"/>
</svg>
