<svg width="48" height="48" viewBox="0 0 48 48" fill="none" xmlns="http://www.w3.org/2000/svg">
<g clip-path="url(#clip0_31687_22669)">
<g clip-path="url(#clip1_31687_22669)">
<path d="M39.0839 29.1958V34.7038C39.0839 38.3158 36.1559 41.2438 32.5439 41.2438H26.9399C23.3279 41.2438 20.3999 38.3158 20.3999 34.7038V33.1438C20.3999 30.9718 22.1639 29.1958 24.3479 29.1958H39.0959H39.0839Z" fill="#FFCB09"/>
<path d="M28.4397 41.6998H19.0557C10.8477 41.6998 7.51172 38.4718 7.51172 30.5398V23.0038C7.51172 22.6678 7.77572 22.4038 8.11172 22.4038C8.44772 22.4038 8.71172 22.6678 8.71172 23.0038V30.5398C8.71172 37.7038 11.6157 40.4998 19.0557 40.4998H28.4397C35.8917 40.4998 38.7837 37.7038 38.7837 30.5398V23.0038C38.7837 22.6678 39.0477 22.4038 39.3837 22.4038C39.7197 22.4038 39.9837 22.6678 39.9837 23.0038V30.5398C39.9837 38.4598 36.6357 41.6998 28.4397 41.6998Z" fill="#121212"/>
<path d="M23.7478 24.9118C21.9958 24.9118 20.4118 24.2398 19.3078 23.0038C18.2518 21.8278 17.7598 20.2918 17.9278 18.6838L19.0918 7.46383C19.1278 7.16383 19.3798 6.92383 19.6918 6.92383H27.8158C28.1278 6.92383 28.3798 7.15183 28.4158 7.46383L29.5798 18.6838C29.7478 20.2918 29.2558 21.8278 28.1998 23.0038C27.0958 24.2278 25.5118 24.9118 23.7598 24.9118H23.7478ZM20.2318 8.13583L19.1278 18.8158C18.9958 20.0878 19.3798 21.2878 20.2078 22.2118C21.0838 23.1838 22.3438 23.7238 23.7598 23.7238C25.1758 23.7238 26.4358 23.1838 27.3118 22.2118C28.1398 21.2998 28.5238 20.0878 28.3918 18.8158L27.2878 8.13583H20.2438H20.2318Z" fill="#121212"/>
<path d="M35.9517 20.4356C38.6277 20.4356 40.6077 18.2516 40.3317 15.5876L39.9717 11.9276C39.4917 8.47165 38.1597 7.13965 34.6797 7.13965H30.6357L31.5717 16.4636C31.7877 18.6476 33.7677 20.4356 35.9517 20.4356Z" fill="#FFCB09"/>
<path d="M11.4236 19.7876C13.5116 19.7876 15.3836 18.0836 15.5996 16.0076L15.8755 13.2116L16.4875 7.13965H12.6355C9.32355 7.13965 8.06355 8.39965 7.60755 11.6876L7.25955 15.1676C7.00755 17.6996 8.87955 19.7756 11.4355 19.7756L11.4236 19.7876Z" fill="#FFCB09"/>
<path d="M34.7278 24.9118C31.5478 24.9118 28.7038 22.4158 28.3918 19.3678L27.1678 7.59583C27.1558 7.42783 27.2038 7.25983 27.3238 7.12783C27.4438 7.00783 27.5998 6.92383 27.7678 6.92383H33.0718C37.8718 6.92383 39.9118 8.69983 40.5958 13.4878L41.0758 18.1318C41.2558 19.8838 40.7278 21.5638 39.5758 22.8358C38.3638 24.1798 36.6478 24.9118 34.7398 24.9118H34.7278ZM28.4278 8.13583L29.5798 19.2478C29.8318 21.7198 32.1478 23.7238 34.7278 23.7238C36.2998 23.7238 37.6918 23.1238 38.6758 22.0438C39.5998 21.0238 40.0198 19.6798 39.8758 18.2638L39.3958 13.6438C38.7958 9.47983 37.2598 8.13583 33.0718 8.13583H28.4398H28.4278Z" fill="#121212"/>
<path d="M12.6718 24.9118C10.7638 24.9118 9.03577 24.1798 7.83577 22.8358C6.68377 21.5638 6.15577 19.8838 6.33577 18.1318L6.81577 13.5118C7.49977 8.71183 9.53977 6.92383 14.3398 6.92383H19.6438C19.8118 6.92383 19.9798 6.99583 20.0878 7.12783C20.1958 7.25983 20.2558 7.42783 20.2438 7.59583L19.0198 19.3678C18.7078 22.4278 15.8518 24.9118 12.6838 24.9118H12.6718ZM14.3398 8.13583C10.1518 8.13583 8.60377 9.47983 8.00377 13.6678L7.52377 18.2638C7.37977 19.6798 7.79977 21.0238 8.72377 22.0438C9.69577 23.1238 11.0998 23.7238 12.6718 23.7238C15.2518 23.7238 17.5678 21.7198 17.8198 19.2478L18.9718 8.13583H14.3398Z" fill="#121212"/>
<path d="M28.1037 41.6996H19.4037C19.0677 41.6996 18.8037 41.4356 18.8037 41.0996V36.8996C18.8037 33.7676 20.5197 32.0996 23.7597 32.0996C26.9997 32.0996 28.7157 33.7556 28.7157 36.8996V41.0996C28.7157 41.4356 28.4517 41.6996 28.1157 41.6996H28.1037ZM20.0037 40.4996H27.5037V36.8996C27.5037 34.4516 26.3157 33.2996 23.7477 33.2996C21.1797 33.2996 19.9917 34.4396 19.9917 36.8996V40.4996H20.0037Z" fill="#121212"/>
</g>
</g>
<defs>
<clipPath id="clip0_31687_22669">
<rect width="48" height="48" fill="white"/>
</clipPath>
<clipPath id="clip1_31687_22669">
<rect width="48" height="48" fill="white"/>
</clipPath>
</defs>
</svg>
