<?xml version="1.0" encoding="UTF-8"?>
<svg id="Layer_1" data-name="Layer 1" xmlns="http://www.w3.org/2000/svg" viewBox="0 0 32 32">
  <g>
    <rect x="11.33" y="14.42" width="18.67" height="11.72" rx="1.85" ry="1.85" fill="#ffcb09"/>
    <rect x="2" y="8.56" width="28" height="17.58" rx="2.77" ry="2.77" fill="none" stroke="#000" stroke-linecap="round" stroke-linejoin="round"/>
    <g>
      <line x1="11.98" y1="4.01" x2="16.4" y2="8.43" fill="none" stroke="#000" stroke-linecap="round" stroke-linejoin="round"/>
      <line x1="20.4" y1="4.43" x2="16.4" y2="8.43" fill="none" stroke="#000" stroke-linecap="round" stroke-linejoin="round"/>
    </g>
    <g>
      <line x1="6.14" y1="28.15" x2="8.15" y2="26.14" fill="none" stroke="#000" stroke-linecap="round" stroke-linejoin="round"/>
      <line x1="25.86" y1="28.15" x2="23.85" y2="26.14" fill="none" stroke="#000" stroke-linecap="round" stroke-linejoin="round"/>
    </g>
    <path d="M12.43,17.35v-1.56c0-2,1.42-2.82,3.15-1.82l1.35,.78,1.35,.78c1.73,1,1.73,2.64,0,3.64l-1.35,.78-1.35,.78c-1.73,1-3.15,.18-3.15-1.82v-1.56Z" fill="none" stroke="#000" stroke-linecap="round" stroke-linejoin="round"/>
  </g>
  <rect width="32" height="32" fill="none" opacity="0"/>
</svg>