<svg width="41" height="40" viewBox="0 0 41 40" fill="none" xmlns="http://www.w3.org/2000/svg">
<g clip-path="url(#clip0_9031_47563)">
<path d="M8.23937 30.2502C9.69188 30.2502 10.8694 29.0727 10.8694 27.6202C10.8694 26.1677 9.69188 24.9902 8.23937 24.9902C6.78687 24.9902 5.60938 26.1677 5.60938 27.6202C5.60938 29.0727 6.78687 30.2502 8.23937 30.2502Z" fill="#FFCB09"/>
<path d="M35.7003 30.0002C37.1528 30.0002 38.3303 28.8227 38.3303 27.3702C38.3303 25.9177 37.1528 24.7402 35.7003 24.7402C34.2478 24.7402 33.0703 25.9177 33.0703 27.3702C33.0703 28.8227 34.2478 30.0002 35.7003 30.0002Z" fill="#FFCB09"/>
<path d="M7.0875 29.9311C9.51755 29.9311 11.4875 27.9029 11.4875 25.4011C11.4875 22.8992 9.51755 20.8711 7.0875 20.8711C4.65745 20.8711 2.6875 22.8992 2.6875 25.4011C2.6875 27.9029 4.65745 29.9311 7.0875 29.9311Z" stroke="#231F20" stroke-miterlimit="10"/>
<path d="M34.4781 29.6596C36.9082 29.6596 38.8781 27.6315 38.8781 25.1296C38.8781 22.6278 36.9082 20.5996 34.4781 20.5996C32.0481 20.5996 30.0781 22.6278 30.0781 25.1296C30.0781 27.6315 32.0481 29.6596 34.4781 29.6596Z" stroke="#231F20" stroke-miterlimit="10"/>
<path d="M7.08375 26.0298C7.49244 26.0298 7.82375 25.6895 7.82375 25.2698C7.82375 24.85 7.49244 24.5098 7.08375 24.5098C6.67506 24.5098 6.34375 24.85 6.34375 25.2698C6.34375 25.6895 6.67506 26.0298 7.08375 26.0298Z" stroke="#231F20" stroke-miterlimit="10"/>
<path d="M34.4744 25.8911C34.8831 25.8911 35.2144 25.5508 35.2144 25.1311C35.2144 24.7114 34.8831 24.3711 34.4744 24.3711C34.0657 24.3711 33.7344 24.7114 33.7344 25.1311C33.7344 25.5508 34.0657 25.8911 34.4744 25.8911Z" stroke="#231F20" stroke-miterlimit="10"/>
<path d="M26.7578 11.6504C29.0878 15.8004 31.4178 19.9504 33.7378 24.1104" stroke="#231F20" stroke-miterlimit="10" stroke-linecap="round"/>
<path d="M29.6266 15.3205C29.8475 15.3205 30.0266 14.7966 30.0266 14.1505C30.0266 13.5043 29.8475 12.9805 29.6266 12.9805C29.4056 12.9805 29.2266 13.5043 29.2266 14.1505C29.2266 14.7966 29.4056 15.3205 29.6266 15.3205Z" stroke="#231F20" stroke-miterlimit="10" stroke-linecap="round"/>
<path d="M31.8203 13.1211L31.8503 15.3211" stroke="#231F20" stroke-miterlimit="10" stroke-linecap="round"/>
<path d="M24.2794 10.0605L22.3594 11.7905" stroke="#231F20" stroke-miterlimit="10" stroke-linecap="round"/>
<path d="M26.7534 11.6505L24.2734 10.0605" stroke="#231F20" stroke-miterlimit="10" stroke-linecap="round"/>
<path d="M31.0781 19.1111C31.4881 18.7811 32.2781 18.2611 33.3881 18.0311C34.9081 17.7111 36.1381 18.1511 36.6381 18.3511" stroke="#231F20" stroke-miterlimit="10" stroke-linecap="round"/>
<path d="M9.9375 16.7908C10.9375 17.0308 11.9475 17.6608 12.3375 17.9008C13.4975 18.6108 13.5575 18.9508 14.1775 19.1808C14.7475 19.3908 15.6675 19.4808 18.1375 18.1608C21.4975 16.3808 21.8175 15.1508 23.6775 14.8108C24.0575 14.7408 26.6175 14.2008 27.6075 15.5808C28.3975 16.6908 27.6675 18.4608 26.9475 19.3908C25.0675 21.8408 19.6875 21.1908 18.4675 21.0708C18.1675 21.0408 17.3875 20.9508 16.4775 21.2508" fill="#FFCB09"/>
<path d="M25.0763 23C25.0063 23.58 24.8863 24.38 24.6763 25.31C24.3263 26.89 24.0963 27.18 23.9163 27.36C23.2763 27.97 22.2862 27.81 21.5562 27.73C20.2362 27.57 18.3663 27.45 15.9062 27.61" stroke="#231F20" stroke-miterlimit="10" stroke-linecap="round"/>
<path d="M5.41406 17.7606C6.26406 17.2606 7.98406 16.4406 9.78406 16.8806C10.7841 17.1206 11.7941 17.7506 12.1841 17.9906C13.3441 18.7006 13.4041 19.0406 14.0241 19.2706C14.5941 19.4806 15.5141 19.5706 17.9841 18.2506C21.3441 16.4706 21.6641 15.2406 23.5241 14.9006C23.9041 14.8306 26.4641 14.2906 27.4541 15.6706C28.2441 16.7806 27.5141 18.5506 26.7941 19.4806C24.9141 21.9306 19.5341 21.2806 18.3141 21.1606C18.0141 21.1306 17.2341 21.0406 16.3241 21.3406C15.9441 21.4606 14.8541 21.8306 14.1041 22.9306C13.0941 24.4206 13.4741 26.1106 13.5341 26.3806" stroke="#231F20" stroke-miterlimit="10" stroke-linecap="round"/>
<path d="M10.9272 19.5514C10.2172 19.0114 8.44719 17.8314 5.99719 18.1214C4.21719 18.3314 2.84719 19.2314 2.11719 19.8014" stroke="#231F20" stroke-miterlimit="10" stroke-linecap="round"/>
<path d="M22.6769 23.2207C22.6469 23.5007 22.5869 23.8807 22.4869 24.3307C22.3169 25.0907 22.2069 25.2307 22.1269 25.3107C21.8169 25.6007 21.3469 25.5307 20.9969 25.4807C20.3669 25.4007 19.4769 25.3507 18.2969 25.4207" stroke="#231F20" stroke-miterlimit="10" stroke-linecap="round"/>
<path d="M12.0138 6.35938L10.3438 8.26938L12.0138 10.1894" stroke="black" stroke-linecap="round" stroke-linejoin="round"/>
<path d="M10.3906 8.26953H16.8806" stroke="black" stroke-linecap="round" stroke-linejoin="round"/>
<path d="M17.3984 15.58L19.0684 13.66L17.3984 11.75" stroke="black" stroke-linecap="round" stroke-linejoin="round"/>
<path d="M19.0213 13.6602H12.5312" stroke="black" stroke-linecap="round" stroke-linejoin="round"/>
</g>
<defs>
<clipPath id="clip0_9031_47563">
<rect width="40" height="40" fill="white" transform="translate(0.5)"/>
</clipPath>
</defs>
</svg>
