<svg width="40" height="40" viewBox="0 0 40 40" fill="none" xmlns="http://www.w3.org/2000/svg">
<g clip-path="url(#clip0_5558_10676)">
<g clip-path="url(#clip1_5558_10676)">
<path d="M32.56 26.4399V25.8999C32.56 23.7299 31.67 23.1899 28.12 23.1899H19.23C15.67 23.1899 14.79 23.7299 14.79 25.8999V29.1499C14.79 31.3199 15.68 31.8599 19.23 31.8599H28.12C31.68 31.8599 32.56 31.3199 32.56 29.1499V26.4399Z" fill="#FFCB09"/>
<path d="M14.31 19.3199C12.63 19.3199 11.27 17.9999 11.27 16.3699C11.27 14.7399 12.64 13.4199 14.31 13.4199C15.98 13.4199 17.36 14.7399 17.36 16.3699C17.36 17.9999 15.99 19.3199 14.31 19.3199ZM14.31 14.4299C13.18 14.4299 12.27 15.2999 12.27 16.3799C12.27 17.4599 13.19 18.3299 14.31 18.3299C15.43 18.3299 16.36 17.4599 16.36 16.3799C16.36 15.2999 15.44 14.4299 14.31 14.4299Z" fill="#121212"/>
<path d="M18.33 25.46H10.29C10.01 25.46 9.79004 25.24 9.79004 24.96C9.79004 22.72 11.73 21.04 14.31 21.04C17.01 21.04 18.83 22.62 18.83 24.96C18.83 25.24 18.61 25.46 18.33 25.46ZM10.84 24.46H17.79C17.55 22.97 16.24 22.04 14.31 22.04C12.38 22.04 11.1 23.03 10.84 24.46Z" fill="#121212"/>
<path d="M29.4003 17.3799H21.2603C20.9803 17.3799 20.7603 17.1599 20.7603 16.8799C20.7603 16.5999 20.9803 16.3799 21.2603 16.3799H29.4003C29.6803 16.3799 29.9003 16.5999 29.9003 16.8799C29.9003 17.1599 29.6803 17.3799 29.4003 17.3799Z" fill="#121212"/>
<path d="M26.6003 22.5H21.2603C20.9803 22.5 20.7603 22.28 20.7603 22C20.7603 21.72 20.9803 21.5 21.2603 21.5H26.6003C26.8803 21.5 27.1003 21.72 27.1003 22C27.1003 22.28 26.8803 22.5 26.6003 22.5Z" fill="#121212"/>
<path d="M27.0701 32.45H12.6101C7.68008 32.45 6.33008 31.01 6.33008 25.75V14.15C6.33008 8.88995 7.68008 7.44995 12.6101 7.44995H27.0701C32.0001 7.44995 33.3501 8.88995 33.3501 14.15V25.75C33.3501 31.01 32.0001 32.45 27.0701 32.45ZM12.6101 8.44995C8.27008 8.44995 7.33008 9.45995 7.33008 14.15V25.75C7.33008 30.44 8.27008 31.45 12.6101 31.45H27.0701C31.4101 31.45 32.3501 30.44 32.3501 25.75V14.15C32.3501 9.45995 31.4101 8.44995 27.0701 8.44995H12.6101Z" fill="#121212"/>
</g>
</g>
<defs>
<clipPath id="clip0_5558_10676">
<rect width="40" height="40" fill="white"/>
</clipPath>
<clipPath id="clip1_5558_10676">
<rect width="40" height="40" fill="white"/>
</clipPath>
</defs>
</svg>
