<svg width="40" height="40" viewBox="0 0 40 40" fill="none" xmlns="http://www.w3.org/2000/svg">
<g clip-path="url(#clip0_6495_467)">
<path d="M16.6301 14.9401C16.6301 10.4301 20.2701 7.3501 24.7801 7.3501C29.2901 7.3501 32.9501 11.0101 32.9501 15.5201L29.9501 14.8601L26.7201 15.8701L23.7201 14.6801L20.2701 15.8701L16.6201 14.9501L16.6301 14.9401Z" fill="#FFCB09"/>
<path d="M13.35 17.7599C13.07 17.7599 12.85 17.5399 12.85 17.2599C12.85 15.9799 11.58 14.9399 10.03 14.9399C8.47996 14.9399 7.20996 15.9799 7.20996 17.2599C7.20996 17.5399 6.98996 17.7599 6.70996 17.7599C6.42996 17.7599 6.20996 17.5399 6.20996 17.2599C6.20996 15.4299 7.92996 13.9399 10.03 13.9399C12.13 13.9399 13.85 15.4299 13.85 17.2599C13.85 17.5399 13.63 17.7599 13.35 17.7599Z" fill="black"/>
<path d="M19.9999 17.7599C19.7199 17.7599 19.4999 17.5399 19.4999 17.2599C19.4999 15.9799 18.2299 14.9399 16.6799 14.9399C15.1299 14.9399 13.8599 15.9799 13.8599 17.2599C13.8599 17.5399 13.6399 17.7599 13.3599 17.7599C13.0799 17.7599 12.8599 17.5399 12.8599 17.2599C12.8599 15.4299 14.5799 13.9399 16.6799 13.9399C18.7799 13.9399 20.4999 15.4299 20.4999 17.2599C20.4999 17.5399 20.2799 17.7599 19.9999 17.7599Z" fill="black"/>
<path d="M26.6498 17.7599C26.3698 17.7599 26.1498 17.5399 26.1498 17.2599C26.1498 15.9799 24.8798 14.9399 23.3298 14.9399C21.7798 14.9399 20.5098 15.9799 20.5098 17.2599C20.5098 17.5399 20.2898 17.7599 20.0098 17.7599C19.7298 17.7599 19.5098 17.5399 19.5098 17.2599C19.5098 15.4299 21.2298 13.9399 23.3298 13.9399C25.4298 13.9399 27.1498 15.4299 27.1498 17.2599C27.1498 17.5399 26.9298 17.7599 26.6498 17.7599Z" fill="black"/>
<path d="M33.2899 17.7599C33.0099 17.7599 32.7899 17.5399 32.7899 17.2599C32.7899 15.9799 31.5199 14.9399 29.9699 14.9399C28.4199 14.9399 27.1499 15.9799 27.1499 17.2599C27.1499 17.5399 26.9299 17.7599 26.6499 17.7599C26.3699 17.7599 26.1499 17.5399 26.1499 17.2599C26.1499 15.4299 27.8699 13.9399 29.9699 13.9399C32.0699 13.9399 33.7899 15.4299 33.7899 17.2599C33.7899 17.5399 33.5699 17.7599 33.2899 17.7599Z" fill="black"/>
<path d="M33.29 17.74C33.01 17.74 32.79 17.52 32.79 17.24C32.79 11.3 27.05 6.46997 20 6.46997C12.95 6.46997 7.20996 11.3 7.20996 17.24C7.20996 17.52 6.98996 17.74 6.70996 17.74C6.42996 17.74 6.20996 17.52 6.20996 17.24C6.20996 10.75 12.4 5.46997 20 5.46997C27.6 5.46997 33.79 10.75 33.79 17.24C33.79 17.52 33.57 17.74 33.29 17.74Z" fill="black"/>
<path d="M19.9999 34.8399C19.7999 34.8399 19.5999 34.8099 19.4299 34.7599C16.9199 33.8999 12.9399 30.8499 12.9399 26.3399C12.9399 24.0399 14.7999 22.1699 17.0799 22.1699C18.1899 22.1699 19.2199 22.5999 19.9899 23.3699C20.7599 22.5999 21.7899 22.1699 22.8999 22.1699C25.1799 22.1699 27.0399 24.0399 27.0399 26.3399C27.0399 30.8499 23.0599 33.8999 20.5499 34.7599C20.3899 34.8199 20.1799 34.8399 19.9799 34.8399H19.9999ZM17.0899 23.1699C15.3599 23.1699 13.9499 24.5899 13.9499 26.3399C13.9499 30.8099 18.2499 33.2999 19.7599 33.8199C19.8799 33.8599 20.1299 33.8599 20.2499 33.8199C21.7599 33.2999 26.0599 30.8199 26.0599 26.3399C26.0599 24.5899 24.6499 23.1699 22.9199 23.1699C21.9199 23.1699 21.0099 23.6299 20.4099 24.4399C20.3199 24.5699 20.1699 24.6399 20.0099 24.6399C19.8499 24.6399 19.6999 24.5699 19.6099 24.4399C19.0099 23.6399 18.0899 23.1799 17.0999 23.1799L17.0899 23.1699Z" fill="black"/>
</g>
<defs>
<clipPath id="clip0_6495_467">
<rect width="40" height="40" fill="white"/>
</clipPath>
</defs>
</svg>
