<svg width="40" height="40" viewBox="0 0 40 40" fill="none" xmlns="http://www.w3.org/2000/svg">
<g clip-path="url(#clip0_5558_10680)">
<g clip-path="url(#clip1_5558_10680)">
<path d="M26.3002 18.6201C28.4375 18.6201 30.1702 16.8875 30.1702 14.7501C30.1702 12.6128 28.4375 10.8801 26.3002 10.8801C24.1628 10.8801 22.4302 12.6128 22.4302 14.7501C22.4302 16.8875 24.1628 18.6201 26.3002 18.6201Z" fill="#FFCB09"/>
<path d="M20.6801 16.48H15.6401C15.3601 16.48 15.1401 16.26 15.1401 15.98C15.1401 15.7 15.3601 15.48 15.6401 15.48H20.6801C20.9601 15.48 21.1801 15.7 21.1801 15.98C21.1801 16.26 20.9601 16.48 20.6801 16.48Z" fill="#121212"/>
<path d="M20.68 19H14.75C14.47 19 14.25 18.78 14.25 18.5C14.25 18.22 14.47 18 14.75 18H20.68C20.96 18 21.18 18.22 21.18 18.5C21.18 18.78 20.96 19 20.68 19Z" fill="#121212"/>
<path d="M18.7301 24.7101C18.6101 24.7101 18.4901 24.6701 18.4001 24.5901L14.4301 21.0901C14.2201 20.9101 14.2001 20.5901 14.3901 20.3801C14.5701 20.1701 14.8901 20.1501 15.1001 20.3401L19.0701 23.8401C19.2801 24.0201 19.3001 24.3401 19.1101 24.5501C19.0101 24.6601 18.8701 24.7201 18.7301 24.7201V24.7101Z" fill="#121212"/>
<path d="M15.6498 21.21H14.7598C14.4798 21.21 14.2598 20.99 14.2598 20.71C14.2598 20.43 14.4798 20.21 14.7598 20.21H15.6498C16.6798 20.21 17.5198 19.37 17.5198 18.34C17.5198 17.31 16.6798 16.47 15.6498 16.47H14.7598C14.4798 16.47 14.2598 16.25 14.2598 15.97C14.2598 15.69 14.4798 15.47 14.7598 15.47H15.6498C17.2298 15.47 18.5198 16.76 18.5198 18.34C18.5198 19.92 17.2298 21.21 15.6498 21.21Z" fill="#121212"/>
<path d="M17.7201 31.67C11.3301 31.67 6.14014 26.47 6.14014 20.09C6.14014 13.71 11.3401 8.51001 17.7201 8.51001C19.7401 8.51001 21.7301 9.04001 23.4701 10.04C23.7101 10.18 23.7901 10.48 23.6601 10.72C23.5201 10.96 23.2201 11.04 22.9801 10.9C21.3901 9.99001 19.5701 9.51001 17.7301 9.51001C11.8901 9.51001 7.15014 14.26 7.15014 20.09C7.15014 25.92 11.9001 30.67 17.7301 30.67C23.5601 30.67 28.3101 25.92 28.3101 20.09C28.3101 19.81 28.5301 19.59 28.8101 19.59C29.0901 19.59 29.3101 19.81 29.3101 20.09C29.3101 26.48 24.1101 31.67 17.7301 31.67H17.7201Z" fill="#121212"/>
<path d="M27.8999 20.2501C24.6099 20.2501 21.9399 17.5701 21.9399 14.2901C21.9399 11.0101 24.6199 8.33008 27.8999 8.33008C31.1799 8.33008 33.8599 11.0101 33.8599 14.2901C33.8599 17.5701 31.1799 20.2501 27.8999 20.2501ZM27.8999 9.32008C25.1599 9.32008 22.9399 11.5501 22.9399 14.2801C22.9399 17.0101 25.1699 19.2401 27.8999 19.2401C30.6299 19.2401 32.8599 17.0101 32.8599 14.2801C32.8599 11.5501 30.6299 9.32008 27.8999 9.32008Z" fill="#121212"/>
<path d="M27.8999 17.07C27.6199 17.07 27.3999 16.85 27.3999 16.57V11.48C27.3999 11.2 27.6199 10.98 27.8999 10.98C28.1799 10.98 28.3999 11.2 28.3999 11.48V16.57C28.3999 16.85 28.1799 17.07 27.8999 17.07Z" fill="#121212"/>
<path d="M27.9001 17.6C27.7701 17.6 27.6401 17.55 27.5501 17.45L25.9601 15.86C25.7601 15.66 25.7601 15.35 25.9601 15.15C26.1601 14.95 26.4701 14.95 26.6701 15.15L27.9101 16.39L29.1501 15.15C29.3501 14.95 29.6601 14.95 29.8601 15.15C30.0601 15.35 30.0601 15.66 29.8601 15.86L28.2701 17.45C28.1801 17.54 28.0501 17.6 27.9201 17.6H27.9001Z" fill="#121212"/>
</g>
</g>
<defs>
<clipPath id="clip0_5558_10680">
<rect width="40" height="40" fill="white"/>
</clipPath>
<clipPath id="clip1_5558_10680">
<rect width="40" height="40" fill="white"/>
</clipPath>
</defs>
</svg>
