<?xml version="1.0" encoding="UTF-8"?>
<svg id="Layer_1" data-name="Layer 1" xmlns="http://www.w3.org/2000/svg" viewBox="0 0 32 32">
  <g>
    <path d="M15.55,12.75c-1.31-1.61-3.9-1.17-4.58,.79-.84,2.44-.44,5.24,1.31,7.39s4.42,3.1,6.97,2.77c2.06-.27,3.01-2.72,1.69-4.33l-5.4-6.62Z" fill="#ffcb09"/>
    <path d="M10.83,3.01c-4.94,4.03-5.68,11.31-1.64,16.25,4.03,4.94,11.31,5.68,16.25,1.64L10.83,3.01Z" fill="none" stroke="#000" stroke-linecap="round" stroke-linejoin="round"/>
    <polyline points="12.82 22.23 19.74 29.01 8.01 29.01 8.01 17.53 8.01 17.52" fill="none" stroke="#000" stroke-linecap="round" stroke-linejoin="round"/>
    <circle cx="22.12" cy="8.73" r="1" fill="none" stroke="#000" stroke-linecap="round" stroke-linejoin="round"/>
    <line x1="18.25" y1="12.1" x2="22.12" y2="8.73" fill="none" stroke="#000" stroke-linecap="round" stroke-linejoin="round"/>
    <line x1="21.44" y1="16.01" x2="22.12" y2="8.73" fill="none" stroke="#000" stroke-linecap="round" stroke-linejoin="round"/>
    <line x1="15.19" y1="8.36" x2="22.12" y2="8.73" fill="none" stroke="#000" stroke-linecap="round" stroke-linejoin="round"/>
  </g>
  <rect width="32" height="32" fill="none"/>
</svg>