<svg width="27" height="26" viewBox="0 0 27 26" fill="none" xmlns="http://www.w3.org/2000/svg">
<path d="M19.8301 9.43005H13.5401C12.0301 9.43005 10.8101 10.6501 10.8101 12.1601V16.4701C10.8101 17.9801 12.0301 19.2001 13.5401 19.2001H19.8301C21.3401 19.2001 22.5601 17.9801 22.5601 16.4701V12.1601C22.5601 10.6501 21.3401 9.43005 19.8301 9.43005Z" fill="#FFCB09"/>
<path d="M23.54 22.26H3.46C1.55 22.26 0 20.71 0 18.8V3.46C0 1.55 1.55 0 3.46 0H23.53C25.44 0 26.99 1.55 26.99 3.46V18.8C26.99 20.71 25.44 22.26 23.53 22.26H23.54ZM3.46 0.99C2.1 0.99 1 2.1 1 3.45V18.79C1 20.15 2.11 21.25 3.46 21.25H23.53C24.89 21.25 25.99 20.14 25.99 18.79V3.45C25.99 2.09 24.88 0.99 23.53 0.99H3.46Z" fill="#121212"/>
<path d="M7.9798 25.47H5.4798C4.6898 25.47 4.0498 24.83 4.0498 24.04V21.99C4.0498 21.71 4.2698 21.49 4.5498 21.49H8.9098C9.1898 21.49 9.4098 21.71 9.4098 21.99V24.04C9.4098 24.83 8.7698 25.47 7.9798 25.47ZM5.0498 22.48V24.03C5.0498 24.27 5.2398 24.46 5.4798 24.46H7.9798C8.2198 24.46 8.4098 24.27 8.4098 24.03V22.48H5.0498Z" fill="#121212"/>
<path d="M22.45 25.47H19.95C19.16 25.47 18.52 24.83 18.52 24.04V21.99C18.52 21.71 18.74 21.49 19.02 21.49H23.38C23.66 21.49 23.88 21.71 23.88 21.99V24.04C23.88 24.83 23.24 25.47 22.45 25.47ZM19.52 22.48V24.03C19.52 24.27 19.71 24.46 19.95 24.46H22.45C22.69 24.46 22.88 24.27 22.88 24.03V22.48H19.52Z" fill="#121212"/>
<path d="M4.85986 13.25C4.57986 13.25 4.35986 13.03 4.35986 12.75V9.70996C4.35986 9.42996 4.57986 9.20996 4.85986 9.20996C5.13986 9.20996 5.35986 9.42996 5.35986 9.70996V12.75C5.35986 13.03 5.13986 13.25 4.85986 13.25Z" fill="#121212"/>
<path d="M20.7999 19.13H6.37986C5.26986 19.13 4.35986 18.15 4.35986 16.96V16.35C4.35986 16.07 4.57986 15.85 4.85986 15.85C5.13986 15.85 5.35986 16.07 5.35986 16.35V16.96C5.35986 17.61 5.81986 18.13 6.37986 18.13H20.7999C21.3599 18.13 21.8199 17.6 21.8199 16.96V5.52999C21.8199 4.87999 21.3599 4.35999 20.7999 4.35999H6.37986C5.81986 4.35999 5.35986 4.88999 5.35986 5.52999V6.12999C5.35986 6.40999 5.13986 6.62999 4.85986 6.62999C4.57986 6.62999 4.35986 6.40999 4.35986 6.12999V5.52999C4.35986 4.32999 5.26986 3.35999 6.37986 3.35999H20.7999C21.9099 3.35999 22.8199 4.33999 22.8199 5.52999V16.96C22.8199 18.16 21.9099 19.13 20.7999 19.13Z" fill="#121212"/>
<path d="M5.60984 16.85H4.12984C3.55984 16.85 3.08984 16.38 3.08984 15.81V13.3C3.08984 12.73 3.55984 12.26 4.12984 12.26H5.60984C6.17984 12.26 6.64984 12.73 6.64984 13.3V15.81C6.64984 16.38 6.17984 16.85 5.60984 16.85ZM4.12984 13.26L4.08984 15.81L5.60984 15.85C5.60984 15.85 5.64984 15.83 5.64984 15.81V13.3L4.12984 13.26Z" fill="#121212"/>
<path d="M5.60984 10.22H4.12984C3.55984 10.22 3.08984 9.75001 3.08984 9.18001V6.67C3.08984 6.1 3.55984 5.63 4.12984 5.63H5.60984C6.17984 5.63 6.64984 6.1 6.64984 6.67V9.18001C6.64984 9.75001 6.17984 10.22 5.60984 10.22ZM4.12984 6.63L4.08984 9.18001L5.60984 9.22001C5.60984 9.22001 5.64984 9.20001 5.64984 9.18001V6.67L4.12984 6.63Z" fill="#121212"/>
<path d="M13.2398 15.63C10.7798 15.63 8.77979 13.66 8.77979 11.24C8.77979 8.81998 10.7798 6.84998 13.2398 6.84998C15.6998 6.84998 17.6998 8.81998 17.6998 11.24C17.6998 13.66 15.6998 15.63 13.2398 15.63ZM13.2398 7.84998C11.3298 7.84998 9.77978 9.36998 9.77978 11.24C9.77978 13.11 11.3298 14.63 13.2398 14.63C15.1498 14.63 16.6998 13.11 16.6998 11.24C16.6998 9.36998 15.1498 7.84998 13.2398 7.84998Z" fill="#121212"/>
<path d="M13.2398 11.73H9.27979C8.99979 11.73 8.77979 11.51 8.77979 11.23C8.77979 10.95 8.99979 10.73 9.27979 10.73H13.2398C13.5198 10.73 13.7398 10.95 13.7398 11.23C13.7398 11.51 13.5198 11.73 13.2398 11.73Z" fill="#121212"/>
<path d="M16.7502 11.73H13.2402C12.9602 11.73 12.7402 11.51 12.7402 11.23C12.7402 10.95 12.9602 10.73 13.2402 10.73H16.7502C17.0302 10.73 17.2502 10.95 17.2502 11.23C17.2502 11.51 17.0302 11.73 16.7502 11.73Z" fill="#121212"/>
<path d="M13.2402 15.63C12.9602 15.63 12.7402 15.41 12.7402 15.13V11.24C12.7402 10.96 12.9602 10.74 13.2402 10.74C13.5202 10.74 13.7402 10.96 13.7402 11.24V15.13C13.7402 15.41 13.5202 15.63 13.2402 15.63Z" fill="#121212"/>
<path d="M13.2402 11.73C12.9602 11.73 12.7402 11.51 12.7402 11.23V7.33997C12.7402 7.05997 12.9602 6.83997 13.2402 6.83997C13.5202 6.83997 13.7402 7.05997 13.7402 7.33997V11.23C13.7402 11.51 13.5202 11.73 13.2402 11.73Z" fill="#121212"/>
</svg>
