<svg width="28" height="29" viewBox="0 0 28 29" fill="none" xmlns="http://www.w3.org/2000/svg">
<path d="M18.9098 28C18.7298 28 18.5598 27.9 18.4698 27.75C18.3798 27.59 18.3798 27.4 18.4698 27.25L19.7598 25.1C19.8998 24.86 20.2098 24.79 20.4498 24.93C20.6898 25.07 20.7598 25.38 20.6198 25.62L19.8198 26.96C23.8498 26.5 26.9998 23.07 26.9998 18.92C26.9998 18.64 27.2198 18.42 27.4998 18.42C27.7798 18.42 27.9998 18.64 27.9998 18.92C27.9998 23.93 23.9198 28.01 18.9098 28.01V28Z" fill="#121212"/>
<path d="M0.5 9.59C0.22 9.59 0 9.37 0 9.09C0 4.08 4.08 0 9.09 0C9.27 0 9.44 0.1 9.53 0.25C9.62 0.41 9.62 0.6 9.53 0.75L8.24 2.9C8.1 3.14 7.79 3.21 7.55 3.07C7.31 2.93 7.24 2.62 7.38 2.38L8.18 1.04C4.15 1.5 1 4.93 1 9.08C1 9.36 0.78 9.58 0.5 9.58V9.59Z" fill="#121212"/>
<path d="M16.7901 20.5501C16.7901 23.4401 14.4401 25.7901 11.5501 25.7901C8.66006 25.7901 6.31006 23.4401 6.31006 20.5501C6.31006 17.6601 8.66006 15.3101 11.5501 15.3101C11.6901 15.3101 11.8201 15.3101 11.9501 15.3301C14.5201 15.5201 16.5801 17.5801 16.7701 20.1501C16.7701 20.2901 16.7901 20.4201 16.7901 20.5501Z" fill="#FFCB09"/>
<path d="M9.91984 26.2C5.46984 26.2 1.83984 22.58 1.83984 18.12C1.83984 13.66 5.45984 10.04 9.91984 10.04C10.1198 10.04 10.2998 10.05 10.4998 10.06C14.4798 10.36 17.6798 13.55 17.9698 17.5C17.9798 17.74 17.9898 17.92 17.9898 18.12C17.9898 22.57 14.3698 26.2 9.90984 26.2H9.91984ZM9.91984 11.04C6.01984 11.04 2.83984 14.22 2.83984 18.12C2.83984 22.02 6.00984 25.2 9.91984 25.2C13.8298 25.2 16.9998 22.02 16.9998 18.12C16.9998 17.94 16.9998 17.77 16.9798 17.6C16.7198 14.12 13.9198 11.33 10.4698 11.07C10.2698 11.06 10.0998 11.05 9.91984 11.04Z" fill="#121212"/>
<path d="M18.08 18.04H17.47C17.21 18.04 16.99 17.84 16.97 17.58C16.71 14.13 13.91 11.33 10.46 11.07C10.2 11.05 10 10.83 10 10.57V9.96C10 5.51 13.62 1.88 18.08 1.88C22.54 1.88 26.16 5.5 26.16 9.96C26.16 14.42 22.54 18.04 18.08 18.04ZM17.92 17.04H18.08C21.98 17.04 25.16 13.86 25.16 9.96C25.16 6.06 21.98 2.88 18.08 2.88C14.18 2.88 11 6.06 11 9.96V10.12C14.57 10.6 17.44 13.47 17.92 17.04Z" fill="#121212"/>
<path d="M12.67 15.02H8C7.72 15.02 7.5 14.8 7.5 14.52C7.5 14.24 7.72 14.02 8 14.02H12.67C12.95 14.02 13.17 14.24 13.17 14.52C13.17 14.8 12.95 15.02 12.67 15.02Z" fill="#121212"/>
<path d="M12.6702 17.5699H7.16016C6.88016 17.5699 6.66016 17.3499 6.66016 17.0699C6.66016 16.7899 6.88016 16.5699 7.16016 16.5699H12.6702C12.9502 16.5699 13.1702 16.7899 13.1702 17.0699C13.1702 17.3499 12.9502 17.5699 12.6702 17.5699Z" fill="#121212"/>
<path d="M10.86 23.36C10.74 23.36 10.62 23.32 10.53 23.24L6.85004 19.99C6.64004 19.81 6.62004 19.49 6.81004 19.28C6.99004 19.07 7.31004 19.05 7.52004 19.24L11.2 22.49C11.41 22.67 11.43 22.99 11.24 23.2C11.14 23.31 11 23.37 10.86 23.37V23.36Z" fill="#121212"/>
<path d="M8.00018 20.12H7.18018C6.90018 20.12 6.68018 19.9 6.68018 19.62C6.68018 19.34 6.90018 19.12 7.18018 19.12H8.00018C8.93018 19.12 9.70018 18.2 9.70018 17.07C9.70018 15.94 8.94018 15.02 8.00018 15.02H7.18018C6.90018 15.02 6.68018 14.8 6.68018 14.52C6.68018 14.24 6.90018 14.02 7.18018 14.02H8.00018C9.49018 14.02 10.7002 15.39 10.7002 17.07C10.7002 18.75 9.49018 20.12 8.00018 20.12Z" fill="#121212"/>
</svg>
