<svg width="41" height="40" viewBox="0 0 41 40" fill="none" xmlns="http://www.w3.org/2000/svg">
<g clip-path="url(#clip0_9031_47538)">
<g clip-path="url(#clip1_9031_47538)">
<path d="M35.4581 30.26C36.9106 30.26 38.0881 29.0825 38.0881 27.63C38.0881 26.1775 36.9106 25 35.4581 25C34.0056 25 32.8281 26.1775 32.8281 27.63C32.8281 29.0825 34.0056 30.26 35.4581 30.26Z" fill="#FFCB09"/>
<path d="M9.70813 30.26C11.1606 30.26 12.3381 29.0825 12.3381 27.63C12.3381 26.1775 11.1606 25 9.70813 25C8.25562 25 7.07812 26.1775 7.07812 27.63C7.07812 29.0825 8.25562 30.26 9.70813 30.26Z" fill="#FFCB09"/>
<path d="M23.9652 26.6793C23.9652 26.6793 23.8852 26.6793 23.8452 26.6593C23.5752 26.5893 23.4152 26.3193 23.4852 26.0493C24.0152 23.9993 24.9952 22.0593 26.3252 20.4293C27.5352 18.9393 28.9452 18.3193 29.9752 17.8793C30.2852 17.7493 30.5652 17.6193 30.8052 17.4893C31.0452 17.3593 31.3552 17.4393 31.4852 17.6893C31.6152 17.9293 31.5252 18.2393 31.2852 18.3693C31.0252 18.5193 30.7152 18.6493 30.3752 18.7993C29.3852 19.2293 28.1552 19.7693 27.0952 21.0693C25.8552 22.5893 24.9452 24.3993 24.4452 26.3093C24.3852 26.5393 24.1852 26.6893 23.9652 26.6893V26.6793Z" fill="black"/>
<path d="M10.6391 16.4395H5.86906C5.27259 16.4395 4.78906 16.923 4.78906 17.5195V18.1095C4.78906 18.7059 5.27259 19.1895 5.86906 19.1895H10.6391C11.2355 19.1895 11.7191 18.7059 11.7191 18.1095V17.5195C11.7191 16.923 11.2355 16.4395 10.6391 16.4395Z" fill="#FFCB09"/>
<path d="M10.5041 19.3902H4.74406C3.87406 19.3902 3.16406 18.6802 3.16406 17.8102V16.5702C3.16406 15.7002 3.87406 14.9902 4.74406 14.9902H10.5041C11.3741 14.9902 12.0841 15.7002 12.0841 16.5702V17.8102C12.0841 18.6802 11.3741 19.3902 10.5041 19.3902ZM4.74406 15.9902C4.42406 15.9902 4.16406 16.2502 4.16406 16.5702V17.8102C4.16406 18.1302 4.42406 18.3902 4.74406 18.3902H10.5041C10.8241 18.3902 11.0841 18.1302 11.0841 17.8102V16.5702C11.0841 16.2502 10.8241 15.9902 10.5041 15.9902H4.74406Z" fill="black"/>
<path d="M7.70156 30.9695C4.75156 30.9695 2.35156 28.5695 2.35156 25.6195C2.35156 22.6695 4.75156 20.2695 7.70156 20.2695C10.6516 20.2695 13.0516 22.6695 13.0516 25.6195C13.0516 28.5695 10.6516 30.9695 7.70156 30.9695ZM7.70156 21.2795C5.30156 21.2795 3.35156 23.2295 3.35156 25.6295C3.35156 28.0295 5.30156 29.9795 7.70156 29.9795C10.1016 29.9795 12.0516 28.0295 12.0516 25.6295C12.0516 23.2295 10.1016 21.2795 7.70156 21.2795Z" fill="black"/>
<path d="M33.5609 30.9695C30.6109 30.9695 28.2109 28.5695 28.2109 25.6195C28.2109 22.6695 30.6109 20.2695 33.5609 20.2695C36.5109 20.2695 38.9109 22.6695 38.9109 25.6195C38.9109 28.5695 36.5109 30.9695 33.5609 30.9695ZM33.5609 21.2795C31.1609 21.2795 29.2109 23.2295 29.2109 25.6295C29.2109 28.0295 31.1609 29.9795 33.5609 29.9795C35.9609 29.9795 37.9109 28.0295 37.9109 25.6295C37.9109 23.2295 35.9609 21.2795 33.5609 21.2795Z" fill="black"/>
<path d="M7.9124 25.97C7.6724 25.97 7.4624 25.8 7.4224 25.56C7.3724 25.29 7.5524 25.03 7.8224 24.98L15.4124 23.58C15.6824 23.54 15.9424 23.71 15.9924 23.98C16.0424 24.25 15.8624 24.51 15.5924 24.56L8.0024 25.96C8.0024 25.96 7.9424 25.96 7.9124 25.96V25.97Z" fill="black"/>
<path d="M33.5634 26.1296C33.3534 26.1296 33.1534 25.9996 33.0934 25.7896L30.6434 18.3896C30.5534 18.1296 30.7034 17.8496 30.9634 17.7596C31.2334 17.6696 31.5134 17.8096 31.5934 18.0796L34.0434 25.4796C34.1334 25.7396 33.9834 26.0196 33.7234 26.1096C33.6734 26.1296 33.6134 26.1396 33.5634 26.1396V26.1296Z" fill="black"/>
<path d="M29.4117 13.6396C29.1917 13.6396 28.9917 13.4896 28.9317 13.2696L27.9617 9.57955C27.8917 9.30955 28.0517 9.03955 28.3217 8.96955C28.5917 8.89955 28.8617 9.05955 28.9317 9.32955L29.9017 13.0196C29.9717 13.2896 29.8117 13.5596 29.5417 13.6296C29.5017 13.6396 29.4617 13.6496 29.4117 13.6496V13.6396Z" fill="black"/>
<path d="M28.3286 9.93985C28.2386 9.93985 28.1486 9.91985 28.0686 9.85985L24.7286 7.77985C24.4986 7.62985 24.4186 7.32985 24.5686 7.08985C24.7186 6.84985 25.0286 6.78985 25.2586 6.92985L28.5986 9.00985C28.8286 9.15985 28.9086 9.45985 28.7586 9.69985C28.6686 9.84985 28.4986 9.93985 28.3386 9.93985H28.3286Z" fill="black"/>
<path d="M29.4304 13.8907C29.3304 13.8907 29.2204 13.8607 29.1304 13.8007C29.0204 13.7307 28.9404 13.6307 28.7804 13.4207C28.1904 12.6807 26.8204 10.9707 24.6704 11.5907C24.0704 11.7707 23.4404 12.1207 22.8104 12.6507C22.6004 12.8307 22.2804 12.8007 22.1104 12.5907C21.9304 12.3807 21.9604 12.0607 22.1704 11.8907C22.9104 11.2807 23.6504 10.8607 24.3904 10.6407C27.1804 9.82074 28.9704 12.0607 29.5604 12.8007C29.6304 12.8907 29.6804 12.9607 29.7204 13.0007C29.9504 13.1507 29.9904 13.4507 29.8404 13.6807C29.7504 13.8207 29.5904 13.8907 29.4204 13.8907H29.4304Z" fill="black"/>
<path d="M4.42844 15.2191C4.24844 15.2191 4.07844 15.1291 3.98844 14.9591L3.62844 14.2991C3.36844 13.8291 3.38844 13.2691 3.66844 12.8091C3.96844 12.3191 4.47844 12.0691 5.08844 12.0391L12.0584 12.1391C12.3384 12.1391 12.5584 12.3691 12.5484 12.6491C12.5484 12.9191 12.3184 13.1391 12.0484 13.1391L5.07844 13.0391C4.84844 13.0491 4.64844 13.1391 4.52844 13.3291C4.47844 13.4191 4.39844 13.6091 4.51844 13.8191L4.87844 14.4791C5.00844 14.7191 4.91844 15.0291 4.67844 15.1591C4.59844 15.1991 4.51844 15.2191 4.43844 15.2191H4.42844Z" fill="black"/>
<path d="M16.8019 26.44C16.5619 26.44 16.3419 26.26 16.3119 26.02C16.0819 24.57 15.5519 23.15 14.7619 21.92C14.0119 20.75 13.0619 19.76 11.9319 18.96C11.7019 18.8 11.6519 18.49 11.8119 18.26C11.9719 18.03 12.2819 17.98 12.5119 18.14C13.7519 19.02 14.7919 20.11 15.6019 21.38C16.4619 22.73 17.0519 24.28 17.3019 25.87C17.3419 26.14 17.1619 26.4 16.8819 26.44C16.8519 26.44 16.8319 26.44 16.8019 26.44Z" fill="black"/>
<path d="M23.965 26.6807H23.945L16.785 26.4407C16.505 26.4407 16.295 26.2007 16.305 25.9207C16.305 25.6407 16.515 25.4207 16.825 25.4407L23.985 25.6807C24.265 25.6807 24.475 25.9207 24.465 26.2007C24.465 26.4707 24.235 26.6807 23.965 26.6807Z" fill="black"/>
<path d="M32.631 18.0702C32.051 18.0702 31.301 17.8502 30.461 17.0502C29.451 16.0902 28.731 14.1702 29.381 12.5302C29.881 11.2502 31.171 10.4902 32.101 10.4902C32.121 10.4902 32.141 10.4902 32.161 10.4902C33.131 10.5302 33.531 11.7002 33.951 12.9302C34.041 13.2002 34.131 13.4702 34.231 13.7402C34.841 15.3802 34.871 15.5002 34.831 16.0002V16.1902C34.791 16.7802 34.291 17.5802 33.441 17.9202C33.241 18.0002 32.961 18.0702 32.631 18.0702ZM30.311 12.8902C29.841 14.0802 30.371 15.5702 31.151 16.3202C31.841 16.9802 32.501 17.2102 33.071 16.9802C33.551 16.7902 33.811 16.3302 33.821 16.1302L33.841 15.9102C33.861 15.6402 33.871 15.6102 33.301 14.0802C33.201 13.8002 33.101 13.5202 33.011 13.2402C32.791 12.5902 32.421 11.4902 32.141 11.4802C31.751 11.4502 30.721 11.8702 30.321 12.8902H30.311Z" fill="black"/>
<path fill-rule="evenodd" clip-rule="evenodd" d="M16.5022 8.41984L15.2222 13.1498C15.1922 13.2698 15.2222 13.3798 15.3122 13.4698C15.4022 13.5598 15.5222 13.5998 15.6722 13.5898L16.5822 13.5098C16.8522 13.4898 17.0622 13.7498 16.9822 14.0098L16.2422 16.2698C16.1822 16.4398 16.2922 16.5998 16.4622 16.5898C16.5622 16.5898 16.6622 16.5298 16.7522 16.4098L19.9922 11.8998C20.0422 11.8198 20.0522 11.7398 20.0022 11.6698C19.9522 11.5998 19.8722 11.5598 19.7722 11.5598L18.3022 11.5998C18.2122 11.5998 18.1422 11.5698 18.0922 11.5198C18.0422 11.4598 18.0322 11.3898 18.0522 11.3198L19.0522 8.56984C19.0922 8.44984 19.0722 8.33984 19.0022 8.23984C18.9222 8.13984 18.8122 8.08984 18.6622 8.08984H16.9622C16.7422 8.08984 16.5422 8.21984 16.4822 8.40984L16.5022 8.41984Z" fill="#FFCB09"/>
<path d="M15.4905 19.4594C15.2205 19.4594 14.9805 19.3394 14.8205 19.1394C14.6405 18.9094 14.6005 18.5994 14.6905 18.3094L15.8505 14.7494L15.7505 14.6194L14.3305 14.7394C13.9605 14.7694 13.6205 14.6594 13.3705 14.4094C13.1005 14.1394 13.0005 13.7794 13.1005 13.4094L15.1105 5.98937C15.2505 5.46937 15.7605 5.10938 16.3405 5.10938H19.0105C19.3805 5.11937 19.7005 5.26937 19.9205 5.53937C20.1505 5.81937 20.2205 6.18937 20.0905 6.53937L18.5905 10.6594L20.7205 10.5594C21.0905 10.5594 21.3505 10.6994 21.5105 10.9594C21.6905 11.2494 21.6805 11.5994 21.4705 11.8794L16.3805 18.9694C16.1705 19.2694 15.8705 19.4394 15.5505 19.4594C15.5305 19.4594 15.5105 19.4594 15.4905 19.4594ZM15.7605 13.6194C16.0905 13.6194 16.4105 13.7694 16.6205 14.0394C16.8505 14.3294 16.9205 14.7094 16.8005 15.0594L15.8405 17.9994L20.4605 11.5694L18.4305 11.6294C18.1405 11.6294 17.8905 11.5294 17.7105 11.3194C17.5205 11.0994 17.4605 10.7894 17.5605 10.5094L19.1305 6.18937C19.1005 6.12937 19.0505 6.11937 18.9905 6.11937H16.3305C16.2005 6.10937 16.0905 6.17937 16.0705 6.24937L14.0605 13.6694C14.0605 13.6694 14.1205 13.7494 14.2305 13.7394L15.6605 13.6194C15.6605 13.6194 15.7205 13.6194 15.7505 13.6194H15.7605Z" fill="black"/>
</g>
</g>
<defs>
<clipPath id="clip0_9031_47538">
<rect width="40" height="40" fill="white" transform="translate(0.5)"/>
</clipPath>
<clipPath id="clip1_9031_47538">
<rect width="42" height="42" fill="white" transform="translate(-0.5 -1)"/>
</clipPath>
</defs>
</svg>
