<svg width="40" height="40" viewBox="0 0 40 40" fill="none" xmlns="http://www.w3.org/2000/svg">
<g clip-path="url(#clip0_5558_10615)">
<g clip-path="url(#clip1_5558_10615)">
<path d="M24.84 33.8798C24.66 33.8798 24.49 33.7798 24.4 33.6298C24.31 33.4698 24.31 33.2798 24.4 33.1298L25.69 30.9798C25.83 30.7398 26.14 30.6698 26.38 30.8098C26.62 30.9498 26.69 31.2598 26.55 31.4998L25.75 32.8398C29.78 32.3798 32.93 28.9498 32.93 24.7998C32.93 24.5198 33.15 24.2998 33.43 24.2998C33.71 24.2998 33.93 24.5198 33.93 24.7998C33.93 29.8098 29.85 33.8898 24.84 33.8898V33.8798Z" fill="#121212"/>
<path d="M6.43018 15.4699C6.15018 15.4699 5.93018 15.2499 5.93018 14.9699C5.93018 9.95988 10.0102 5.87988 15.0202 5.87988C15.2002 5.87988 15.3702 5.97988 15.4602 6.12988C15.5502 6.28988 15.5502 6.47988 15.4602 6.62988L14.1702 8.77988C14.0302 9.01988 13.7202 9.08988 13.4802 8.94988C13.2402 8.80988 13.1702 8.49988 13.3102 8.25988L14.1102 6.91988C10.0802 7.37988 6.93018 10.8099 6.93018 14.9599C6.93018 15.2399 6.71018 15.4599 6.43018 15.4599V15.4699Z" fill="#121212"/>
<path d="M22.7202 26.4297C22.7202 29.3197 20.3702 31.6697 17.4802 31.6697C14.5902 31.6697 12.2402 29.3197 12.2402 26.4297C12.2402 23.5397 14.5902 21.1897 17.4802 21.1897C17.6202 21.1897 17.7502 21.1897 17.8802 21.2097C20.4502 21.3997 22.5102 23.4597 22.7002 26.0297C22.7002 26.1697 22.7202 26.2997 22.7202 26.4297Z" fill="#FFCB09"/>
<path d="M15.85 32.0797C11.4 32.0797 7.77002 28.4597 7.77002 23.9997C7.77002 19.5397 11.39 15.9197 15.85 15.9197C16.05 15.9197 16.23 15.9297 16.43 15.9397C20.41 16.2397 23.61 19.4297 23.9 23.3797C23.91 23.6197 23.92 23.7997 23.92 23.9997C23.92 28.4497 20.3 32.0797 15.84 32.0797H15.85ZM15.85 16.9197C11.95 16.9197 8.77002 20.0997 8.77002 23.9997C8.77002 27.8997 11.94 31.0797 15.85 31.0797C19.76 31.0797 22.93 27.8997 22.93 23.9997C22.93 23.8197 22.93 23.6497 22.91 23.4797C22.65 19.9997 19.85 17.2097 16.4 16.9497C16.2 16.9397 16.03 16.9297 15.85 16.9297V16.9197Z" fill="#121212"/>
<path d="M24.0102 23.9198H23.4002C23.1402 23.9198 22.9202 23.7198 22.9002 23.4598C22.6402 20.0098 19.8402 17.2098 16.3902 16.9498C16.1302 16.9298 15.9302 16.7098 15.9302 16.4498V15.8398C15.9302 11.3898 19.5502 7.75977 24.0102 7.75977C28.4702 7.75977 32.0902 11.3798 32.0902 15.8398C32.0902 20.2998 28.4702 23.9198 24.0102 23.9198ZM23.8502 22.9198H24.0102C27.9102 22.9198 31.0902 19.7398 31.0902 15.8398C31.0902 11.9398 27.9102 8.75977 24.0102 8.75977C20.1102 8.75977 16.9302 11.9398 16.9302 15.8398V15.9998C20.5002 16.4798 23.3702 19.3498 23.8502 22.9198Z" fill="#121212"/>
<path d="M18.5997 20.8997H13.9297C13.6497 20.8997 13.4297 20.6797 13.4297 20.3997C13.4297 20.1197 13.6497 19.8997 13.9297 19.8997H18.5997C18.8797 19.8997 19.0997 20.1197 19.0997 20.3997C19.0997 20.6797 18.8797 20.8997 18.5997 20.8997Z" fill="#121212"/>
<path d="M18.5998 23.4497H13.0898C12.8098 23.4497 12.5898 23.2297 12.5898 22.9497C12.5898 22.6697 12.8098 22.4497 13.0898 22.4497H18.5998C18.8798 22.4497 19.0998 22.6697 19.0998 22.9497C19.0998 23.2297 18.8798 23.4497 18.5998 23.4497Z" fill="#121212"/>
<path d="M16.7897 29.2396C16.6697 29.2396 16.5497 29.1996 16.4597 29.1196L12.7797 25.8696C12.5697 25.6896 12.5497 25.3696 12.7397 25.1596C12.9197 24.9496 13.2397 24.9296 13.4497 25.1196L17.1297 28.3696C17.3397 28.5496 17.3597 28.8696 17.1697 29.0796C17.0697 29.1896 16.9297 29.2496 16.7897 29.2496V29.2396Z" fill="#121212"/>
<path d="M13.9299 25.9997H13.1099C12.8299 25.9997 12.6099 25.7797 12.6099 25.4997C12.6099 25.2197 12.8299 24.9997 13.1099 24.9997H13.9299C14.8599 24.9997 15.6299 24.0797 15.6299 22.9497C15.6299 21.8197 14.8699 20.8997 13.9299 20.8997H13.1099C12.8299 20.8997 12.6099 20.6797 12.6099 20.3997C12.6099 20.1197 12.8299 19.8997 13.1099 19.8997H13.9299C15.4199 19.8997 16.6299 21.2697 16.6299 22.9497C16.6299 24.6297 15.4199 25.9997 13.9299 25.9997Z" fill="#121212"/>
</g>
</g>
<defs>
<clipPath id="clip0_5558_10615">
<rect width="40" height="40" fill="white"/>
</clipPath>
<clipPath id="clip1_5558_10615">
<rect width="40" height="40" fill="white"/>
</clipPath>
</defs>
</svg>
