<svg width="249" height="160" viewBox="0 0 249 160" fill="none" xmlns="http://www.w3.org/2000/svg">
<path d="M0 0H249V160H0V0Z" fill="url(#paint0_linear_7214_6706)"/>
<path d="M95.0246 98.2793C97.2637 101.402 96.8084 110.937 98.1618 112.273C99.5152 113.61 113.405 113.467 114.34 112.682C115.276 111.897 114.833 108.526 115.884 107.974C116.294 107.757 95.0246 98.2793 95.0246 98.2793Z" fill="#3E86D9"/>
<path d="M153.705 98.2793C150.956 102.305 152.442 110.913 151.111 112.263C149.779 113.613 136.113 113.469 135.193 112.676C134.273 111.883 134.692 108.296 134.151 107.61C133.862 107.251 153.709 98.2793 153.709 98.2793H153.705Z" fill="#3E86D9"/>
<path d="M115.888 108.311C115.594 108.472 115.416 108.861 115.292 109.364C107.029 108.303 100.791 106.12 96.6887 104.251C96.3699 101.845 95.9022 99.5523 95.0246 98.2793C95.0246 98.2793 116.298 108.087 115.884 108.311H115.888Z" fill="#35669E"/>
<path d="M153.705 98.2793C152.679 99.8318 152.239 102.045 152.027 104.276C147.743 106.293 141.839 108.375 134.452 109.364C134.403 108.699 134.322 108.153 134.151 107.922C133.862 107.547 153.709 98.2793 153.709 98.2793H153.705Z" fill="#35669E"/>
<path d="M123.378 40.2522C95.798 40.2522 85.2441 62.0297 85.2441 74.773C85.2441 87.5164 93.2606 108.713 123.378 108.713C153.495 108.713 163.49 90.6116 163.49 74.4804C163.49 58.3493 151.24 40.248 123.378 40.248V40.2522Z" fill="#5697E2"/>
<path d="M131.54 42.1655C131.54 42.1655 143.972 32.6947 157.441 33.8205C162.08 34.2091 154.379 44.1887 154.238 51.9848L131.54 42.1655Z" fill="#5697E2"/>
<path d="M149.148 47.9682C149.071 48.4593 153.385 50.2796 153.831 50.0002C154.278 49.7208 154.728 43.6009 158.251 37.0819C158.77 36.1238 149.98 42.7107 149.144 47.9682H149.148Z" fill="#35669E"/>
<path d="M92.5986 61.1128C92.7619 60.2373 92.864 59.4501 92.9457 58.6124C93.0232 57.7832 93.0722 56.9498 93.0681 56.0995C93.064 55.2492 93.011 54.3821 92.8436 53.4855C92.668 52.5973 92.4068 51.6376 91.7127 50.7326C91.3657 50.2906 90.884 49.8823 90.3328 49.655C90.0593 49.5413 89.7776 49.4571 89.5041 49.4192C89.2347 49.3771 88.9693 49.3687 88.7039 49.3814C87.6343 49.4403 86.7158 49.9244 86.0054 50.501C85.291 51.0861 84.7276 51.7849 84.2785 52.5384C83.8335 53.3003 83.4824 54.1127 83.3314 55.0556C83.2701 55.5312 83.2293 56.0532 83.4538 56.6593C83.5641 56.954 83.7845 57.2739 84.0785 57.4717C84.3806 57.6822 84.6786 57.7537 84.9848 57.779C85.3032 57.8043 85.6584 57.7159 85.936 57.5433C86.2136 57.3707 86.4096 57.1392 86.5524 56.9161C86.8341 56.4615 86.9525 56.0111 87.0342 55.5775C87.1852 54.702 87.1485 53.8559 87.0138 53.0266C86.8668 52.2016 86.6178 51.385 86.1401 50.6568C85.8993 50.299 85.589 49.9622 85.1889 49.7391C84.7929 49.5118 84.3152 49.4403 83.8866 49.5161C83.0252 49.676 82.3679 50.2064 81.8167 50.7704C80.7349 51.9406 79.9837 53.3381 79.3754 54.7777C80.0898 53.3971 80.9553 52.0669 82.0699 51.0483C82.6251 50.56 83.2824 50.1348 83.9519 50.0927C84.6214 50.0338 85.1603 50.4716 85.4787 51.0861C85.8053 51.6965 85.9646 52.4331 86.0217 53.1613C86.0748 53.8896 86.0258 54.6346 85.8462 55.2997C85.7564 55.6238 85.6216 55.9353 85.4665 56.1289C85.3889 56.2257 85.3114 56.2805 85.2583 56.3015C85.2011 56.3184 85.1726 56.3184 85.1113 56.3015C85.0419 56.2847 84.9603 56.2468 84.9521 56.2215C84.9358 56.1963 84.9235 56.1752 84.9072 56.1037C84.8705 55.9648 84.8827 55.6701 84.9603 55.3797C85.2828 54.1674 86.2095 52.9214 87.2301 52.2395C87.7445 51.8985 88.2916 51.7175 88.7529 51.7512C88.8672 51.7596 88.9856 51.7765 89.0918 51.8059C89.1938 51.8312 89.2755 51.8691 89.353 51.9112C89.5041 51.9954 89.6184 52.1174 89.7327 52.2942C89.9654 52.652 90.1246 53.2582 90.1859 53.9106C90.2512 54.5673 90.243 55.2786 90.1859 55.9942C90.1287 56.714 90.0307 57.4422 89.9001 58.1705C89.7695 58.886 89.6062 59.6479 89.4224 60.3046L92.5946 61.1044L92.5986 61.1128Z" fill="#5697E2"/>
<path d="M150.692 65.0459C147.02 65.6057 148.343 73.3439 151.745 72.825C155.094 72.3143 153.77 64.5761 150.692 65.0459V65.0459Z" fill="#35669E"/>
<path d="M161.36 61.7656C161.948 63.6202 167.311 62.1173 168.664 63.2895C170.791 65.1356 170.202 88.0265 168.256 89.8685C167.167 90.9025 161.087 89.8141 159.377 91.07C157.667 92.3259 161.36 61.7656 161.36 61.7656Z" fill="#5697E2"/>
<path d="M167.728 85.8914C167.188 85.8914 166.75 81.5125 166.75 76.1108C166.75 70.709 167.188 66.3301 167.728 66.3301C168.269 66.3301 168.707 70.709 168.707 76.1108C168.707 81.5125 168.269 85.8914 167.728 85.8914Z" fill="#35669E"/>
<path d="M112.374 47.4208C112.47 47.394 121.893 44.5597 130.666 46.7773L131.54 43.8205C121.777 41.3539 111.749 44.3835 111.327 44.5137L112.374 47.4208L111.848 45.9692L112.37 47.4208H112.374Z" fill="#35669E"/>
<path opacity="0.3" d="M132.987 126.271C176.075 126.271 211.004 123.505 211.004 120.092C211.004 116.679 176.075 113.912 132.987 113.912C89.8998 113.912 54.9706 116.679 54.9706 120.092C54.9706 123.505 89.8998 126.271 132.987 126.271Z" fill="#404040"/>
<path d="M194.388 54.7723C194.388 54.7723 186.1 49.549 184.211 48.5045C182.323 47.4601 176.187 42.5966 175.955 42.4C175.723 42.2033 175.934 38.278 175.457 38.3963C174.979 38.5146 175.453 40.4097 174.892 40.4463C174.331 40.483 170.759 37.1881 170.616 37.5184C170.347 38.1373 172.725 39.6177 172.545 39.8828C172.364 40.1479 170.205 38.1099 169.745 38.4423C169.285 38.7753 171.969 40.1829 171.938 40.4474C171.907 40.712 169.238 39.4578 169.212 40.035C169.198 40.3483 171.611 41.0926 171.399 41.3911C171.186 41.6896 169.254 41.4043 169.272 41.7674C169.291 42.1305 170.923 41.7904 171.784 42.3457C172.646 42.9017 173.554 42.8628 174.668 44.1433C175.781 45.4238 179.179 50.387 182.177 52.1839C185.175 53.9809 191.79 57.9687 191.79 57.9687L194.388 54.7707V54.7723Z" fill="#F5B48F"/>
<path d="M203.618 56.0282C203.618 56.0282 211.614 50.3678 213.443 49.2237C215.273 48.0796 221.138 42.894 221.36 42.6854C221.581 42.4767 221.16 38.5684 221.643 38.6609C222.127 38.7535 221.755 40.6715 222.318 40.6775C222.88 40.6841 226.27 37.2024 226.431 37.525C226.732 38.1286 224.437 39.7344 224.631 39.9896C224.825 40.2449 226.873 38.0935 227.35 38.4013C227.827 38.7091 225.222 40.2591 225.267 40.5209C225.313 40.7832 227.911 39.3883 227.967 39.9633C227.998 40.2755 225.627 41.1485 225.856 41.435C226.085 41.7214 227.999 41.3331 228 41.6968C228 42.0605 226.353 41.808 225.522 42.4093C224.691 43.0107 223.783 43.0206 222.74 44.3591C221.697 45.6971 218.57 50.8356 215.672 52.7908C212.774 54.7461 206.383 59.0827 206.383 59.0827L203.617 56.0288L203.618 56.0282Z" fill="#F5B48F"/>
<path d="M201.301 114.057C201.301 114.057 201.57 116.984 201.571 116.99C201.645 117.36 201.918 118.272 201.93 118.61C201.974 119.882 196.234 117.729 197.482 117.121C197.595 117.066 198.352 116.365 198.374 115.931C198.409 115.262 198.341 114.202 198.341 114.202L201.302 114.057L201.301 114.057Z" fill="#F7A491"/>
<path d="M197.497 117.108C197.497 117.108 198.839 117.451 199.523 117.524C200.206 117.597 201.075 116.747 201.564 116.952C202.013 117.139 202.181 119.115 202.225 119.77C202.232 119.886 202.144 119.984 202.029 119.99C200.82 120.046 194.708 120.309 193.089 119.901C192.28 119.697 194.814 118.11 197.497 117.109L197.497 117.108Z" fill="#364857"/>
<path d="M190.393 114.916C190.393 114.916 190.661 117.842 190.663 117.848C190.736 118.219 191.009 119.13 191.021 119.469C191.065 120.74 185.325 118.587 186.573 117.979C186.686 117.924 187.442 117.223 187.465 116.789C187.5 116.121 187.432 115.06 187.432 115.06L190.393 114.915V114.916Z" fill="#F5B48F"/>
<path d="M186.587 117.489C186.587 117.489 187.928 117.832 188.612 117.905C189.296 117.978 190.165 117.128 190.654 117.333C191.103 117.521 191.25 119.188 191.286 119.73C191.292 119.824 191.221 119.905 191.127 119.91C190.073 119.976 184.371 120.311 182.739 119.899C181.93 119.695 183.903 118.491 186.587 117.489H186.587Z" fill="#364857"/>
<path d="M198.357 76.7913C198.357 76.7913 190.499 97.488 190.246 99.3371C190.061 100.686 190.896 115.934 190.896 115.934L186.84 116.011L184.807 98.6305L189.371 76.46L198.356 76.7913H198.357Z" fill="#484848"/>
<path d="M202.157 78.096L199.045 100.886L202.129 115.952L197.513 116.114L193.316 99.9435L192.192 82.1018L193.861 76.2881L202.157 78.096Z" fill="#484848"/>
<path d="M190.02 51.1201C190.02 51.1201 189.167 55.718 188.48 56.4541C188.48 56.4541 192.188 58.7478 192.054 59.7129C191.919 60.6779 188.702 78.7446 188.702 78.7446C188.702 78.7446 196.762 82.5916 201.661 81.7536C201.661 81.7536 204.652 61.1998 205.578 60.2074C206.503 59.215 209.428 57.5911 209.428 57.5911C209.428 57.5911 207.052 53.3947 207.025 52.6383C207.025 52.6383 201.827 55.2809 200.966 56.2043C200.105 57.1278 198.336 56.0581 197.914 55.896C197.914 55.896 190.669 51.4865 190.021 51.1207L190.02 51.1201Z" fill="#3C8F7C"/>
<path d="M200.123 52.5514L200.942 56.7193C200.942 56.7193 199.285 59.7092 197.862 59.3219C196.668 58.9972 196.689 56.6815 196.689 56.6815C196.689 56.6815 197.249 54.2673 197.014 53.0766C196.779 51.8865 200.123 52.5514 200.123 52.5514Z" fill="#F5B48F"/>
<path d="M197.014 52.5981C196.779 51.408 200.123 52.0729 200.123 52.0729L200.189 52.4217C200.1 52.6594 199.988 52.8648 199.85 53.0237C199.137 53.8419 197.995 54.3578 196.995 54.429C197.073 53.78 197.11 53.0861 197.014 52.5981Z" fill="#FEBDA1"/>
<path d="M200.459 46.5505C200.552 46.5133 201.379 51.339 200.178 52.717C198.977 54.095 196.561 54.6169 195.651 53.5966C194.646 52.4683 194.512 47.2548 196.404 45.8149C198.296 44.3745 200.459 46.551 200.459 46.551V46.5505Z" fill="#F5B48F"/>
<path d="M203.171 45.9043C204.333 47.847 203.02 50.2218 201.688 51.3204C200.357 52.4191 200.428 53.6344 200.428 53.6344L200.18 53.0117C200.004 52.5418 199.921 52.0396 199.957 51.539C199.979 51.2383 200.032 50.9124 200.147 50.6424C200.452 49.9293 199.4 49.4994 199.089 48.9254C198.849 48.4834 199.105 46.5867 197.221 46.3337C196.665 46.2592 195.551 46.4821 195.551 46.4821C194.416 46.6218 192.948 43.8592 195.408 43.2053C196.997 42.467 201.129 42.49 203.171 45.9038L203.171 45.9043Z" fill="#3F3938"/>
<path d="M199.182 50.2645C199.193 50.8566 199.48 51.3314 199.824 51.3248C200.168 51.3188 200.438 50.8335 200.428 50.242C200.417 49.65 200.129 49.1751 199.785 49.1817C199.441 49.1877 199.171 49.673 199.182 50.2645Z" fill="#F5B48F"/>
<path d="M54.4623 78.9767C54.4623 78.9767 60.6496 94.9282 60.6907 97.3441C60.7257 99.4149 59.8056 108.818 60.1293 118.492C60.1408 118.842 60.5834 119.305 61.2274 119.601C61.59 119.767 63.2977 120.604 63.2977 120.604L63.5798 121.174L57.5535 120.745L57.4303 119.348L57.4675 119.1C57.4675 119.1 54.8309 106.842 55.0752 102.749C55.1135 102.106 55.4263 98.2565 55.4263 98.2565L47.3418 84.3051L52.9754 76.0635L54.4623 78.9772V78.9767Z" fill="#F5B48F"/>
<path d="M57.3728 121.625H65.2782C65.5597 121.6 65.6326 121.245 65.4738 121.086C65.2251 120.837 64.2951 120.586 63.2972 120.126C61.5463 120.309 57.7064 119.269 57.4303 118.868C57.271 119.672 57.2162 121.59 57.3728 121.625Z" fill="#364857"/>
<path d="M33.0649 91.3391C33.3015 91.5839 34.5656 94.4588 35.4994 96.4896C36.4179 95.9496 36.8724 95.2896 37.8906 94.9385C37.1309 93.7648 35.6653 90.9524 35.558 90.2903C35.3033 88.7195 34.9555 88.4785 34.9555 88.4785C34.9555 88.4785 29.6665 90.0915 29.3028 90.5778C28.9391 91.0636 32.1152 90.3555 33.0649 91.3391V91.3391Z" fill="#F5B48F"/>
<path d="M35.6102 90.1635C36.0165 90.1772 35.6304 88.3276 35.5499 87.9021C35.4595 87.4234 35.1884 87.2722 35.1205 87.253C34.9359 87.2016 29.0581 88.9947 28.0536 89.6716C27.9857 89.7177 27.8614 89.8655 27.8422 89.8989C27.2732 90.887 32.0649 91.2233 32.7682 90.8048C33.3942 90.4329 33.7836 90.1032 35.6102 90.1635V90.1635Z" fill="#364857"/>
<path d="M56.7622 76.9506L49.6176 75.0156C49.6433 75.0282 50.053 79.608 50.047 79.6272C49.3645 81.9845 46.137 80.9696 44.6692 85.0543C43.6324 87.9406 41.9126 98.8013 41.9126 98.8013C41.9126 98.8013 40.3961 96.8872 37.6883 93.2111C37.4763 92.9235 35.2379 94.1712 35.2379 94.1712C37.7491 100.287 42.1438 106.071 42.899 105.752C48.0063 103.593 55.284 85.5302 55.2763 85.5313C55.8826 84.4332 56.7617 76.9506 56.7617 76.9506H56.7622Z" fill="#F5B48F"/>
<path d="M45.6456 65.5681C45.6456 65.5681 37.4779 65.5248 35.6814 65.6173C33.885 65.7099 27.3998 64.9727 27.1484 64.936C26.897 64.8993 25.3169 62.0283 25.031 62.323C24.7451 62.6171 25.9155 63.7497 25.5349 64.0225C25.1537 64.2952 21.1742 63.5383 21.218 63.8352C21.3007 64.3916 23.636 64.3916 23.6256 64.6583C23.6152 64.9256 21.1884 64.4349 21.0093 64.873C20.8308 65.3117 23.3507 65.125 23.4449 65.3254C23.5396 65.5259 21.098 65.8151 21.3346 66.2351C21.4628 66.463 23.4991 65.9262 23.4799 66.2308C23.4613 66.5358 21.9672 67.1859 22.1408 67.4346C22.3145 67.6832 23.3189 66.7231 24.1739 66.7363C25.0288 66.75 25.6537 66.3228 27.006 66.7379C28.3588 67.1531 32.9506 69.168 35.8644 69.1182C38.7781 69.0684 45.2167 68.9752 45.2167 68.9752L45.6456 65.567V65.5681Z" fill="#F5B48F"/>
<path d="M56.0906 64.4319C56.0906 64.4319 59.1511 56.859 59.9189 55.2323C60.6868 53.6057 62.4668 47.3258 62.5281 47.0794C62.5895 46.8329 60.5335 44.2812 60.9141 44.1284C61.2947 43.9756 61.8983 45.4883 62.2954 45.2397C62.6925 44.991 63.503 41.0214 63.761 41.1753C64.2441 41.4628 63.3579 43.6234 63.6087 43.7149C63.8596 43.8064 64.3273 41.3752 64.8005 41.3757C65.2737 41.3768 64.1444 43.6377 64.2945 43.8009C64.444 43.9647 65.6385 41.8155 65.937 42.194C66.0991 42.3994 64.8295 44.0791 65.1187 44.1772C65.4079 44.2757 66.5767 43.1404 66.741 43.3951C66.9053 43.6497 65.6358 44.2149 65.3236 45.0107C65.0119 45.8065 64.3788 46.2228 64.2501 47.6315C64.1208 49.0407 64.2419 54.0537 63.0895 56.7303C61.9372 59.4068 59.4069 65.3285 59.4069 65.3285L56.0911 64.4314L56.0906 64.4319Z" fill="#F5B48F"/>
<path d="M34.4172 57.1449C33.9435 61.5232 38.6635 62.3995 38.6635 62.3995C38.7774 62.4696 39.026 62.9894 39.3234 63.3213C40.5826 64.7272 42.5329 65.7492 44.3721 65.2113C46.4533 67.1546 50.0916 66.5893 51.279 64.5486C53.254 64.5426 54.0635 63.0491 54.517 61.153C56.3178 59.3226 55.0028 55.9088 52.8175 54.6743C51.7095 54.0483 50.3069 53.8922 49.0554 54.2455C47.6577 52.4753 45.169 52.0246 43.0943 53.075C39.9264 49.4444 34.9134 52.5619 34.4178 57.1444L34.4172 57.1449Z" fill="#3F3938"/>
<path d="M55.5923 80.4633C59.3987 84.8679 63.8449 95.9531 64.1007 107.081C47.8375 114.731 38.3564 97.703 38.3153 94.0455C40.8823 93.1703 41.056 91.9386 41.9257 87.2509C42.7949 82.5632 47.6206 78.7271 49.3031 78.5283C53.4196 81.3013 55.5923 80.4628 55.5923 80.4628V80.4633Z" fill="black"/>
<path d="M58.0015 72.6853C58.1532 71.3423 57.8175 69.0042 57.7704 68.5557C58.2201 67.17 59.7684 65.1419 60.0975 64.5652C60.0975 64.5652 58.1976 62.5661 56.6558 62.1953C56.6558 62.1953 55.0057 64.155 53.8068 64.735C53.7898 64.73 53.3839 64.9009 53.2081 64.8943C52.0695 64.8522 48.0916 64.6112 47.3418 64.8105L47.5768 70.9748C47.7805 71.3341 47.8183 75.2512 48.2411 75.8465C48.6639 76.4419 56.348 78.177 56.9423 77.0619C57.0688 76.8247 57.6943 75.4007 58.001 72.6864L58.0015 72.6853Z" fill="#3C8F7C"/>
<path d="M49.4103 65.0158C48.6868 64.6428 43.3221 64.4922 43.3221 64.4922C43.3221 64.4922 42.4677 68.1699 43.0406 69.0775C43.0406 69.0775 47.7705 69.928 47.6237 70.3136L49.4103 65.0158V65.0158Z" fill="#3C8F7C"/>
<path d="M50.6796 63.0279C50.6796 63.0279 51.028 65.1749 50.9195 66.0134C50.8116 66.853 51.1265 69.5778 52.9082 69.6408C54.6898 69.7037 53.3507 66.2018 53.2078 65.372C53.0648 64.5423 53.1021 61.9873 53.1021 61.9873L50.6791 63.0279H50.6796Z" fill="#F5B48F"/>
<path d="M53.1004 62.7929C53.0939 62.0935 53.1021 61.5107 53.1021 61.5107L50.6791 62.5514C50.6791 62.5514 50.7503 62.9901 50.8182 63.5487C51.8577 63.7902 52.6272 63.426 53.1004 62.7929V62.7929Z" fill="#C07050"/>
<path d="M49.9832 57.1098C49.9832 57.1098 49.0472 57.5929 48.6769 58.6899C48.3067 59.7869 48.6035 62.6552 50.9613 63.4159C53.3186 64.1772 54.4173 61.9465 53.9808 60.1632C53.5442 58.3799 52.5464 56.1081 49.9826 57.1098H49.9832Z" fill="#F5B48F"/>
<path d="M54.3002 59.4877C54.2394 59.9615 53.9661 60.3164 53.6906 60.2808C53.4145 60.2452 53.2404 59.8322 53.3012 59.359C53.362 58.8852 53.6353 58.5303 53.9107 58.5659C54.1868 58.6015 54.3609 59.0139 54.3002 59.4877Z" fill="#F5B48F"/>
<path d="M50.2667 56.5C50.2667 56.5 49.7393 59.6739 48.6915 60.2177C47.6438 60.7616 48.0327 62.1883 48.0327 62.1883C48.0327 62.1883 47.1974 58.8775 48.0436 57.8479C48.8903 56.8182 50.2667 56.5 50.2667 56.5V56.5Z" fill="#3F3938"/>
<path d="M49.2883 61.1702C49.5556 61.5935 49.5397 62.0832 49.2533 62.2639C48.9668 62.4441 48.5183 62.2469 48.2515 61.8236C47.9848 61.4002 48.0007 60.9106 48.2866 60.7298C48.573 60.5496 49.0216 60.7468 49.2883 61.1707V61.1702Z" fill="#F5B48F"/>
<path d="M76.003 117.553C76.1133 120.517 85.6979 122.581 97.4384 122.165C109.179 121.748 118.58 118.992 118.482 116.028C118.384 113.064 108.768 110.982 97.0464 111.404C85.3243 111.821 75.8928 114.577 76.003 117.553Z" fill="#FFBE0A"/>
<path d="M118.306 110.602L75.8242 112.123L76.0166 117.497L118.499 115.976L118.306 110.602Z" fill="#FFBE0A"/>
<path d="M75.8071 112.177C75.9173 115.141 85.502 117.205 97.2425 116.789C108.983 116.372 118.384 113.616 118.286 110.652C118.188 107.688 108.591 105.606 96.8505 106.028C85.11 106.445 75.6969 109.201 75.8071 112.177Z" fill="#FFBE0A"/>
<path opacity="0.4" d="M75.8071 112.177C75.9173 115.141 85.502 117.205 97.2425 116.789C108.983 116.372 118.384 113.616 118.286 110.652C118.188 107.688 108.591 105.606 96.8505 106.028C85.11 106.445 75.6969 109.201 75.8071 112.177Z" fill="white"/>
<path d="M78.5021 111.87C78.5082 112.066 78.5878 112.25 78.7287 112.385C80.0025 110.529 87.658 108.894 96.8936 108.569C106.129 108.251 113.956 109.31 115.34 111.056C115.463 110.909 115.53 110.731 115.536 110.541C115.45 108.526 107.152 107.161 96.8691 107.522C86.5863 107.883 78.4408 109.886 78.5082 111.87H78.5021Z" fill="#FFBE0A"/>
<path opacity="0.4" d="M78.5021 111.87C78.5082 112.066 78.5878 112.25 78.7287 112.385C80.0025 110.529 87.658 108.894 96.8936 108.569C106.129 108.251 113.956 109.31 115.34 111.056C115.463 110.909 115.53 110.731 115.536 110.541C115.45 108.526 107.152 107.161 96.8691 107.522C86.5863 107.883 78.4408 109.886 78.5082 111.87H78.5021Z" fill="#FFBE0A"/>
<path opacity="0.4" d="M78.7284 112.384C80.1248 114.13 87.8966 115.177 97.175 114.871C106.453 114.564 114.14 112.917 115.34 111.055C113.944 109.31 106.202 108.262 96.8933 108.569C87.5843 108.875 80.0023 110.522 78.7284 112.384Z" fill="#FFBE0A"/>
<path d="M68.1463 109.389C68.2566 112.353 77.8412 114.417 89.5817 114.001C101.322 113.584 110.723 110.828 110.625 107.852C110.527 104.875 100.912 102.824 89.1897 103.24C77.4676 103.657 68.0177 106.413 68.1463 109.389Z" fill="#FFBE0A"/>
<path d="M110.402 102.514L67.9203 104.042L68.1136 109.416L110.595 107.888L110.402 102.514Z" fill="#FFBE0A"/>
<path d="M67.9496 104.013C68.0599 106.977 77.6445 109.041 89.385 108.625C101.125 108.208 110.539 105.452 110.428 102.476C110.318 99.4994 100.733 97.4478 88.993 97.8642C77.2526 98.2807 67.8516 101.104 67.9496 104.013Z" fill="#FFBE0A"/>
<path opacity="0.4" d="M67.9496 104.013C68.0599 106.977 77.6445 109.041 89.385 108.625C101.125 108.208 110.539 105.452 110.428 102.476C110.318 99.4994 100.733 97.4478 88.993 97.8642C77.2526 98.2807 67.8516 101.104 67.9496 104.013Z" fill="white"/>
<path d="M70.6449 103.7C70.6449 103.89 70.7306 104.074 70.8715 104.202C72.1454 102.359 79.8009 100.724 89.0364 100.399C98.272 100.081 106.111 101.14 107.483 102.886C107.606 102.739 107.673 102.561 107.679 102.371C107.593 100.356 99.2948 98.9906 89.0119 99.3519C78.7291 99.7133 70.5837 101.685 70.651 103.7H70.6449Z" fill="#FFBE0A"/>
<path opacity="0.4" d="M70.6449 103.7C70.6449 103.89 70.7306 104.074 70.8715 104.202C72.1454 102.359 79.8009 100.724 89.0364 100.399C98.272 100.081 106.111 101.14 107.483 102.886C107.606 102.739 107.673 102.561 107.679 102.371C107.593 100.356 99.2948 98.9906 89.0119 99.3519C78.7291 99.7133 70.5837 101.685 70.651 103.7H70.6449Z" fill="#FFBE0A"/>
<path opacity="0.4" d="M70.8108 104.208C72.2072 105.965 79.979 107 89.2574 106.707C98.5359 106.413 106.222 104.753 107.422 102.891C106.026 101.146 98.2848 100.098 88.9757 100.405C79.6667 100.711 72.1398 102.358 70.8108 104.208Z" fill="#FFBE0A"/>
<path d="M59.9506 99.5536C60.0608 102.53 69.6639 104.6 81.3859 104.177C93.108 103.761 102.54 101.005 102.429 98.0286C102.319 95.0522 92.7344 93.0005 80.994 93.4169C69.2535 93.8334 59.8526 96.5894 59.9506 99.5536Z" fill="#FFBE0A"/>
<path d="M102.227 92.6907L59.7448 94.2188L59.938 99.5925L102.42 98.0644L102.227 92.6907Z" fill="#FFBE0A"/>
<path d="M59.756 94.1161C59.8662 97.0925 69.4693 99.1626 81.1914 98.74C92.9134 98.3235 102.345 95.5676 102.235 92.5911C102.125 89.6147 92.5398 87.563 80.8116 87.9794C69.0896 88.3959 59.658 91.207 59.756 94.1161Z" fill="#FFBE0A"/>
<path opacity="0.4" d="M59.756 94.1161C59.8662 97.0925 69.4693 99.1626 81.1914 98.74C92.9134 98.3235 102.345 95.5676 102.235 92.5911C102.125 89.6147 92.5398 87.563 80.8116 87.9794C69.0896 88.3959 59.658 91.207 59.756 94.1161Z" fill="white"/>
<path d="M62.4557 93.8835C62.4741 94.0734 62.5537 94.2449 62.6823 94.3857C63.9684 92.5423 71.6239 90.9071 80.8472 90.5702C90.0705 90.2334 97.9098 91.3113 99.2939 93.069C99.4164 92.922 99.4776 92.7321 99.4776 92.5362C99.4776 90.5212 91.0933 89.1678 80.8105 89.5291C70.5276 89.8904 62.3944 91.8625 62.4618 93.8774L62.4557 93.8835Z" fill="#FFBE0A"/>
<path opacity="0.4" d="M62.4557 93.8835C62.4741 94.0734 62.5537 94.2449 62.6823 94.3857C63.9684 92.5423 71.6239 90.9071 80.8472 90.5702C90.0705 90.2334 97.9098 91.3113 99.2939 93.069C99.4164 92.922 99.4776 92.7321 99.4776 92.5362C99.4776 90.5212 91.0933 89.1678 80.8105 89.5291C70.5276 89.8904 62.3944 91.8625 62.4618 93.8774L62.4557 93.8835Z" fill="#FFBE0A"/>
<path opacity="0.4" d="M62.676 94.3856C64.0724 96.1433 71.8442 97.1783 81.1227 96.8844C90.4011 96.5904 98.0872 94.9307 99.2876 93.0689C97.8912 91.3112 90.15 90.2762 80.841 90.5701C71.5319 90.8641 63.9621 92.5422 62.676 94.3856Z" fill="#FFBE0A"/>
<path d="M54.8679 91.7811C54.9782 94.7576 64.5812 96.8276 76.3033 96.405C88.0254 95.9824 97.4569 93.2326 97.3467 90.2561C97.2364 87.2797 87.6518 85.228 75.9113 85.6445C64.1709 86.0609 54.77 88.8169 54.8679 91.7811Z" fill="#FFBE0A"/>
<path d="M97.1954 84.8553L54.7133 86.376L54.9056 91.7497L97.3878 90.2291L97.1954 84.8553Z" fill="#FFBE0A"/>
<path d="M54.6837 86.4051C54.7817 89.3816 64.3786 91.4516 76.1068 91.0291C87.8289 90.6126 97.2604 87.8566 97.1502 84.8802C97.0399 81.9037 87.4553 79.8521 75.7271 80.2685C64.005 80.6911 54.5735 83.4409 54.6837 86.4051Z" fill="#FFBE0A"/>
<path opacity="0.4" d="M54.6837 86.4051C54.7817 89.3816 64.3786 91.4516 76.1068 91.0291C87.8289 90.6126 97.2604 87.8566 97.1502 84.8802C97.0399 81.9037 87.4553 79.8521 75.7271 80.2685C64.005 80.6911 54.5735 83.4409 54.6837 86.4051Z" fill="white"/>
<path d="M57.3671 86.1111C57.3854 86.3009 57.4651 86.4724 57.5937 86.6133C58.8798 84.7698 66.5353 83.1346 75.7586 82.7978C84.9819 82.4609 92.8211 83.5388 94.2052 85.2965C94.3277 85.1496 94.389 84.9597 94.389 84.7637C94.3216 82.7488 86.0047 81.3953 75.7218 81.7566C65.439 82.118 57.2323 84.09 57.3732 86.105L57.3671 86.1111Z" fill="#FFBE0A"/>
<path opacity="0.4" d="M57.3671 86.1111C57.3854 86.3009 57.4651 86.4724 57.5937 86.6133C58.8798 84.7698 66.5353 83.1346 75.7586 82.7978C84.9819 82.4609 92.8211 83.5388 94.2052 85.2965C94.3277 85.1496 94.389 84.9597 94.389 84.7637C94.3216 82.7488 86.0047 81.3953 75.7218 81.7566C65.439 82.118 57.2323 84.09 57.3732 86.105L57.3671 86.1111Z" fill="#FFBE0A"/>
<path opacity="0.4" d="M57.5933 86.6132C58.9896 88.3709 66.7615 89.4059 76.0399 89.1119C85.3184 88.8179 93.0045 87.1582 94.2048 85.2964C92.8085 83.5387 85.0673 82.5037 75.7582 82.7977C66.4491 83.0916 58.8794 84.7697 57.5933 86.6132Z" fill="#FFBE0A"/>
<path d="M177.576 112.202C177.141 113.947 171.219 113.959 164.341 112.202C157.463 110.444 152.239 107.657 152.674 105.93C153.109 104.197 159.043 104.172 165.921 105.93C172.799 107.688 177.992 110.499 177.576 112.202Z" fill="#FFBE0A"/>
<path d="M153.484 102.817L152.693 105.978L177.591 112.213L178.383 109.053L153.484 102.817Z" fill="#FFBE0A"/>
<path d="M178.371 109.095C177.924 110.84 172.002 110.853 165.124 109.095C158.246 107.337 153.034 104.569 153.469 102.823C153.904 101.078 159.826 101.066 166.704 102.823C173.582 104.581 178.806 107.307 178.371 109.095Z" fill="#FFBE0A"/>
<path opacity="0.4" d="M178.371 109.095C177.924 110.84 172.002 110.853 165.124 109.095C158.246 107.337 153.034 104.569 153.469 102.823C153.904 101.078 159.826 101.066 166.704 102.823C173.582 104.581 178.806 107.307 178.371 109.095Z" fill="white"/>
<path d="M176.803 108.526C176.779 108.643 176.705 108.741 176.607 108.808C176.093 107.553 171.775 105.623 166.337 104.264C160.898 102.91 156.164 102.561 155.16 103.425C155.135 103.315 155.135 103.198 155.16 103.088C155.466 101.9 160.567 102.151 166.575 103.645C172.583 105.14 177.109 107.35 176.803 108.52V108.526Z" fill="#FFBE0A"/>
<path opacity="0.4" d="M176.803 108.526C176.779 108.643 176.705 108.741 176.607 108.808C176.093 107.553 171.775 105.623 166.337 104.264C160.898 102.91 156.164 102.561 155.16 103.425C155.135 103.315 155.135 103.198 155.16 103.088C155.466 101.9 160.567 102.151 166.575 103.645C172.583 105.14 177.109 107.35 176.803 108.52V108.526Z" fill="#FFBE0A"/>
<path opacity="0.4" d="M176.597 108.802C175.549 109.653 170.84 109.316 165.42 107.962C159.999 106.609 155.639 104.668 155.137 103.418C156.184 102.555 160.894 102.885 166.314 104.257C171.734 105.629 176.094 107.54 176.597 108.802Z" fill="#FFBE0A"/>
<path d="M164.947 119.428C164.855 121.217 159.043 122.362 151.951 121.97C144.859 121.578 139.219 119.82 139.323 118.032C139.427 116.244 145.227 115.098 152.319 115.478C159.411 115.858 165.057 117.591 164.947 119.428Z" fill="#FFBE0A"/>
<path d="M139.467 114.808L139.29 118.062L164.919 119.463L165.096 116.21L139.467 114.808Z" fill="#FFBE0A"/>
<path d="M165.119 116.188C165.027 117.988 159.215 119.121 152.135 118.741C145.055 118.362 139.402 116.592 139.488 114.785C139.58 112.985 145.392 111.852 152.484 112.244C159.576 112.642 165.223 114.381 165.113 116.181L165.119 116.188Z" fill="#FFBE0A"/>
<path opacity="0.4" d="M165.119 116.188C165.027 117.988 159.215 119.121 152.135 118.741C145.055 118.362 139.402 116.592 139.488 114.785C139.58 112.985 145.392 111.852 152.484 112.244C159.576 112.642 165.223 114.381 165.113 116.181L165.119 116.188Z" fill="white"/>
<path d="M163.508 116.035C163.508 116.151 163.459 116.268 163.367 116.341C162.62 115.214 157.966 114.13 152.374 113.867C146.783 113.604 142.061 114.124 141.197 115.165C141.13 115.073 141.093 114.963 141.099 114.847C141.216 113.634 146.219 112.899 152.405 113.236C158.59 113.573 163.631 114.749 163.502 116.029L163.508 116.035Z" fill="#FFBE0A"/>
<path opacity="0.4" d="M163.508 116.035C163.508 116.151 163.459 116.268 163.367 116.341C162.62 115.214 157.966 114.13 152.374 113.867C146.783 113.604 142.061 114.124 141.197 115.165C141.13 115.073 141.093 114.963 141.099 114.847C141.216 113.634 146.219 112.899 152.405 113.236C158.59 113.573 163.631 114.749 163.502 116.029L163.508 116.035Z" fill="#FFBE0A"/>
<path opacity="0.4" d="M163.355 116.273C162.497 117.314 157.794 117.878 152.196 117.572C146.598 117.265 141.98 116.2 141.203 115.097C142.06 114.056 146.764 113.493 152.38 113.799C157.996 114.105 162.607 115.146 163.355 116.273Z" fill="#FFBE0A"/>
<path d="M185.635 117.565C185.806 119.348 180.221 121.326 173.141 121.957C166.067 122.587 160.231 121.669 160.072 119.887C159.919 118.104 165.486 116.126 172.565 115.483C179.639 114.834 185.476 115.728 185.635 117.572V117.565Z" fill="#FFBE0A"/>
<path d="M185.319 114.355L159.756 116.673L160.051 119.918L185.613 117.6L185.319 114.355Z" fill="#FFBE0A"/>
<path d="M185.343 114.333C185.514 116.127 179.929 118.093 172.868 118.736C165.806 119.386 159.957 118.449 159.786 116.648C159.614 114.854 165.2 112.888 172.28 112.257C179.353 111.626 185.19 112.532 185.349 114.327L185.343 114.333Z" fill="#FFBE0A"/>
<path opacity="0.4" d="M185.343 114.333C185.514 116.127 179.929 118.093 172.868 118.736C165.806 119.386 159.957 118.449 159.786 116.648C159.614 114.854 165.2 112.888 172.28 112.257C179.353 111.626 185.19 112.532 185.349 114.327L185.343 114.333Z" fill="white"/>
<path d="M183.719 114.411C183.737 114.527 183.7 114.65 183.621 114.736C182.721 113.731 177.956 113.327 172.389 113.878C166.822 114.423 162.216 115.624 161.518 116.781C161.438 116.702 161.389 116.591 161.377 116.481C161.316 115.268 166.16 113.817 172.327 113.254C178.501 112.69 183.651 113.131 183.713 114.411H183.719Z" fill="#FFBE0A"/>
<path opacity="0.4" d="M183.719 114.411C183.737 114.527 183.7 114.65 183.621 114.736C182.721 113.731 177.956 113.327 172.389 113.878C166.822 114.423 162.216 115.624 161.518 116.781C161.438 116.702 161.389 116.591 161.377 116.481C161.316 115.268 166.16 113.817 172.327 113.254C178.501 112.69 183.651 113.131 183.713 114.411H183.719Z" fill="#FFBE0A"/>
<path opacity="0.4" d="M183.607 114.669C182.909 115.82 178.334 117.063 172.749 117.565C167.164 118.074 162.442 117.682 161.517 116.708C162.215 115.557 166.79 114.313 172.388 113.805C177.985 113.297 182.707 113.658 183.607 114.662V114.669Z" fill="#FFBE0A"/>
<path d="M160.035 120.164C170.608 120.164 179.18 111.592 179.18 101.019C179.18 90.4455 170.608 81.874 160.035 81.874C149.462 81.874 140.89 90.4455 140.89 101.019C140.89 111.592 149.462 120.164 160.035 120.164Z" fill="#FFBE0A"/>
<path d="M176.062 115.356C169.026 123.25 156.93 123.948 149.036 116.911C141.141 109.874 140.443 97.7788 147.48 89.8845C154.517 81.9901 166.613 81.292 174.507 88.3289C182.395 95.3658 183.093 107.461 176.056 115.356H176.062Z" fill="#FFBE0A"/>
<path opacity="0.4" d="M176.062 115.356C169.026 123.25 156.93 123.948 149.036 116.911C141.141 109.874 140.443 97.7788 147.48 89.8845C154.517 81.9901 166.613 81.292 174.507 88.3289C182.395 95.3658 183.093 107.461 176.056 115.356H176.062Z" fill="white"/>
<path d="M172.401 112.158C167.134 118.068 158.07 118.595 152.16 113.328C146.25 108.061 145.723 98.9965 150.99 93.0865C156.257 87.1765 165.321 86.6498 171.231 91.9167C171.231 91.9167 171.231 91.9167 171.237 91.9229C177.147 97.1837 177.668 106.236 172.407 112.146C172.407 112.146 172.401 112.152 172.395 112.158H172.401Z" fill="#FFBE0A"/>
<g opacity="0.4">
<path d="M168.053 95.7195H163.074C163.95 96.4115 164.58 97.4098 164.764 98.8001H168.053V100.307H164.795C164.495 103.387 162.051 105.347 158.187 105.47C160.538 107.913 163.104 110.994 165.64 114.099H162.743C160.391 111.263 158.187 108.636 155.351 105.616V103.749H157.011C160.269 103.749 162.02 102.389 162.229 100.307H155.351V98.8001H162.143C161.72 97.0485 160.122 96.1727 157.494 96.1727H155.351V94.2129H168.053V95.7195Z" fill="white"/>
</g>
<g opacity="0.4">
<path d="M80.2588 84.2808H76.5658C77.215 84.4462 77.6866 84.6911 77.8152 85.0219H80.2527V85.3832H77.8397C77.6131 86.1243 75.8064 86.602 72.9402 86.6265C74.6856 87.2144 76.5842 87.9616 78.4644 88.7087H76.3147C74.5692 88.0228 72.9402 87.392 70.8334 86.6632V86.21H72.0644C74.4774 86.21 75.7758 85.8793 75.935 85.3771H70.8334V85.0157H75.8676C75.5553 84.5932 74.3671 84.3788 72.4257 84.3788H70.8395V83.9072H80.2527V84.2686L80.2588 84.2808Z" fill="white"/>
</g>
<defs>
<linearGradient id="paint0_linear_7214_6706" x1="84.7292" y1="-3.7584e-06" x2="188.105" y2="99.002" gradientUnits="userSpaceOnUse">
<stop stop-color="#F3EFFF"/>
<stop offset="1" stop-color="#E9FBFF"/>
</linearGradient>
</defs>
</svg>
