<svg width="40" height="40" viewBox="0 0 40 40" fill="none" xmlns="http://www.w3.org/2000/svg">
<g clip-path="url(#clip0_4647_16594)">
<g clip-path="url(#clip1_4647_16594)">
<path d="M26.3598 16.0195H20.0698C18.5621 16.0195 17.3398 17.2418 17.3398 18.7495V23.0595C17.3398 24.5673 18.5621 25.7895 20.0698 25.7895H26.3598C27.8676 25.7895 29.0898 24.5673 29.0898 23.0595V18.7495C29.0898 17.2418 27.8676 16.0195 26.3598 16.0195Z" fill="#FFCB09"/>
<path d="M30.0693 28.8498H9.9893C8.0793 28.8498 6.5293 27.2998 6.5293 25.3898V10.0498C6.5293 8.13984 8.0793 6.58984 9.9893 6.58984H30.0593C31.9693 6.58984 33.5193 8.13984 33.5193 10.0498V25.3898C33.5193 27.2998 31.9693 28.8498 30.0593 28.8498H30.0693ZM9.9893 7.57984C8.6293 7.57984 7.5293 8.68984 7.5293 10.0398V25.3798C7.5293 26.7398 8.6393 27.8398 9.9893 27.8398H30.0593C31.4193 27.8398 32.5193 26.7298 32.5193 25.3798V10.0398C32.5193 8.67984 31.4093 7.57984 30.0593 7.57984H9.9893Z" fill="#121212"/>
<path d="M14.5101 32.0601H12.0101C11.2201 32.0601 10.5801 31.4201 10.5801 30.6301V28.5801C10.5801 28.3001 10.8001 28.0801 11.0801 28.0801H15.4401C15.7201 28.0801 15.9401 28.3001 15.9401 28.5801V30.6301C15.9401 31.4201 15.3001 32.0601 14.5101 32.0601ZM11.5801 29.0701V30.6201C11.5801 30.8601 11.7701 31.0501 12.0101 31.0501H14.5101C14.7501 31.0501 14.9401 30.8601 14.9401 30.6201V29.0701H11.5801Z" fill="#121212"/>
<path d="M28.9788 32.0601H26.4788C25.6888 32.0601 25.0488 31.4201 25.0488 30.6301V28.5801C25.0488 28.3001 25.2688 28.0801 25.5488 28.0801H29.9088C30.1888 28.0801 30.4088 28.3001 30.4088 28.5801V30.6301C30.4088 31.4201 29.7688 32.0601 28.9788 32.0601ZM26.0488 29.0701V30.6201C26.0488 30.8601 26.2388 31.0501 26.4788 31.0501H28.9788C29.2188 31.0501 29.4088 30.8601 29.4088 30.6201V29.0701H26.0488Z" fill="#121212"/>
<path d="M11.3887 19.8398C11.1087 19.8398 10.8887 19.6198 10.8887 19.3398V16.2998C10.8887 16.0198 11.1087 15.7998 11.3887 15.7998C11.6687 15.7998 11.8887 16.0198 11.8887 16.2998V19.3398C11.8887 19.6198 11.6687 19.8398 11.3887 19.8398Z" fill="#121212"/>
<path d="M27.3287 25.7202H12.9087C11.7987 25.7202 10.8887 24.7402 10.8887 23.5502V22.9402C10.8887 22.6602 11.1087 22.4402 11.3887 22.4402C11.6687 22.4402 11.8887 22.6602 11.8887 22.9402V23.5502C11.8887 24.2002 12.3487 24.7202 12.9087 24.7202H27.3287C27.8887 24.7202 28.3487 24.1902 28.3487 23.5502V12.1202C28.3487 11.4702 27.8887 10.9502 27.3287 10.9502H12.9087C12.3487 10.9502 11.8887 11.4802 11.8887 12.1202V12.7202C11.8887 13.0002 11.6687 13.2202 11.3887 13.2202C11.1087 13.2202 10.8887 13.0002 10.8887 12.7202V12.1202C10.8887 10.9202 11.7987 9.9502 12.9087 9.9502H27.3287C28.4387 9.9502 29.3487 10.9302 29.3487 12.1202V23.5502C29.3487 24.7502 28.4387 25.7202 27.3287 25.7202Z" fill="#121212"/>
<path d="M12.1391 23.4396H10.6591C10.0891 23.4396 9.61914 22.9696 9.61914 22.3996V19.8896C9.61914 19.3196 10.0891 18.8496 10.6591 18.8496H12.1391C12.7091 18.8496 13.1791 19.3196 13.1791 19.8896V22.3996C13.1791 22.9696 12.7091 23.4396 12.1391 23.4396ZM10.6591 19.8496L10.6191 22.3996L12.1391 22.4396C12.1391 22.4396 12.1791 22.4196 12.1791 22.3996V19.8896L10.6591 19.8496Z" fill="#121212"/>
<path d="M12.1391 16.8097H10.6591C10.0891 16.8097 9.61914 16.3397 9.61914 15.7697V13.2597C9.61914 12.6897 10.0891 12.2197 10.6591 12.2197H12.1391C12.7091 12.2197 13.1791 12.6897 13.1791 13.2597V15.7697C13.1791 16.3397 12.7091 16.8097 12.1391 16.8097ZM10.6591 13.2197L10.6191 15.7697L12.1391 15.8097C12.1391 15.8097 12.1791 15.7897 12.1791 15.7697V13.2597L10.6591 13.2197Z" fill="#121212"/>
<path d="M19.7686 22.2204C17.3086 22.2204 15.3086 20.2504 15.3086 17.8304C15.3086 15.4104 17.3086 13.4404 19.7686 13.4404C22.2286 13.4404 24.2286 15.4104 24.2286 17.8304C24.2286 20.2504 22.2286 22.2204 19.7686 22.2204ZM19.7686 14.4404C17.8586 14.4404 16.3086 15.9604 16.3086 17.8304C16.3086 19.7004 17.8586 21.2204 19.7686 21.2204C21.6786 21.2204 23.2286 19.7004 23.2286 17.8304C23.2286 15.9604 21.6786 14.4404 19.7686 14.4404Z" fill="#121212"/>
<path d="M19.7686 18.3203H15.8086C15.5286 18.3203 15.3086 18.1003 15.3086 17.8203C15.3086 17.5403 15.5286 17.3203 15.8086 17.3203H19.7686C20.0486 17.3203 20.2686 17.5403 20.2686 17.8203C20.2686 18.1003 20.0486 18.3203 19.7686 18.3203Z" fill="#121212"/>
<path d="M23.2795 18.3203H19.7695C19.4895 18.3203 19.2695 18.1003 19.2695 17.8203C19.2695 17.5403 19.4895 17.3203 19.7695 17.3203H23.2795C23.5595 17.3203 23.7795 17.5403 23.7795 17.8203C23.7795 18.1003 23.5595 18.3203 23.2795 18.3203Z" fill="#121212"/>
<path d="M19.7695 22.2201C19.4895 22.2201 19.2695 22.0001 19.2695 21.7201V17.8301C19.2695 17.5501 19.4895 17.3301 19.7695 17.3301C20.0495 17.3301 20.2695 17.5501 20.2695 17.8301V21.7201C20.2695 22.0001 20.0495 22.2201 19.7695 22.2201Z" fill="#121212"/>
<path d="M19.7695 18.3207C19.4895 18.3207 19.2695 18.1007 19.2695 17.8207V13.9307C19.2695 13.6507 19.4895 13.4307 19.7695 13.4307C20.0495 13.4307 20.2695 13.6507 20.2695 13.9307V17.8207C20.2695 18.1007 20.0495 18.3207 19.7695 18.3207Z" fill="#121212"/>
</g>
</g>
<defs>
<clipPath id="clip0_4647_16594">
<rect width="40" height="40" fill="white"/>
</clipPath>
<clipPath id="clip1_4647_16594">
<rect width="40" height="40" fill="white"/>
</clipPath>
</defs>
</svg>
