<svg width="40" height="40" viewBox="0 0 40 40" fill="none" xmlns="http://www.w3.org/2000/svg">
<g clip-path="url(#clip0_5558_9895)">
<g clip-path="url(#clip1_5558_9895)">
<path d="M25.55 17.1901H20V12.6201H22.33C23.02 12.6201 23.65 13.0201 23.94 13.6501L25.56 17.1901H25.55Z" fill="#FFCB09"/>
<path d="M13.2998 17.1901H19.9998V12.6201H16.9798C16.2698 12.6201 15.6198 13.0101 15.2698 13.6301L13.2998 17.1901Z" fill="#FFCB09"/>
<path d="M31.3298 27.3002H29.6998C29.4198 27.3002 29.1998 27.0802 29.1998 26.8002C29.1998 26.5202 29.4198 26.3002 29.6998 26.3002H31.3298C32.6198 26.3002 33.6598 25.2502 33.6598 23.9502V21.4302C33.6598 19.3602 31.9798 17.6802 29.9098 17.6802H10.0898C8.01984 17.6802 6.33984 19.3602 6.33984 21.4302V23.9502C6.33984 25.2402 7.38984 26.3002 8.66984 26.3002H10.3398C10.6198 26.3002 10.8398 26.5202 10.8398 26.8002C10.8398 27.0802 10.6198 27.3002 10.3398 27.3002H8.66984C6.82984 27.3002 5.33984 25.8002 5.33984 23.9502V21.4302C5.33984 18.8102 7.46984 16.6802 10.0898 16.6802H29.9198C32.5398 16.6802 34.6698 18.8102 34.6698 21.4302V23.9502C34.6698 25.8002 33.1798 27.3002 31.3398 27.3002H31.3298Z" fill="#121212"/>
<path d="M24.7398 27.3H15.2998C15.0198 27.3 14.7998 27.08 14.7998 26.8C14.7998 26.52 15.0198 26.3 15.2998 26.3H24.7398C25.0198 26.3 25.2398 26.52 25.2398 26.8C25.2398 27.08 25.0198 27.3 24.7398 27.3Z" fill="#121212"/>
<path d="M28.33 17.6901H20C19.72 17.6901 19.5 17.4701 19.5 17.1901V10.3401C19.5 10.0601 19.72 9.84009 20 9.84009H23.49C24.72 9.84009 25.84 10.5601 26.36 11.6801L28.79 16.9801C28.86 17.1301 28.85 17.3101 28.76 17.4601C28.67 17.6001 28.51 17.6901 28.34 17.6901H28.33ZM20.5 16.6901H27.55L25.44 12.0901C25.09 11.3301 24.32 10.8401 23.48 10.8401H20.49V16.6901H20.5Z" fill="#121212"/>
<path d="M19.9996 17.6901H9.94965C9.76965 17.6901 9.60965 17.6001 9.51965 17.4401C9.42965 17.2801 9.42965 17.1001 9.51965 16.9401L12.4696 11.6001C13.0696 10.5101 14.2196 9.83008 15.4696 9.83008H20.0096C20.2896 9.83008 20.5096 10.0501 20.5096 10.3301V17.1801C20.5096 17.4601 20.2896 17.6801 20.0096 17.6801L19.9996 17.6901ZM10.7996 16.6901H19.4996V10.8401H15.4596C14.5796 10.8401 13.7696 11.3201 13.3396 12.0901L10.7996 16.6901Z" fill="#121212"/>
<path d="M20 27.3C19.72 27.3 19.5 27.08 19.5 26.8V16.24C19.5 15.96 19.72 15.74 20 15.74C20.28 15.74 20.5 15.96 20.5 16.24V26.8C20.5 27.08 20.28 27.3 20 27.3Z" fill="#121212"/>
<path d="M13.65 29.27C14.5613 29.27 15.3 28.5312 15.3 27.62C15.3 26.7087 14.5613 25.97 13.65 25.97C12.7387 25.97 12 26.7087 12 27.62C12 28.5312 12.7387 29.27 13.65 29.27Z" fill="#FFCB09"/>
<path d="M12.8198 29.7701C11.1798 29.7701 9.83984 28.4301 9.83984 26.7901C9.83984 25.1501 11.1798 23.8101 12.8198 23.8101C14.4598 23.8101 15.7998 25.1501 15.7998 26.7901C15.7998 28.4301 14.4598 29.7701 12.8198 29.7701ZM12.8198 24.8101C11.7298 24.8101 10.8398 25.7001 10.8398 26.7901C10.8398 27.8801 11.7298 28.7701 12.8198 28.7701C13.9098 28.7701 14.7998 27.8801 14.7998 26.7901C14.7998 25.7001 13.9098 24.8101 12.8198 24.8101Z" fill="#121212"/>
<path d="M28.0499 29.27C28.9612 29.27 29.6999 28.5312 29.6999 27.62C29.6999 26.7087 28.9612 25.97 28.0499 25.97C27.1386 25.97 26.3999 26.7087 26.3999 27.62C26.3999 28.5312 27.1386 29.27 28.0499 29.27Z" fill="#FFCB09"/>
<path d="M27.2197 29.7701C25.5797 29.7701 24.2397 28.4301 24.2397 26.7901C24.2397 25.1501 25.5797 23.8101 27.2197 23.8101C28.8597 23.8101 30.1997 25.1501 30.1997 26.7901C30.1997 28.4301 28.8597 29.7701 27.2197 29.7701ZM27.2197 24.8101C26.1297 24.8101 25.2397 25.7001 25.2397 26.7901C25.2397 27.8801 26.1297 28.7701 27.2197 28.7701C28.3097 28.7701 29.1997 27.8801 29.1997 26.7901C29.1997 25.7001 28.3097 24.8101 27.2197 24.8101Z" fill="#121212"/>
</g>
</g>
<defs>
<clipPath id="clip0_5558_9895">
<rect width="40" height="40" fill="white"/>
</clipPath>
<clipPath id="clip1_5558_9895">
<rect width="40" height="40" fill="white"/>
</clipPath>
</defs>
</svg>
