<?xml version="1.0" encoding="UTF-8"?>
<svg id="Layer_1" data-name="Layer 1" xmlns="http://www.w3.org/2000/svg" viewBox="0 0 32 32">
  <g>
    <g>
      <rect x="2.97" y="19.37" width="2.59" height="10.63" rx=".81" ry=".81" fill="none" stroke="#000" stroke-linecap="round" stroke-linejoin="round"/>
      <rect x="26.44" y="19.37" width="2.59" height="10.63" rx=".81" ry=".81" fill="none" stroke="#000" stroke-linecap="round" stroke-linejoin="round"/>
      <rect x="14.7" y="10.23" width="2.59" height="10.63" rx=".81" ry=".81" transform="translate(.46 31.54) rotate(-90)" fill="none" stroke="#000" stroke-linecap="round" stroke-linejoin="round"/>
      <path d="M12.68,19.6v-2.76h6.64v2.76c0,.98,.79,1.77,1.77,1.77h5.35v6.64h-5.04c-.46-.02-.9,.12-1.28,.37l-1.83,1.23c-.38,.25-.82,.39-1.27,.39h-2.03c-.45,0-.89-.13-1.26-.38l-1.84-1.23c-.37-.25-.81-.38-1.26-.38H5.56v-6.64h5.35c.98,0,1.77-.79,1.77-1.77Z" fill="none" stroke="#000" stroke-linecap="round" stroke-linejoin="round"/>
    </g>
    <path d="M19.87,9.23c0,1.82-1.66,3.25-3.55,2.85-.94-.2-1.73-.9-2.08-1.79-.82-2.09,1-3.74,2.04-4.47,.39-.27,.94-.17,1.16,.26,.23,.44,.42,1.08,.26,1.87-.09,.44,.43,.77,.77,.47,0,0,.01-.01,.02-.02,.43-.39,1.11-.23,1.29,.32,.06,.18,.09,.36,.09,.53Z" fill="#ffcb09"/>
    <path d="M20.34,7.77c0,2.61-2.29,4.69-4.96,4.33-1.65-.22-3.06-1.45-3.57-3.03-1.33-4.15,4.17-7.07,4.17-7.07,0,0,2.08,1.95,.77,4.89,1.58,.51,2.42-1.75,2.42-1.75,.67,.87,1.18,1.81,1.18,2.63Z" fill="none" stroke="#000" stroke-linecap="round" stroke-linejoin="round"/>
  </g>
  <rect width="32" height="32" fill="none" opacity="0"/>
</svg>