<svg width="52" height="16" viewBox="0 0 52 16" fill="none" xmlns="http://www.w3.org/2000/svg">
<g clip-path="url(#clip0_5558_9783)">
<path d="M0.444336 0H52.4443L49.4443 8L52.4443 16H0.444336L3.44434 8L0.444336 0Z" fill="#EF4444"/>
<path d="M21.5144 4.5H22.6044V11.5H21.6944L17.8144 6.43V11.5H16.7244V4.5H17.6344L21.5144 9.57V4.5ZM26.3698 11.63C24.7998 11.63 23.6898 10.58 23.6898 8.99C23.6898 7.49 24.7198 6.34 26.2798 6.34C27.9098 6.34 28.8398 7.47 28.8398 8.89C28.8398 9.04 28.8298 9.16 28.8098 9.31H24.7198C24.7898 10.14 25.3698 10.73 26.3898 10.73C27.1398 10.73 27.6098 10.36 27.8198 9.92L28.7798 10.2C28.4698 10.88 27.6798 11.63 26.3698 11.63ZM24.7198 8.61L27.8098 8.6C27.7498 7.83 27.1998 7.24 26.2798 7.24C25.3798 7.24 24.7898 7.89 24.7198 8.61ZM35.7039 6.47H36.7939L35.0639 11.5H34.0639L32.9139 7.98L31.7639 11.5H30.7739L29.0439 6.47H30.1239L31.3039 10.19L32.4739 6.47H33.3639L34.5239 10.18L35.7039 6.47Z" fill="white"/>
</g>
<defs>
<clipPath id="clip0_5558_9783">
<rect width="52" height="16" fill="white"/>
</clipPath>
</defs>
</svg>
