<svg width="40" height="40" viewBox="0 0 40 40" fill="none" xmlns="http://www.w3.org/2000/svg">
<g clip-path="url(#clip0_5558_9799)">
<g clip-path="url(#clip1_5558_9799)">
<circle cx="15.237" cy="24.9282" r="8.30345" fill="#FFCB09"/>
<path d="M18.9298 33.57C18.4198 33.57 17.7098 33.56 16.7198 33.54C9.52984 33.54 6.58984 30.71 6.58984 23.78V15.84C6.58984 8.90996 9.52984 6.07996 16.7198 6.07996H22.2198C29.4198 6.07996 32.3498 8.90996 32.3498 15.84V30.39C32.3498 30.67 32.1298 30.89 31.8498 30.89C31.5698 30.89 31.3498 30.67 31.3498 30.39V15.84C31.3498 9.52996 28.7898 7.07996 22.2198 7.07996H16.7198C10.1498 7.07996 7.58984 9.53996 7.58984 15.84V23.78C7.58984 30.09 10.1498 32.54 16.7198 32.54C19.3798 32.58 19.7798 32.55 19.8398 32.54L19.9198 33.03L20.3798 33.22C20.2698 33.48 20.2398 33.56 18.9198 33.56L18.9298 33.57Z" fill="black"/>
<path d="M24.1502 16.46H14.8202C13.2602 16.46 11.9902 15.33 11.9902 13.95V12.61C11.9902 11.23 13.2602 10.1 14.8202 10.1H24.1502C25.7102 10.1 26.9802 11.23 26.9802 12.61V13.95C26.9802 15.33 25.7102 16.46 24.1502 16.46ZM14.8202 11.1C13.8102 11.1 12.9902 11.78 12.9902 12.61V13.95C12.9902 14.78 13.8102 15.46 14.8202 15.46H24.1502C25.1602 15.46 25.9802 14.78 25.9802 13.95V12.61C25.9802 11.78 25.1602 11.1 24.1502 11.1H14.8202Z" fill="black"/>
<path d="M13.5798 20.83C13.2998 20.83 13.0698 20.61 13.0698 20.33C13.0698 20.05 13.2798 19.83 13.5598 19.83H13.5798C13.8598 19.83 14.0798 20.05 14.0798 20.33C14.0798 20.61 13.8598 20.83 13.5798 20.83Z" fill="black"/>
<path d="M20.01 20.83C19.73 20.83 19.5 20.61 19.5 20.33C19.5 20.05 19.71 19.83 19.99 19.83H20.01C20.29 19.83 20.51 20.05 20.51 20.33C20.51 20.61 20.29 20.83 20.01 20.83Z" fill="black"/>
<path d="M13.5798 26.67C13.2998 26.67 13.0698 26.45 13.0698 26.17C13.0698 25.89 13.2798 25.67 13.5598 25.67H13.5798C13.8598 25.67 14.0798 25.89 14.0798 26.17C14.0798 26.45 13.8598 26.67 13.5798 26.67Z" fill="black"/>
<path d="M19.6001 33.4099C19.5201 33.4099 19.4401 33.3899 19.3601 33.3499L15.8701 31.4599C15.6601 31.3499 15.5601 31.1099 15.6301 30.8799L16.4601 28.0399C16.5001 27.8999 16.6001 27.7799 16.7401 27.7199C16.8801 27.6599 17.0301 27.6599 17.1601 27.7199L19.5701 28.8899C19.7301 28.9699 19.8401 29.1299 19.8501 29.3099L20.1001 32.8699C20.1101 33.0499 20.0201 33.2299 19.8701 33.3299C19.7901 33.3799 19.6901 33.4099 19.6001 33.4099ZM16.7001 30.7699L19.0301 32.0399L18.8701 29.6799L17.2501 28.8899L16.7001 30.7699Z" fill="black"/>
<path d="M19.5502 33.52C19.4502 33.52 19.3602 33.49 19.2702 33.44C19.1402 33.35 19.0602 33.21 19.0502 33.05L18.8702 29.71L16.7302 28.61C16.5502 28.52 16.4502 28.33 16.4602 28.13C16.4702 27.93 16.6002 27.76 16.7902 27.69L21.3702 26.03C21.5602 25.96 21.7802 26.02 21.9102 26.17L25.8402 30.61C25.9502 30.73 25.9902 30.91 25.9502 31.07C25.9102 31.23 25.7902 31.36 25.6302 31.42L19.7002 33.5C19.6502 33.52 19.5902 33.53 19.5302 33.53L19.5502 33.52ZM18.2102 28.24L19.5802 28.95C19.7402 29.03 19.8402 29.19 19.8502 29.37L20.0102 32.34L24.6102 30.72L21.4002 27.09L18.2102 28.24Z" fill="black"/>
<path d="M19.4603 30.25C19.2603 30.25 19.0703 30.13 18.9903 29.93C18.8903 29.67 19.0203 29.38 19.2803 29.28L22.9403 27.86C23.2003 27.76 23.4903 27.89 23.5903 28.15C23.6903 28.41 23.5603 28.7 23.3003 28.8L19.6403 30.22C19.5803 30.24 19.5203 30.25 19.4603 30.25Z" fill="black"/>
<path d="M28.8101 33.43C28.6801 33.43 28.5601 33.38 28.4701 33.29L21.0701 26.28C20.9401 26.15 20.8801 25.96 20.9301 25.79L21.7001 22.94C21.7401 22.77 21.8701 22.64 22.0401 22.59L24.8301 21.74C25.0001 21.69 25.1901 21.74 25.3201 21.86L32.1201 28.4699C32.1701 28.5199 32.2101 28.5799 32.2401 28.65L33.3301 31.5C33.3801 31.63 33.3701 31.7699 33.3101 31.9C33.2501 32.0199 33.1401 32.12 33.0101 32.16L28.9501 33.41C28.9501 33.41 28.8501 33.43 28.8001 33.43H28.8101ZM21.9701 25.76L28.9401 32.36L32.2101 31.36L31.3501 29.12L24.8401 22.79L22.6001 23.4699L21.9801 25.77L21.9701 25.76Z" fill="black"/>
<path d="M28.6 33.0099C28.6 33.0099 28.57 33.0099 28.56 33.0099C28.28 32.9899 28.08 32.7499 28.1 32.4699L28.32 29.6399L21.79 24.1299C21.58 23.9499 21.55 23.6399 21.73 23.4299C21.91 23.2199 22.23 23.1899 22.43 23.3699L29.15 29.0499C29.27 29.1499 29.34 29.3099 29.33 29.4699L29.09 32.5499C29.07 32.8099 28.85 33.0099 28.59 33.0099H28.6Z" fill="black"/>
<path d="M28.7803 29.88C28.5603 29.88 28.3603 29.74 28.3003 29.52C28.2203 29.25 28.3703 28.98 28.6403 28.9L30.9903 28.21C31.2603 28.13 31.5303 28.28 31.6103 28.55C31.6903 28.82 31.5403 29.09 31.2703 29.17L28.9203 29.86C28.9203 29.86 28.8303 29.88 28.7803 29.88Z" fill="black"/>
</g>
</g>
<defs>
<clipPath id="clip0_5558_9799">
<rect width="40" height="40" fill="white"/>
</clipPath>
<clipPath id="clip1_5558_9799">
<rect width="40" height="40" fill="white"/>
</clipPath>
</defs>
</svg>
