<svg width="40" height="40" viewBox="0 0 40 40" fill="none" xmlns="http://www.w3.org/2000/svg">
<g clip-path="url(#clip0_5558_9901)">
<path d="M31.6299 31.2899C31.3499 31.2899 31.1299 31.0699 31.1299 30.7899C31.1299 30.5099 31.3499 30.2899 31.6299 30.2899C32.8499 30.2899 33.8499 29.0899 33.8499 27.5999V22.4899C33.8499 22.1299 33.7699 21.7899 33.6099 21.4999L31.0799 16.7499C30.8199 16.2399 30.3499 15.9199 29.8599 15.9199H24.6699V30.2899H25.3199C25.5999 30.2899 25.8199 30.5099 25.8199 30.7899C25.8199 31.0699 25.5999 31.2899 25.3199 31.2899H24.1699C23.8899 31.2899 23.6699 31.0699 23.6699 30.7899V15.5599C23.6699 15.2099 23.9399 14.9199 24.2699 14.9199H29.8499C30.7199 14.9199 31.5199 15.4399 31.9499 16.2799L34.4699 21.0199C34.6999 21.4599 34.8299 21.9599 34.8299 22.4799V27.5899C34.8299 29.6199 33.3899 31.2799 31.6099 31.2799L31.6299 31.2899Z" fill="#121212"/>
<path d="M24.1801 31.29H15.2201C14.9401 31.29 14.7201 31.07 14.7201 30.79C14.7201 30.51 14.9401 30.29 15.2201 30.29H23.6801V24.97H6.8501V28.64C6.8501 29.55 7.5601 30.29 8.4301 30.29H9.5101C9.7901 30.29 10.0101 30.51 10.0101 30.79C10.0101 31.07 9.7901 31.29 9.5101 31.29H8.4301C7.0001 31.29 5.8501 30.1 5.8501 28.64V24.47C5.8501 24.19 6.0701 23.97 6.3501 23.97H24.1801C24.4601 23.97 24.6801 24.19 24.6801 24.47V30.79C24.6801 31.07 24.4601 31.29 24.1801 31.29Z" fill="#121212"/>
<path d="M12.7002 32.7599C13.5286 32.7599 14.2002 32.0525 14.2002 31.1799C14.2002 30.3072 13.5286 29.5999 12.7002 29.5999C11.8718 29.5999 11.2002 30.3072 11.2002 31.1799C11.2002 32.0525 11.8718 32.7599 12.7002 32.7599Z" fill="#FFCB09"/>
<path d="M34.3102 22.78H24.1802C23.9002 22.78 23.6802 22.56 23.6802 22.28C23.6802 22 23.9002 21.78 24.1802 21.78H34.3102C34.5902 21.78 34.8102 22 34.8102 22.28C34.8102 22.56 34.5902 22.78 34.3102 22.78Z" fill="#121212"/>
<path d="M12.25 33.8001C10.61 33.8001 9.27002 32.4601 9.27002 30.8201C9.27002 29.1801 10.61 27.8401 12.25 27.8401C13.89 27.8401 15.23 29.1801 15.23 30.8201C15.23 32.4601 13.89 33.8001 12.25 33.8001ZM12.25 28.8401C11.16 28.8401 10.27 29.7301 10.27 30.8201C10.27 31.9101 11.16 32.8001 12.25 32.8001C13.34 32.8001 14.23 31.9101 14.23 30.8201C14.23 29.7301 13.34 28.8401 12.25 28.8401Z" fill="#121212"/>
<path d="M28.73 33.0099C29.5584 33.0099 30.23 32.3025 30.23 31.4299C30.23 30.5572 29.5584 29.8499 28.73 29.8499C27.9016 29.8499 27.23 30.5572 27.23 31.4299C27.23 32.3025 27.9016 33.0099 28.73 33.0099Z" fill="#FFCB09"/>
<path d="M21.4001 22.22L9.3501 19.58V14.33C9.3501 13.16 10.0901 12.21 11.0101 12.21H21.4001V22.21V22.22Z" fill="#FFCB09"/>
<path d="M28.23 33.8001C26.59 33.8001 25.25 32.4601 25.25 30.8201C25.25 29.1801 26.59 27.8401 28.23 27.8401C29.87 27.8401 31.21 29.1801 31.21 30.8201C31.21 32.4601 29.87 33.8001 28.23 33.8001ZM28.23 28.8401C27.14 28.8401 26.25 29.7301 26.25 30.8201C26.25 31.9101 27.14 32.8001 28.23 32.8001C29.32 32.8001 30.21 31.9101 30.21 30.8201C30.21 29.7301 29.32 28.8401 28.23 28.8401Z" fill="#121212"/>
<path d="M21.8601 23.42C21.8601 23.42 21.7901 23.42 21.7501 23.41L6.2401 20.06C6.0101 20.01 5.8501 19.81 5.8501 19.57V9.21997C5.8501 8.93997 6.0701 8.71997 6.3501 8.71997H21.8601C22.1401 8.71997 22.3601 8.93997 22.3601 9.21997V22.92C22.3601 23.07 22.2901 23.21 22.1701 23.31C22.0801 23.38 21.9701 23.42 21.8601 23.42ZM6.8501 19.17L21.3601 22.3V9.71997H6.8501V19.17Z" fill="#121212"/>
<path d="M30.71 31.31C30.44 31.31 30.22 31.1 30.21 30.82C30.21 30.54 30.42 30.31 30.7 30.31L31.54 30.29H31.55C31.82 30.29 32.04 30.5 32.05 30.78C32.05 31.06 31.84 31.29 31.56 31.29L30.72 31.31H30.71Z" fill="#121212"/>
</g>
<defs>
<clipPath id="clip0_5558_9901">
<rect width="40" height="40" fill="white"/>
</clipPath>
</defs>
</svg>
