<?xml version="1.0" encoding="UTF-8"?>
<svg id="Layer_1" data-name="Layer 1" xmlns="http://www.w3.org/2000/svg" viewBox="0 0 32 32">
  <g>
    <path d="M25.23,18.78c0,3.29-2.08,6.41-5.09,7.84-1.14,.54-2.47,.54-3.61,0-3.01-1.44-5.09-4.55-5.09-7.84v-.5c0-2.23,1.69-4.74,3.75-5.59h0c2.02-.83,4.28-.83,6.3,0h0c2.06,.84,3.75,3.36,3.75,5.59v.5h0Z" fill="#ffcb09"/>
    <g>
      <path d="M27.59,14.85c0,6.36-4.62,12.32-10.92,14.06-.43,.12-.9,.12-1.33,0-6.31-1.74-10.92-7.7-10.92-14.06v-5.7c0-1.07,.81-2.28,1.8-2.68l7.24-2.97c1.63-.67,3.46-.67,5.09,0l7.24,2.97c.99,.41,1.8,1.61,1.8,2.68v5.7h0Z" fill="none" stroke="#000" stroke-linecap="round" stroke-linejoin="round"/>
      <polyline points="12.12 16 14.71 18.59 19.88 13.41" fill="none" stroke="#000" stroke-linecap="round" stroke-linejoin="round"/>
    </g>
  </g>
  <rect width="32" height="32" fill="none" opacity="0"/>
</svg>