<?xml version="1.0" encoding="UTF-8"?>
<svg id="Layer_1" data-name="Layer 1" xmlns="http://www.w3.org/2000/svg" viewBox="0 0 32 32">
  <g opacity="0">
    <rect width="32" height="32" fill="none"/>
  </g>
  <path d="M23.83,20.91c-1.78,0-3.37,.77-4.47,1.99-3.36,2.03-14.47-10.82-14.47-10.82,2.8,9.34,10.36,13.51,12.91,14.68v.19c1.95,1.61,1.44,1.05,4.78,1.05s5.06-2.11,5.12-3.1c.22-3.33-.51-4-3.85-4h-.02Z" fill="#ffcb09"/>
  <path d="M22.59,28.59c-1.31,0-2.7-.31-4.14-.92-1.43-.61-2.86-1.43-4.26-2.45-1.41-1.03-2.76-2.18-4.02-3.44-1.26-1.27-2.41-2.62-3.43-4.02-1.03-1.43-1.84-2.85-2.43-4.22-.6-1.44-.91-2.83-.91-4.15,0-.89,.16-1.74,.47-2.52,.32-.81,.83-1.55,1.51-2.2,.86-.84,1.82-1.27,2.86-1.27,.42,0,.83,.09,1.2,.27,.41,.19,.75,.47,1.01,.84l2.8,3.95c.23,.33,.41,.64,.54,.95,.13,.31,.21,.64,.21,.93,0,.38-.11,.76-.33,1.12-.17,.3-.43,.63-.75,.95l-.91,.95s-.05,.06-.05,.14c0,.05,0,.1,.02,.16l.02,.05c.02,.06,.04,.11,.06,.16,.17,.29,.54,.8,1.03,1.38,.59,.69,1.16,1.31,1.73,1.88,.75,.73,1.33,1.27,1.89,1.75,.57,.48,1.07,.84,1.47,1.05-.01-.01,.04,.02,.1,.04,.16,.07,.23,.08,.33-.01l.92-.91c.35-.35,.67-.6,.99-.77,.59-.36,1.28-.42,2.02-.12,.29,.12,.6,.29,.94,.52l4.01,2.85c.39,.27,.66,.59,.83,.98,.16,.41,.24,.77,.24,1.14,0,.52-.12,1.04-.35,1.53-.24,.5-.53,.95-.9,1.36-.65,.71-1.36,1.22-2.16,1.55-.79,.33-1.65,.5-2.55,.5ZM8.25,4.41c-.77,0-1.5,.33-2.17,.99-.58,.55-1.01,1.17-1.28,1.85-.27,.67-.4,1.39-.4,2.15,0,1.19,.28,2.45,.83,3.76,.56,1.31,1.33,2.66,2.32,4.03,.98,1.35,2.1,2.66,3.32,3.89,1.23,1.21,2.54,2.34,3.91,3.33,1.33,.97,2.7,1.76,4.06,2.34,2.17,.93,4.21,1.13,5.91,.42,.67-.27,1.26-.7,1.81-1.3,.3-.33,.55-.7,.74-1.11,.17-.36,.25-.73,.25-1.1,0-.25-.05-.49-.16-.76-.09-.2-.25-.38-.49-.55l-4.01-2.85c-.27-.19-.52-.32-.75-.42-.43-.18-.77-.17-1.15,.06-.25,.13-.5,.33-.78,.6l-.92,.91c-.36,.36-.91,.42-1.32,.27l-.22-.1c-.52-.27-1.07-.67-1.7-1.2-.58-.49-1.18-1.05-1.95-1.8-.59-.6-1.17-1.23-1.78-1.94-.55-.65-.95-1.2-1.19-1.63l-.13-.31c-.05-.19-.07-.32-.07-.45,0-.33,.11-.61,.34-.84l.91-.95c.27-.27,.47-.52,.6-.76,.13-.21,.19-.41,.19-.61,0-.16-.04-.34-.13-.54-.1-.24-.24-.49-.43-.75l-2.81-3.96c-.16-.23-.36-.4-.61-.51-.24-.11-.5-.17-.77-.17Z"/>
</svg>