<svg width="40" height="40" viewBox="0 0 40 40" fill="none" xmlns="http://www.w3.org/2000/svg">
<g clip-path="url(#clip0_2740_3161)">
<g clip-path="url(#clip1_2740_3161)">
<path d="M25.7201 14.9201C25.7201 17.3101 23.7801 19.2401 21.4001 19.2401C19.0201 19.2401 17.0801 17.3001 17.0801 14.9201C17.0801 12.5401 19.0201 10.6001 21.4001 10.6001C23.7801 10.6001 25.7201 12.5401 25.7201 14.9201Z" fill="#FFCB09"/>
<path d="M11.7301 34.6801C11.6001 34.6801 11.4701 34.6301 11.3801 34.5301L5.46006 28.6201C5.37006 28.5301 5.31006 28.4001 5.31006 28.2701C5.31006 28.1401 5.36006 28.0101 5.46006 27.9201L11.3701 22.0101C11.3701 22.0101 11.3901 21.9901 11.4001 21.9801C12.2601 21.2501 13.5201 20.8301 14.8501 20.8301C16.0801 20.8301 17.2401 21.1801 18.1101 21.8301C18.7001 22.2601 19.3501 22.4901 19.9801 22.4901H22.8501C23.9101 22.4901 24.7701 23.3501 24.7701 24.4101V24.5401C24.7701 25.6001 23.9101 26.4601 22.8501 26.4601H19.3601C19.0001 26.4601 18.7001 26.7501 18.7001 27.1201C18.7001 27.4901 18.9901 27.7701 19.3601 27.7701H24.9401L31.0101 23.2201C31.4701 22.8801 32.0301 22.7401 32.6001 22.8401C33.1601 22.9401 33.6601 23.2601 33.9701 23.7301C34.1101 23.9301 34.0701 24.2001 33.9001 24.3701L26.4401 31.4101C25.6901 32.1201 24.7001 32.5101 23.6601 32.5101H15.0101C14.4201 32.5101 13.8601 32.7401 13.4401 33.1601L12.0701 34.5301C11.9701 34.6301 11.8401 34.6801 11.7201 34.6801H11.7301ZM6.52006 28.2701L11.7301 33.4801L12.7501 32.4601C13.3601 31.8501 14.1701 31.5201 15.0301 31.5201H23.6801C24.4601 31.5201 25.2001 31.2301 25.7701 30.6901L32.8601 24.0001C32.7401 23.9201 32.5901 23.8601 32.4401 23.8301C32.1501 23.7801 31.8601 23.8501 31.6201 24.0301L25.4101 28.6801C25.3201 28.7401 25.2201 28.7801 25.1101 28.7801H19.3701C18.4601 28.7801 17.7101 28.0401 17.7101 27.1301C17.7101 26.2201 18.4501 25.4701 19.3701 25.4701H22.8601C23.3701 25.4701 23.7801 25.0601 23.7801 24.5501V24.4201C23.7801 23.9101 23.3701 23.5001 22.8601 23.5001H19.9901C19.1401 23.5001 18.2801 23.2001 17.5201 22.6401C16.8301 22.1301 15.8501 21.8401 14.8501 21.8401C13.7601 21.8401 12.7501 22.1701 12.0601 22.7401L6.52006 28.2801V28.2701Z" fill="#121212"/>
<path d="M19.7 19.78C15.88 19.78 12.77 16.67 12.77 12.85C12.77 9.03004 15.88 5.92004 19.7 5.92004C23.52 5.92004 26.63 9.03004 26.63 12.85C26.63 16.67 23.52 19.78 19.7 19.78ZM19.7 6.92004C16.43 6.92004 13.77 9.58004 13.77 12.85C13.77 16.12 16.43 18.78 19.7 18.78C22.97 18.78 25.63 16.12 25.63 12.85C25.63 9.58004 22.97 6.92004 19.7 6.92004Z" fill="#121212"/>
<path d="M21.9604 10.5H18.1104C17.8304 10.5 17.6104 10.28 17.6104 10C17.6104 9.72 17.8304 9.5 18.1104 9.5H21.9604C22.2404 9.5 22.4604 9.72 22.4604 10C22.4604 10.28 22.2404 10.5 21.9604 10.5Z" fill="#121212"/>
<path d="M21.9602 12.59H17.4302C17.1502 12.59 16.9302 12.37 16.9302 12.09C16.9302 11.81 17.1502 11.59 17.4302 11.59H21.9602C22.2402 11.59 22.4602 11.81 22.4602 12.09C22.4602 12.37 22.2402 12.59 21.9602 12.59Z" fill="#121212"/>
<path d="M20.4703 17.3599C20.3503 17.3599 20.2303 17.3199 20.1403 17.2399L17.1103 14.5699C16.9003 14.3899 16.8803 14.0699 17.0703 13.8599C17.2503 13.6499 17.5703 13.6299 17.7803 13.8199L20.8103 16.4899C21.0203 16.6699 21.0403 16.9899 20.8503 17.1999C20.7503 17.3099 20.6103 17.3699 20.4703 17.3699V17.3599Z" fill="#121212"/>
<path d="M18.1102 14.69H17.4302C17.1502 14.69 16.9302 14.47 16.9302 14.19C16.9302 13.91 17.1502 13.69 17.4302 13.69H18.1102C18.8302 13.69 19.4202 12.97 19.4202 12.09C19.4202 11.21 18.8302 10.49 18.1102 10.49H17.4302C17.1502 10.49 16.9302 10.27 16.9302 9.98999C16.9302 9.70999 17.1502 9.48999 17.4302 9.48999H18.1102C19.3802 9.48999 20.4202 10.66 20.4202 12.09C20.4202 13.52 19.3802 14.69 18.1102 14.69Z" fill="#121212"/>
</g>
</g>
<defs>
<clipPath id="clip0_2740_3161">
<rect width="40" height="40" fill="white"/>
</clipPath>
<clipPath id="clip1_2740_3161">
<rect width="40" height="40" fill="white"/>
</clipPath>
</defs>
</svg>
