<svg width="48" height="48" viewBox="0 0 48 48" fill="none" xmlns="http://www.w3.org/2000/svg">
<rect width="48" height="48" rx="12" fill="url(#paint0_linear_5558_10644)"/>
<g clip-path="url(#clip0_5558_10644)">
<g clip-path="url(#clip1_5558_10644)">
<path d="M34.5099 31.4099L30.1899 36.1099V33.7599C30.1899 32.1899 30.9099 31.4099 32.3499 31.4099H34.5099Z" fill="#FFCB09"/>
<path d="M15.9801 22.6799C17.8401 22.6799 19.3401 21.1099 19.3401 19.1799C19.3401 17.2499 17.8301 15.6799 15.9801 15.6799C14.1301 15.6799 12.6201 17.2499 12.6201 19.1799C12.6201 21.1099 14.1301 22.6799 15.9801 22.6799Z" fill="#FFCB09"/>
<path d="M26.4101 28.9797H21.3501C21.0701 28.9797 20.8501 28.7597 20.8501 28.4797C20.8501 28.1997 21.0701 27.9797 21.3501 27.9797H26.4101C26.6901 27.9797 26.9101 28.1997 26.9101 28.4797C26.9101 28.7597 26.6901 28.9797 26.4101 28.9797Z" fill="#121212"/>
<path d="M29.4499 24.9399H21.3599C21.0799 24.9399 20.8599 24.7199 20.8599 24.4399C20.8599 24.1599 21.0799 23.9399 21.3599 23.9399H29.4499C29.7299 23.9399 29.9499 24.1599 29.9499 24.4399C29.9499 24.7199 29.7299 24.9399 29.4499 24.9399Z" fill="#121212"/>
<path d="M35.5101 30.9998C35.2301 30.9998 35.0101 30.7798 35.0101 30.4998V22.3998C35.0101 17.9298 33.4001 16.9998 30.4301 16.8398H24.3901C24.1101 16.8398 23.8901 16.6198 23.8901 16.3398C23.8901 16.0598 24.1101 15.8398 24.3901 15.8398H30.4601C34.4701 16.0498 36.0201 17.8898 36.0201 22.3998V30.4998C36.0201 30.7798 35.8001 30.9998 35.5201 30.9998H35.5101Z" fill="#121212"/>
<path d="M29.4501 37.0699H23.3801C17.8901 37.0699 16.8101 34.6499 16.8101 30.4799V23.4299C16.8101 23.1499 17.0301 22.9299 17.3101 22.9299C17.5901 22.9299 17.8101 23.1499 17.8101 23.4299V30.4799C17.8101 34.2699 18.6401 36.0699 23.3801 36.0699H29.4501C29.7301 36.0699 29.9501 36.2899 29.9501 36.5699C29.9501 36.8499 29.7301 37.0699 29.4501 37.0699Z" fill="#121212"/>
<path d="M29.4502 37.0698C29.3902 37.0698 29.3202 37.0598 29.2602 37.0298C29.0702 36.9498 28.9502 36.7698 28.9502 36.5698V33.5398C28.9502 31.2298 30.1702 30.0098 32.4802 30.0098H35.5102C35.7102 30.0098 35.8902 30.1298 35.9702 30.3198C36.0502 30.5098 36.0002 30.7198 35.8602 30.8598L29.7902 36.9298C29.6902 37.0298 29.5702 37.0798 29.4402 37.0798L29.4502 37.0698ZM32.4802 30.9998C30.7302 30.9998 29.9502 31.7798 29.9502 33.5298V35.3598L34.3102 30.9998H32.4802Z" fill="#121212"/>
<path d="M17.8402 23.56C14.2902 23.56 11.4102 20.68 11.4102 17.13C11.4102 13.58 14.2902 10.7 17.8402 10.7C21.3902 10.7 24.2702 13.58 24.2702 17.13C24.2702 20.68 21.3902 23.56 17.8402 23.56ZM17.8402 11.7C14.8502 11.7 12.4102 14.14 12.4102 17.13C12.4102 20.12 14.8502 22.56 17.8402 22.56C20.8302 22.56 23.2702 20.12 23.2702 17.13C23.2702 14.14 20.8302 11.7 17.8402 11.7Z" fill="#121212"/>
<path d="M19.9701 15.46H16.3501C16.0701 15.46 15.8501 15.24 15.8501 14.96C15.8501 14.68 16.0701 14.46 16.3501 14.46H19.9701C20.2501 14.46 20.4701 14.68 20.4701 14.96C20.4701 15.24 20.2501 15.46 19.9701 15.46Z" fill="#121212"/>
<path d="M19.97 17.28H15.71C15.43 17.28 15.21 17.06 15.21 16.78C15.21 16.5 15.43 16.28 15.71 16.28H19.97C20.25 16.28 20.47 16.5 20.47 16.78C20.47 17.06 20.25 17.28 19.97 17.28Z" fill="#121212"/>
<path d="M18.5701 21.37C18.4501 21.37 18.3301 21.33 18.2401 21.25L15.3901 18.74C15.1801 18.56 15.1601 18.24 15.3501 18.03C15.5301 17.82 15.8501 17.8 16.0601 17.99L18.9101 20.5C19.1201 20.68 19.1401 21 18.9501 21.21C18.8501 21.32 18.7101 21.38 18.5701 21.38V21.37Z" fill="#121212"/>
<path d="M16.35 18.86H15.71C15.43 18.86 15.21 18.64 15.21 18.36C15.21 18.08 15.43 17.86 15.71 17.86H16.35C17.01 17.86 17.55 17.32 17.55 16.66C17.55 16 17.01 15.46 16.35 15.46H15.71C15.43 15.46 15.21 15.24 15.21 14.96C15.21 14.68 15.43 14.46 15.71 14.46H16.35C17.56 14.46 18.55 15.45 18.55 16.66C18.55 17.87 17.56 18.86 16.35 18.86Z" fill="#121212"/>
</g>
</g>
<defs>
<linearGradient id="paint0_linear_5558_10644" x1="25.3846" y1="1.18033" x2="43.1421" y2="30.7309" gradientUnits="userSpaceOnUse">
<stop stop-color="#F4F8DF"/>
<stop offset="1" stop-color="#DFF7EF"/>
</linearGradient>
<clipPath id="clip0_5558_10644">
<rect width="40" height="40" fill="white" transform="translate(4 4)"/>
</clipPath>
<clipPath id="clip1_5558_10644">
<rect width="40" height="40" fill="white" transform="translate(4 4)"/>
</clipPath>
</defs>
</svg>
