<?xml version="1.0" encoding="utf-8"?>
<!-- Generator: Adobe Illustrator 28.0.0, SVG Export Plug-In . SVG Version: 6.00 Build 0)  -->
<svg version="1.1" id="Layer_1" xmlns="http://www.w3.org/2000/svg" xmlns:xlink="http://www.w3.org/1999/xlink" x="0px" y="0px"
	 viewBox="0 0 24 24" enable-background="new 0 0 24 24" xml:space="preserve">
<g>
	<defs>
		<rect id="SVGID_1_" width="24" height="24"/>
	</defs>
	<clipPath id="SVGID_00000011000159059449345960000010177837966789235589_">
		<use xlink:href="#SVGID_1_"  overflow="visible"/>
	</clipPath>
	<g clip-path="url(#SVGID_00000011000159059449345960000010177837966789235589_)">
		<path fill="#E6E6E6" d="M5.2,6.53c1.59-8.04,12-8.04,13.6,0c1.22,6.14-3.51,11.06-5.72,12.98c-0.64,0.56-1.52,0.56-2.16,0
			C8.71,17.59,3.98,12.67,5.2,6.53L5.2,6.53z"/>
		<path fill="#E6E6E6" d="M12,12.51c1.66,0,3-1.34,3-3c0-1.66-1.34-3-3-3s-3,1.34-3,3C9,11.17,10.34,12.51,12,12.51z"/>
		<path fill="#393939" d="M12,10.51c1.66,0,3-1.34,3-3c0-1.66-1.34-3-3-3s-3,1.34-3,3C9,9.17,10.34,10.51,12,10.51z"/>
		<path fill="none" stroke="#E6E6E6" stroke-width="1.5" stroke-linecap="round" stroke-linejoin="round" d="M17.45,18.72
			c2.88,0.35,4.08,1,4.08,1.76c0,1.12-4.27,2.02-9.53,2.02c-5.26,0-9.53-0.9-9.53-2.02c0-0.72,1.4-1.36,4.08-1.71"/>
	</g>
</g>
</svg>
