<svg width="40" height="40" viewBox="0 0 40 40" fill="none" xmlns="http://www.w3.org/2000/svg">
<g clip-path="url(#clip0_5558_9795)">
<g clip-path="url(#clip1_5558_9795)">
<path d="M15.9699 23.78C17.2599 18.35 25.2399 18.35 26.5399 23.78C27.6199 28.31 23.2599 31.88 21.7499 32.95C21.4499 33.16 21.0599 33.16 20.7599 32.95C19.2599 31.87 14.8999 28.31 15.9699 23.78Z" fill="#FFCB09"/>
<path d="M19.95 21.61C17.48 21.61 15.48 19.6 15.48 17.14C15.48 14.68 17.49 12.67 19.95 12.67C22.41 12.67 24.43 14.68 24.43 17.14C24.43 19.6 22.42 21.61 19.95 21.61ZM19.95 13.66C18.03 13.66 16.48 15.22 16.48 17.13C16.48 19.04 18.04 20.6 19.95 20.6C21.86 20.6 23.43 19.04 23.43 17.13C23.43 15.22 21.87 13.66 19.95 13.66Z" fill="black"/>
<path d="M19.95 34.02C19.5 34.02 19.05 33.88 18.66 33.61C15.78 31.55 6.54998 24.08 8.79998 14.59C10.04 9.36999 14.42 5.98999 19.94 5.98999C25.47 5.98999 29.84 9.35999 31.08 14.58C33.34 24.07 24.11 31.55 21.22 33.61C20.84 33.89 20.38 34.02 19.93 34.02H19.95ZM19.95 6.97999C16.12 6.97999 11.15 9.02999 9.77998 14.81C7.66998 23.69 16.49 30.82 19.25 32.79C19.67 33.09 20.24 33.09 20.66 32.79C23.42 30.82 32.24 23.69 30.13 14.81C28.75 9.02999 23.79 6.97999 19.96 6.97999H19.95Z" fill="black"/>
</g>
</g>
<defs>
<clipPath id="clip0_5558_9795">
<rect width="40" height="40" fill="white"/>
</clipPath>
<clipPath id="clip1_5558_9795">
<rect width="40" height="40" fill="white"/>
</clipPath>
</defs>
</svg>
