<?xml version="1.0" encoding="UTF-8"?>
<svg id="Layer_1" data-name="Layer 1" xmlns="http://www.w3.org/2000/svg" viewBox="0 0 32 32">
  <g>
    <rect x="13.32" y="16.31" width="10.7" height="13.19" rx="2.21" ry="2.21" fill="#ffcb09"/>
    <path d="M20.45,5.99H11.55c-.89,0-1.61-.72-1.61-1.61v-.77c0-.89,.72-1.61,1.61-1.61h8.91c.89,0,1.61,.72,1.61,1.61v.77c0,.89-.72,1.61-1.61,1.61ZM11.55,3c-.33,0-.61,.27-.61,.61v.77c0,.33,.27,.61,.61,.61h8.91c.33,0,.61-.27,.61-.61v-.77c0-.33-.27-.61-.61-.61H11.55Z"/>
    <path d="M20.72,30H11.28c-2.1,0-3.81-1.71-3.81-3.81V13.02c0-2.1,1.71-3.81,3.81-3.81h9.43c2.1,0,3.81,1.71,3.81,3.81v13.17c0,2.1-1.71,3.81-3.81,3.81ZM11.28,10.21c-1.55,0-2.81,1.26-2.81,2.81v13.17c0,1.55,1.26,2.81,2.81,2.81h9.43c1.55,0,2.81-1.26,2.81-2.81V13.02c0-1.55-1.26-2.81-2.81-2.81H11.28Z"/>
    <g>
      <path d="M19.8,10.21c-.28,0-.5-.22-.5-.5v-3.85c0-.28,.22-.5,.5-.5s.5,.22,.5,.5v3.85c0,.28-.22,.5-.5,.5Z"/>
      <path d="M12.21,10.21c-.28,0-.5-.22-.5-.5v-3.85c0-.28,.22-.5,.5-.5s.5,.22,.5,.5v3.85c0,.28-.22,.5-.5,.5Z"/>
      <path d="M16,10.21c-.28,0-.5-.22-.5-.5v-3.85c0-.28,.22-.5,.5-.5s.5,.22,.5,.5v3.85c0,.28-.22,.5-.5,.5Z"/>
    </g>
  </g>
  <rect width="32" height="32" fill="none"/>
</svg>