<?xml version="1.0" encoding="UTF-8"?>
<svg id="Layer_1" data-name="Layer 1" xmlns="http://www.w3.org/2000/svg" viewBox="0 0 32 32">
  <rect width="32" height="32" fill="none" opacity="0"/>
  <g>
    <path d="M24.16,15.97l.06,8.65c.02,3.46-.65,4.33-3.38,4.35l-4.09,.03c-2.72,.02-3.41-.84-3.43-4.3l-.06-8.65c-.02-3.46,.65-4.33,3.38-4.35l4.09-.03c2.72-.02,3.41,.84,3.43,4.3Z" fill="#ffcb09"/>
    <g>
      <path d="M24.13,9.46l.09,12.98c.03,5.19-.98,6.5-5.07,6.52l-6.13,.04c-4.09,.03-5.12-1.26-5.15-6.46l-.09-12.98c-.03-5.19,.98-6.5,5.07-6.52l6.13-.04c4.09-.03,5.12,1.26,5.15,6.46Z" fill="none" stroke="#000" stroke-linecap="round" stroke-linejoin="round"/>
      <path d="M24.08,7.82l-16.25,.03" fill="none" stroke="#000" stroke-linecap="round" stroke-linejoin="round"/>
      <path d="M24.15,24.05l-16.19,.03" fill="none" stroke="#000" stroke-linecap="round" stroke-linejoin="round"/>
      <path d="M18.14,26.53l-4.17-.05" fill="none" stroke="#000" stroke-linecap="round" stroke-linejoin="round"/>
    </g>
    <line x1="11.6" y1="21.23" x2="11.6" y2="17.65" fill="none" stroke="#000" stroke-linecap="round" stroke-linejoin="round"/>
    <line x1="16" y1="21.23" x2="16" y2="14.08" fill="none" stroke="#000" stroke-linecap="round" stroke-linejoin="round"/>
    <line x1="20.4" y1="21.23" x2="20.4" y2="10.51" fill="none" stroke="#000" stroke-linecap="round" stroke-linejoin="round"/>
  </g>
</svg>