<svg width="40" height="40" viewBox="0 0 40 40" fill="none" xmlns="http://www.w3.org/2000/svg">
<g clip-path="url(#clip0_5558_10667)">
<g clip-path="url(#clip1_5558_10667)">
<path d="M20.8499 18.42C22.8999 18.42 24.5499 16.76 24.5499 14.72C24.5499 12.68 22.8899 11.02 20.8499 11.02C18.8099 11.02 17.1499 12.68 17.1499 14.72C17.1499 16.76 18.8099 18.42 20.8499 18.42Z" fill="#FFCB09"/>
<path d="M34.1001 33.9501C34.1001 29.3301 29.5101 25.6001 23.8501 25.6001C18.1901 25.6001 13.6001 29.3401 13.6001 33.9501H34.1001Z" fill="#FFCB09"/>
<path d="M19.6202 19.13C15.9402 19.13 12.9502 16.14 12.9502 12.46C12.9502 8.78004 15.9402 5.79004 19.6202 5.79004C23.3002 5.79004 26.2902 8.78004 26.2902 12.46C26.2902 16.14 23.3002 19.13 19.6202 19.13ZM19.6202 6.80004C16.5002 6.80004 13.9502 9.34004 13.9502 12.47C13.9502 15.6 16.4902 18.14 19.6202 18.14C22.7502 18.14 25.2902 15.6 25.2902 12.47C25.2902 9.34004 22.7502 6.80004 19.6202 6.80004Z" fill="#121212"/>
<path d="M33.9201 34H6.1001C5.8201 34 5.6001 33.78 5.6001 33.5C5.6001 26.85 12.0601 21.45 20.0101 21.45C27.9601 21.45 34.4201 26.86 34.4201 33.5C34.4201 33.78 34.2001 34 33.9201 34ZM6.6201 33H33.4001C33.0801 27.14 27.2001 22.45 20.0101 22.45C12.8201 22.45 6.9401 27.14 6.6201 33Z" fill="#121212"/>
</g>
</g>
<defs>
<clipPath id="clip0_5558_10667">
<rect width="40" height="40" fill="white"/>
</clipPath>
<clipPath id="clip1_5558_10667">
<rect width="40" height="40" fill="white"/>
</clipPath>
</defs>
</svg>
