<svg width="41" height="40" viewBox="0 0 41 40" fill="none" xmlns="http://www.w3.org/2000/svg">
<g clip-path="url(#clip0_5610_791)">
<g clip-path="url(#clip1_5610_791)">
<path d="M23.6123 32.4201C29.3892 32.4201 34.0723 28.2026 34.0723 23.0001C34.0723 17.7976 29.3892 13.5801 23.6123 13.5801C17.8354 13.5801 13.1523 17.7976 13.1523 23.0001C13.1523 28.2026 17.8354 32.4201 23.6123 32.4201Z" fill="#FFCB09"/>
<path d="M20.5817 33.9195C13.1017 33.9195 7.01172 28.6495 7.01172 22.1695V16.9795C7.01172 16.6995 7.23172 16.4795 7.51172 16.4795C7.79172 16.4795 8.01172 16.6995 8.01172 16.9795V22.1695C8.01172 28.0995 13.6517 32.9195 20.5817 32.9195C27.5117 32.9195 33.1517 28.0995 33.1517 22.1695V16.9795C33.1517 16.6995 33.3717 16.4795 33.6517 16.4795C33.9317 16.4795 34.1517 16.6995 34.1517 16.9795V22.1695C34.1517 28.6495 28.0617 33.9195 20.5817 33.9195Z" fill="black"/>
<path d="M20.5817 28.7999C13.1017 28.7999 7.01172 23.6699 7.01172 17.3599C7.01172 11.0499 13.1017 5.91992 20.5817 5.91992C28.0617 5.91992 34.1517 11.0499 34.1517 17.3599C34.1517 23.6699 28.0617 28.7999 20.5817 28.7999ZM20.5817 6.92992C13.6517 6.92992 8.01172 11.6099 8.01172 17.3699C8.01172 23.1299 13.6517 27.8099 20.5817 27.8099C27.5117 27.8099 33.1517 23.1299 33.1517 17.3699C33.1517 11.6099 27.5117 6.92992 20.5817 6.92992Z" fill="black"/>
<path d="M11.8516 31.0498C11.5716 31.0498 11.3516 30.8298 11.3516 30.5498V26.0498C11.3516 25.7698 11.5716 25.5498 11.8516 25.5498C12.1316 25.5498 12.3516 25.7698 12.3516 26.0498V30.5498C12.3516 30.8298 12.1316 31.0498 11.8516 31.0498Z" fill="black"/>
<path d="M16.6914 33.4197C16.4114 33.4197 16.1914 33.1997 16.1914 32.9197V28.4297C16.1914 28.1497 16.4114 27.9297 16.6914 27.9297C16.9714 27.9297 17.1914 28.1497 17.1914 28.4297V32.9197C17.1914 33.1997 16.9714 33.4197 16.6914 33.4197Z" fill="black"/>
<path d="M23.9512 33.55C23.6712 33.55 23.4512 33.33 23.4512 33.05V28.54C23.4512 28.26 23.6712 28.04 23.9512 28.04C24.2312 28.04 24.4512 28.26 24.4512 28.54V33.05C24.4512 33.33 24.2312 33.55 23.9512 33.55Z" fill="black"/>
<path d="M28.9219 31.3396C28.6419 31.3396 28.4219 31.1196 28.4219 30.8396V26.3496C28.4219 26.0696 28.6419 25.8496 28.9219 25.8496C29.2019 25.8496 29.4219 26.0696 29.4219 26.3496V30.8396C29.4219 31.1196 29.2019 31.3396 28.9219 31.3396Z" fill="black"/>
<path d="M32.6719 26.9197C32.3919 26.9197 32.1719 26.6997 32.1719 26.4197V21.9297C32.1719 21.6497 32.3919 21.4297 32.6719 21.4297C32.9519 21.4297 33.1719 21.6497 33.1719 21.9297V26.4197C33.1719 26.6997 32.9519 26.9197 32.6719 26.9197Z" fill="black"/>
<path d="M8.57227 27.1299C8.29227 27.1299 8.07227 26.9099 8.07227 26.6299V22.1299C8.07227 21.8499 8.29227 21.6299 8.57227 21.6299C8.85227 21.6299 9.07227 21.8499 9.07227 22.1299V26.6299C9.07227 26.9099 8.85227 27.1299 8.57227 27.1299Z" fill="black"/>
<path d="M24.5922 12.0293H18.4922C18.2122 12.0293 17.9922 11.8093 17.9922 11.5293C17.9922 11.2493 18.2122 11.0293 18.4922 11.0293H24.5922C24.8722 11.0293 25.0922 11.2493 25.0922 11.5293C25.0922 11.8093 24.8722 12.0293 24.5922 12.0293Z" fill="black"/>
<path d="M24.5923 15.0898H17.4023C17.1223 15.0898 16.9023 14.8698 16.9023 14.5898C16.9023 14.3098 17.1223 14.0898 17.4023 14.0898H24.5923C24.8723 14.0898 25.0923 14.3098 25.0923 14.5898C25.0923 14.8698 24.8723 15.0898 24.5923 15.0898Z" fill="black"/>
<path d="M22.2327 21.9996C22.1127 21.9996 21.9927 21.9596 21.9027 21.8796L17.0927 17.6396C16.8827 17.4596 16.8627 17.1396 17.0527 16.9296C17.2327 16.7196 17.5527 16.6996 17.7627 16.8896L22.5727 21.1296C22.7827 21.3096 22.8027 21.6296 22.6127 21.8396C22.5127 21.9496 22.3727 22.0096 22.2327 22.0096V21.9996Z" fill="black"/>
<path d="M18.4921 17.7595H17.4121C17.1321 17.7595 16.9121 17.5395 16.9121 17.2595C16.9121 16.9795 17.1321 16.7595 17.4121 16.7595H18.4921C19.8021 16.7595 20.8621 15.6995 20.8621 14.3895C20.8621 13.0795 19.8021 12.0195 18.4921 12.0195H17.4121C17.1321 12.0195 16.9121 11.7995 16.9121 11.5195C16.9121 11.2395 17.1321 11.0195 17.4121 11.0195H18.4921C20.3521 11.0195 21.8621 12.5295 21.8621 14.3895C21.8621 16.2495 20.3521 17.7595 18.4921 17.7595Z" fill="black"/>
</g>
</g>
<defs>
<clipPath id="clip0_5610_791">
<rect width="40" height="40" fill="white" transform="translate(0.652344)"/>
</clipPath>
<clipPath id="clip1_5610_791">
<rect width="40" height="40" fill="white" transform="translate(0.652344)"/>
</clipPath>
</defs>
</svg>
