<svg width="40" height="40" viewBox="0 0 40 40" fill="none" xmlns="http://www.w3.org/2000/svg">
<g clip-path="url(#clip0_6025_3554)">
<path d="M33.2301 20.59V18.89C33.2301 15.67 31.5101 13.43 28.8401 13.08C28.5901 13.03 28.3301 13.02 28.0701 13.02H18.7801C18.4901 13.02 18.2101 13.04 17.9401 13.09C15.3101 13.47 13.6201 15.7 13.6201 18.89V27.11C13.6201 30.63 15.6801 32.98 18.7801 32.98H28.0701C31.1701 32.98 33.2301 30.63 33.2301 27.11V20.59Z" fill="#FFCB09"/>
<path d="M30.4999 23.6001C28.5699 23.6001 26.9299 22.1501 26.7799 20.2901C26.6799 19.2201 27.0599 18.1701 27.8199 17.4101C28.4699 16.7301 29.3599 16.3501 30.3199 16.3501H33.4199C34.5399 16.3901 35.4099 17.2901 35.4099 18.4101V21.5501C35.4099 22.6601 34.5399 23.5701 33.4399 23.6101H30.4999V23.6001ZM33.3999 17.3501H30.3199C29.6299 17.3501 28.9999 17.6201 28.5299 18.1101C27.9699 18.6701 27.6999 19.4301 27.7699 20.2101C27.8799 21.5601 29.0799 22.6101 30.4899 22.6101H33.4099C33.9599 22.5901 34.3999 22.1301 34.3999 21.5501V18.4101C34.3999 17.8401 33.9599 17.3701 33.3899 17.3501H33.3999Z" fill="#121212"/>
<path d="M26.13 34.3501H13.34C8.78998 34.3501 5.72998 30.8401 5.72998 25.6101V14.0801C5.72998 9.4001 8.22998 6.0101 12.11 5.4501C12.49 5.3801 12.91 5.3501 13.33 5.3501H26.12C26.59 5.3501 26.95 5.3801 27.28 5.4401C31.18 5.9701 33.73 9.3601 33.73 14.0801V16.4701C33.73 16.7501 33.51 16.9701 33.23 16.9701H30.27C29.64 16.9701 29.05 17.2601 28.61 17.7801C28.08 18.3801 27.81 19.2301 27.88 20.0901C27.99 21.5601 29.11 22.7101 30.45 22.7101H33.24C33.52 22.7101 33.74 22.9301 33.74 23.2101V25.6001C33.74 30.8301 30.68 34.3401 26.14 34.3401L26.13 34.3501ZM13.34 6.3501C12.97 6.3501 12.61 6.3801 12.28 6.4401C8.85998 6.9401 6.73998 9.8701 6.73998 14.0801V25.6101C6.73998 30.3101 9.32998 33.3501 13.35 33.3501H26.14C30.15 33.3501 32.74 30.3101 32.74 25.6101V23.7201H30.45C28.59 23.7201 27.02 22.1601 26.88 20.1801C26.79 19.0501 27.14 17.9401 27.85 17.1301C28.48 16.3801 29.34 15.9701 30.28 15.9701H32.74V14.0801C32.74 9.8201 30.59 6.8901 27.13 6.4201C26.84 6.3601 26.54 6.3401 26.13 6.3401H13.34V6.3501Z" fill="#121212"/>
<path d="M21.8601 15.4001H13.3301C13.0501 15.4001 12.8301 15.1801 12.8301 14.9001C12.8301 14.6201 13.0501 14.4001 13.3301 14.4001H21.8601C22.1401 14.4001 22.3601 14.6201 22.3601 14.9001C22.3601 15.1801 22.1401 15.4001 21.8601 15.4001Z" fill="#121212"/>
</g>
<defs>
<clipPath id="clip0_6025_3554">
<rect width="40" height="40" fill="white"/>
</clipPath>
</defs>
</svg>
