<svg width="40" height="40" viewBox="0 0 40 40" fill="none" xmlns="http://www.w3.org/2000/svg">
<g clip-path="url(#clip0_5558_9898)">
<g clip-path="url(#clip1_5558_9898)">
<path d="M14.0699 31.5001C15.1523 31.5001 16.0299 30.6226 16.0299 29.5401C16.0299 28.4576 15.1523 27.5801 14.0699 27.5801C12.9874 27.5801 12.1099 28.4576 12.1099 29.5401C12.1099 30.6226 12.9874 31.5001 14.0699 31.5001Z" fill="#FFCB09"/>
<path d="M18.6998 15.02H12.3998C11.9304 15.02 11.5498 15.4006 11.5498 15.87V16.93C11.5498 17.3995 11.9304 17.78 12.3998 17.78H18.6998C19.1692 17.78 19.5498 17.3995 19.5498 16.93V15.87C19.5498 15.4006 19.1692 15.02 18.6998 15.02Z" fill="#FFCB09"/>
<path d="M31.0699 31.5001C32.1523 31.5001 33.0299 30.6226 33.0299 29.5401C33.0299 28.4576 32.1523 27.5801 31.0699 27.5801C29.9874 27.5801 29.1099 28.4576 29.1099 29.5401C29.1099 30.6226 29.9874 31.5001 31.0699 31.5001Z" fill="#FFCB09"/>
<path d="M26.1699 28.15H5.18994C4.90994 28.15 4.68994 27.93 4.68994 27.65C4.68994 21.88 9.37994 17.19 15.1499 17.19H17.7699C18.0499 17.19 18.2699 17.41 18.2699 17.69V23.07H21.1899C23.3499 23.07 25.0999 21.32 25.0999 19.16V11.47C25.0999 11.19 25.3199 10.97 25.5999 10.97C25.8799 10.97 26.0999 11.19 26.0999 11.47V19.16C26.0999 21.87 23.8999 24.07 21.1899 24.07H17.7699C17.4899 24.07 17.2699 23.85 17.2699 23.57C17.2699 23.55 17.2699 23.54 17.2699 23.52V18.19H15.1499C10.0999 18.19 5.95994 22.17 5.69994 27.15H26.1699C26.4499 27.15 26.6699 27.37 26.6699 27.65C26.6699 27.93 26.4499 28.15 26.1699 28.15Z" fill="#121212"/>
<path d="M34.2502 28.16H26.1802C25.9002 28.16 25.6802 27.93 25.6802 27.65C25.6802 27.37 25.9002 27.15 26.1802 27.15H33.7202C33.4902 25.07 31.8602 23.4 29.7502 23.18C29.4802 23.15 29.2802 22.91 29.3102 22.63C29.3402 22.36 29.5702 22.15 29.8602 22.19C32.6502 22.48 34.7602 24.83 34.7602 27.66C34.7602 27.79 34.7102 27.92 34.6102 28.01C34.5102 28.1 34.3902 28.16 34.2602 28.16H34.2502Z" fill="#121212"/>
<path d="M29.8199 11.97H25.6099C25.3299 11.97 25.1099 11.75 25.1099 11.47V9.24002C25.1099 8.01002 26.1099 7.02002 27.3299 7.02002H29.8199C30.0999 7.02002 30.3199 7.24002 30.3199 7.52002V11.48C30.3199 11.76 30.0999 11.98 29.8199 11.98V11.97ZM26.1099 10.97H29.3199V8.01002H27.3299C26.6499 8.01002 26.1099 8.56002 26.1099 9.23002V10.96V10.97Z" fill="#121212"/>
<path d="M18.2299 18.1901H10.8099C9.8899 18.1901 9.1499 17.4401 9.1499 16.5301V15.4901C9.1499 14.5701 9.8999 13.8301 10.8099 13.8301H18.2299C19.1499 13.8301 19.8899 14.5801 19.8899 15.4901V16.5301C19.8899 17.4501 19.1399 18.1901 18.2299 18.1901ZM10.8099 14.8201C10.4499 14.8201 10.1499 15.1201 10.1499 15.4801V16.5201C10.1499 16.8801 10.4499 17.1801 10.8099 17.1801H18.2299C18.5899 17.1801 18.8899 16.8801 18.8899 16.5201V15.4801C18.8899 15.1201 18.5899 14.8201 18.2299 14.8201H10.8099Z" fill="#121212"/>
<path d="M12.2799 32.5099C11.2999 32.5099 10.3499 32.1599 9.59992 31.5199C8.68992 30.7399 8.16992 29.5999 8.16992 28.3999C8.16992 28.0999 8.19992 27.8199 8.26992 27.5299C8.32992 27.2599 8.59992 27.0899 8.86992 27.1599C9.13992 27.2199 9.30992 27.4899 9.23992 27.7599C9.18992 27.9699 9.16992 28.1799 9.16992 28.3999C9.16992 29.3099 9.56992 30.1699 10.2499 30.7599C10.9499 31.3599 11.8399 31.6099 12.7699 31.4699C14.0399 31.2699 15.0899 30.2399 15.3299 28.9499C15.3999 28.5599 15.3999 28.1999 15.3199 27.7299C15.2699 27.4599 15.4499 27.1999 15.7299 27.1499C15.9999 27.0999 16.2599 27.2799 16.3099 27.5599C16.3799 27.9499 16.4399 28.4799 16.3199 29.1299C16.0099 30.8299 14.6199 32.1999 12.9299 32.4599C12.7199 32.4899 12.4999 32.5099 12.2899 32.5099H12.2799Z" fill="#121212"/>
<path d="M25.3499 28.15C25.1499 28.15 24.9599 28.03 24.8799 27.83C24.7799 27.57 24.9099 27.28 25.1699 27.18C25.1699 27.18 25.8599 26.88 27.3499 25.51C28.6699 24.29 29.3999 22.89 29.7199 20.95C30.2699 16.08 25.3499 11.93 25.2999 11.89C25.0899 11.71 25.0599 11.4 25.2299 11.19C25.4099 10.98 25.7199 10.95 25.9299 11.12C26.1499 11.3 31.3099 15.66 30.6999 21.09C30.3299 23.29 29.5099 24.87 28.0099 26.25C26.3699 27.76 25.5999 28.09 25.5199 28.12C25.4599 28.14 25.3999 28.15 25.3399 28.15H25.3499Z" fill="#121212"/>
<path d="M25.5998 11.1799H23.0898C22.8098 11.1799 22.5898 10.9599 22.5898 10.6799C22.5898 10.3999 22.8098 10.1799 23.0898 10.1799H25.5998C25.8798 10.1799 26.0998 10.3999 26.0998 10.6799C26.0998 10.9599 25.8798 11.1799 25.5998 11.1799Z" fill="#121212"/>
<path d="M28.9601 32.5099C27.9801 32.5099 27.0301 32.1599 26.2801 31.5199C25.3701 30.7399 24.8501 29.5999 24.8501 28.3999C24.8501 28.0999 24.8801 27.8199 24.9501 27.5299C25.0101 27.2599 25.2901 27.0999 25.5501 27.1599C25.8201 27.2199 25.9901 27.4899 25.9201 27.7599C25.8701 27.9699 25.8501 28.1799 25.8501 28.3999C25.8501 29.3099 26.2501 30.1699 26.9301 30.7599C27.6301 31.3599 28.5201 31.6099 29.4501 31.4699C30.7201 31.2699 31.7701 30.2399 32.0101 28.9499C32.0801 28.5599 32.0801 28.1999 31.9901 27.7299C31.9401 27.4599 32.1201 27.1999 32.4001 27.1499C32.6701 27.0999 32.9301 27.2799 32.9801 27.5599C33.0501 27.9499 33.1101 28.4799 32.9901 29.1299C32.6801 30.8299 31.2901 32.1999 29.6001 32.4599C29.3901 32.4899 29.1701 32.5099 28.9601 32.5099Z" fill="#121212"/>
</g>
</g>
<defs>
<clipPath id="clip0_5558_9898">
<rect width="40" height="40" fill="white"/>
</clipPath>
<clipPath id="clip1_5558_9898">
<rect width="40" height="40" fill="white"/>
</clipPath>
</defs>
</svg>
