<svg width="40" height="40" viewBox="0 0 40 40" fill="none" xmlns="http://www.w3.org/2000/svg">
<g clip-path="url(#clip0_5558_9925)">
<g clip-path="url(#clip1_5558_9925)">
<path d="M27.8199 25.66C27.8199 28.68 25.9099 31.53 23.1499 32.85C22.1099 33.35 20.8799 33.35 19.8399 32.85C17.0799 31.53 15.1699 28.68 15.1699 25.66V25.2C15.1699 23.16 16.7199 20.85 18.6099 20.08C20.4599 19.32 22.5299 19.32 24.3799 20.08C26.2699 20.85 27.8199 23.16 27.8199 25.2V25.66Z" fill="#FFCB09"/>
<path d="M19.79 33.7199C19.5 33.7199 19.21 33.6799 18.92 33.6099C11.6 31.7399 6.29004 25.4199 6.29004 18.5699V12.6699C6.29004 11.3499 7.32004 9.91992 8.63004 9.41992L16.75 6.34992C18.71 5.60992 20.86 5.60992 22.81 6.34992L30.93 9.41992C32.24 9.91992 33.27 11.3399 33.27 12.6699V18.5699C33.27 25.4199 27.96 31.7399 20.64 33.6099C20.36 33.6799 20.06 33.7199 19.77 33.7199H19.79ZM19.79 6.79992C18.88 6.79992 17.96 6.95992 17.11 7.27992L8.99004 10.3499C8.07004 10.6999 7.29004 11.7599 7.29004 12.6599V18.5599C7.29004 24.9599 12.29 30.8799 19.17 32.6299C19.58 32.7299 20.01 32.7299 20.42 32.6299C27.3 30.8799 32.3 24.9599 32.3 18.5599V12.6599C32.3 11.7499 31.52 10.6999 30.6 10.3499L22.48 7.27992C21.63 6.95992 20.72 6.79992 19.8 6.79992H19.79Z" fill="#121212"/>
<path d="M22.3099 24.6898C22.0499 24.6898 21.7099 24.6098 21.2999 24.3698L19.9699 23.5798C19.8799 23.5298 19.6799 23.5298 19.5899 23.5798L18.2599 24.3698C17.3899 24.8898 16.8599 24.6698 16.6199 24.4898C16.3799 24.3098 16.0099 23.8698 16.2399 22.8898L16.5599 21.5198C16.5799 21.4298 16.5299 21.2398 16.4599 21.1798L15.3499 20.0698C14.8999 19.6198 14.7299 19.0998 14.8799 18.6398C15.0299 18.1798 15.4699 17.8598 16.0899 17.7598L17.5099 17.5198C17.5899 17.5098 17.7399 17.3998 17.7699 17.3198L18.5599 15.7498C18.9599 14.9498 19.4999 14.8298 19.7799 14.8298C20.0599 14.8298 20.5999 14.9498 20.9999 15.7498L21.7899 17.3198C21.8299 17.3998 21.9799 17.5098 22.0599 17.5198L23.4799 17.7598C24.1099 17.8598 24.5499 18.1898 24.6999 18.6498C24.8499 19.1098 24.6699 19.6298 24.2199 20.0698L23.1099 21.1798C23.0499 21.2398 22.9899 21.4298 23.0099 21.5298L23.3299 22.8998C23.5599 23.8898 23.1899 24.3298 22.9499 24.4998C22.8199 24.5898 22.6099 24.6998 22.3099 24.6998V24.6898ZM19.7899 22.5398C20.0399 22.5398 20.2899 22.5998 20.4799 22.7198L21.8099 23.5098C22.1499 23.7098 22.3299 23.6998 22.3599 23.6898C22.3799 23.6698 22.4399 23.5098 22.3599 23.1198L22.0399 21.7498C21.9399 21.3198 22.0999 20.7898 22.3999 20.4798L23.5099 19.3698C23.7099 19.1698 23.7599 19.0098 23.7399 18.9598C23.7199 18.8998 23.5899 18.7998 23.3099 18.7598L21.8899 18.5198C21.4899 18.4498 21.0699 18.1398 20.8899 17.7798L20.1099 16.2098C19.9799 15.9498 19.8399 15.8498 19.7899 15.8498C19.7299 15.8498 19.5899 15.9498 19.4599 16.2098L18.6799 17.7798C18.4999 18.1398 18.0899 18.4498 17.6899 18.5198L16.2599 18.7598C15.9799 18.8098 15.8499 18.9098 15.8299 18.9598C15.8099 19.0198 15.8599 19.1698 16.0599 19.3698L17.1699 20.4798C17.4799 20.7898 17.6299 21.3198 17.5399 21.7498L17.2199 23.1198C17.1299 23.4998 17.1999 23.6698 17.2199 23.6898C17.2399 23.6998 17.4199 23.7198 17.7599 23.5198L19.0899 22.7298C19.2899 22.6098 19.5399 22.5598 19.7899 22.5598V22.5398Z" fill="#121212"/>
</g>
</g>
<defs>
<clipPath id="clip0_5558_9925">
<rect width="40" height="40" fill="white"/>
</clipPath>
<clipPath id="clip1_5558_9925">
<rect width="40" height="40" fill="white"/>
</clipPath>
</defs>
</svg>
