<svg width="40" height="40" viewBox="0 0 40 40" fill="none" xmlns="http://www.w3.org/2000/svg">
<g clip-path="url(#clip0_6025_3366)">
<path d="M30.29 24C30.29 28.3 26.8 31.79 22.5 31.79C18.2 31.79 14.71 28.3 14.71 24C14.71 19.7 18.2 16.21 22.5 16.21C26.8 16.21 30.29 19.7 30.29 24Z" fill="#FFCB09"/>
<path d="M19.12 31C13.41 31 8.77002 26.36 8.77002 20.65C8.77002 14.94 13.41 10.3 19.12 10.3C24.83 10.3 29.47 14.94 29.47 20.65C29.47 20.93 29.25 21.15 28.97 21.15C28.69 21.15 28.47 20.93 28.47 20.65C28.47 15.5 24.28 11.3 19.12 11.3C13.96 11.3 9.77002 15.49 9.77002 20.65C9.77002 25.81 13.96 30 19.12 30C19.4 30 19.62 30.22 19.62 30.5C19.62 30.7801 19.4 31 19.12 31Z" fill="black"/>
<path d="M19.1201 20.87C18.8401 20.87 18.6201 20.65 18.6201 20.37V14.74C18.6201 14.46 18.8401 14.24 19.1201 14.24C19.4001 14.24 19.6201 14.46 19.6201 14.74V20.37C19.6201 20.65 19.4001 20.87 19.1201 20.87Z" fill="black"/>
<path d="M22.5 8.48999H15.75C15.47 8.48999 15.25 8.26999 15.25 7.98999C15.25 7.70999 15.47 7.48999 15.75 7.48999H22.5C22.78 7.48999 23 7.70999 23 7.98999C23 8.26999 22.78 8.48999 22.5 8.48999Z" fill="black"/>
<path d="M25.5201 32.5101C22.3701 32.5101 19.8101 29.9501 19.8101 26.8001C19.8101 23.6501 22.3701 21.0901 25.5201 21.0901C28.6701 21.0901 31.2301 23.6501 31.2301 26.8001C31.2301 29.9501 28.6701 32.5101 25.5201 32.5101ZM25.5201 22.0901C22.9201 22.0901 20.8101 24.2001 20.8101 26.8001C20.8101 29.4001 22.9201 31.5101 25.5201 31.5101C28.1201 31.5101 30.2301 29.4001 30.2301 26.8001C30.2301 24.2001 28.1201 22.0901 25.5201 22.0901Z" fill="black"/>
<path d="M27.5401 24.5H24.1201C23.8401 24.5 23.6201 24.28 23.6201 24C23.6201 23.72 23.8401 23.5 24.1201 23.5H27.5401C27.8201 23.5 28.0401 23.72 28.0401 24C28.0401 24.28 27.8201 24.5 27.5401 24.5Z" fill="black"/>
<path d="M27.5403 26.22H23.5103C23.2303 26.22 23.0103 26 23.0103 25.72C23.0103 25.44 23.2303 25.22 23.5103 25.22H27.5403C27.8203 25.22 28.0403 25.44 28.0403 25.72C28.0403 26 27.8203 26.22 27.5403 26.22Z" fill="black"/>
<path d="M26.2101 30.0901C26.0901 30.0901 25.9701 30.0501 25.8801 29.9701L23.1801 27.5901C22.9701 27.4101 22.9501 27.0901 23.1401 26.8801C23.3201 26.6701 23.6401 26.6501 23.8501 26.8401L26.5501 29.2201C26.7601 29.4001 26.7801 29.7201 26.5901 29.9301C26.4901 30.0401 26.3501 30.1001 26.2101 30.1001V30.0901Z" fill="black"/>
<path d="M24.1103 27.72H23.5103C23.2303 27.72 23.0103 27.5 23.0103 27.22C23.0103 26.94 23.2303 26.72 23.5103 26.72H24.1103C24.7203 26.72 25.2203 26.22 25.2203 25.61C25.2203 25 24.7203 24.5 24.1103 24.5H23.5103C23.2303 24.5 23.0103 24.28 23.0103 24C23.0103 23.72 23.2303 23.5 23.5103 23.5H24.1103C25.2703 23.5 26.2203 24.45 26.2203 25.61C26.2203 26.77 25.2703 27.72 24.1103 27.72Z" fill="black"/>
</g>
<defs>
<clipPath id="clip0_6025_3366">
<rect width="40" height="40" fill="white"/>
</clipPath>
</defs>
</svg>
