<svg width="40" height="40" viewBox="0 0 40 40" fill="none" xmlns="http://www.w3.org/2000/svg">
<g clip-path="url(#clip0_5558_9791)">
<g clip-path="url(#clip1_5558_9791)">
<path d="M11.29 12C11.01 12 10.79 11.78 10.79 11.5C10.79 11.22 11.01 11 11.29 11L28.6 10.96C28.88 10.96 29.1 11.18 29.1 11.46C29.1 11.74 28.88 11.96 28.6 11.96L11.29 12Z" fill="black"/>
<path d="M11.4404 29.28C11.1604 29.28 10.9404 29.06 10.9404 28.78C10.9404 28.5 11.1604 28.28 11.4404 28.28L28.6804 28.24C28.9604 28.24 29.1804 28.46 29.1804 28.74C29.1804 29.02 28.9604 29.24 28.6804 29.24L11.4404 29.28Z" fill="black"/>
<path d="M22.2702 31.8799L17.8302 31.8299C17.5502 31.8299 17.3302 31.5999 17.3402 31.3199C17.3502 31.0399 17.5702 30.7999 17.8502 30.8299L22.2902 30.8799C22.5702 30.8799 22.7902 31.1099 22.7802 31.3899C22.7802 31.6599 22.5502 31.8799 22.2802 31.8799H22.2702Z" fill="black"/>
<path d="M16.6102 34.01C11.9002 34.01 10.5902 32.44 10.5502 26.83L10.4602 13.39C10.4402 10.17 10.8302 8.50997 11.8702 7.45997C12.7802 6.53997 14.1802 6.13997 16.5602 6.12997L23.3302 6.08997H23.4702C28.1802 6.08997 29.4902 7.65997 29.5302 13.27V16.66C29.5302 16.94 29.3102 17.16 29.0302 17.16C28.7502 17.16 28.5302 16.94 28.5302 16.66V13.28C28.4902 8.16997 27.5602 7.03997 23.3402 7.09997L16.5702 7.13997C14.4802 7.14997 13.2902 7.45997 12.5902 8.16997C11.7702 8.99997 11.4502 10.51 11.4702 13.39L11.5602 26.83C11.6002 31.95 12.5202 33.01 16.7502 33.02L23.5202 32.98C25.6102 32.97 26.8002 32.66 27.5002 31.95C28.3102 31.12 28.6402 29.61 28.6202 26.73L28.5602 24.77C28.5602 24.49 28.7702 24.26 29.0502 24.26C29.3402 24.29 29.5602 24.47 29.5602 24.75L29.6202 26.72C29.6402 29.95 29.2502 31.61 28.2102 32.66C27.3002 33.58 25.9002 33.98 23.5202 33.99L16.7502 34.03H16.6102V34.01Z" fill="black"/>
<path d="M29.9803 19.68H24.2603L25.5403 16.38H28.7003L29.9803 19.68Z" fill="#FFCB09"/>
<path d="M34.5103 24.8601H28.7803L30.0703 21.5601H33.2303L34.5103 24.8601Z" fill="#FFCB09"/>
<path d="M25.4702 24.8601H19.7402L21.0302 21.5601H24.1902L25.4702 24.8601Z" fill="#FFCB09"/>
<path d="M25.8201 25.2999H16.9601C16.7901 25.2999 16.6401 25.2199 16.5501 25.0799C16.4601 24.9399 16.4401 24.7699 16.5001 24.6199L18.4901 19.5099C18.5601 19.3199 18.7501 19.1899 18.9601 19.1899H23.8501C24.0601 19.1899 24.2401 19.3199 24.3201 19.5099L26.3101 24.6199C26.3701 24.7699 26.3501 24.9499 26.2601 25.0799C26.1701 25.2199 26.0101 25.2999 25.8501 25.2999H25.8201ZM17.6901 24.2999H25.0901L23.4901 20.1899H19.2801L17.6801 24.2999H17.6901Z" fill="black"/>
<path d="M34.6902 25.2999H25.8302C25.6602 25.2999 25.5102 25.2199 25.4202 25.0799C25.3302 24.9399 25.3102 24.7699 25.3702 24.6199L27.3602 19.5099C27.4302 19.3199 27.6202 19.1899 27.8302 19.1899H32.7202C32.9302 19.1899 33.1102 19.3199 33.1902 19.5099L35.1802 24.6199C35.2402 24.7699 35.2202 24.9499 35.1302 25.0799C35.0402 25.2199 34.8802 25.2999 34.7202 25.2999H34.6902ZM26.5602 24.2999H33.9602L32.3602 20.1899H28.1502L26.5502 24.2999H26.5602Z" fill="black"/>
<path d="M30.2601 20.1799H21.4001C21.2301 20.1799 21.0801 20.0999 20.9901 19.9599C20.9001 19.8199 20.8801 19.6499 20.9401 19.4999L22.9301 14.3899C23.0001 14.1999 23.1901 14.0699 23.4001 14.0699H28.2901C28.5001 14.0699 28.6801 14.1999 28.7601 14.3899L30.7501 19.4999C30.8101 19.6499 30.7901 19.8299 30.7001 19.9599C30.6101 20.0999 30.4501 20.1799 30.2901 20.1799H30.2601ZM22.1201 19.1799H29.5201L27.9201 15.0699H23.7101L22.1101 19.1799H22.1201Z" fill="black"/>
</g>
</g>
<defs>
<clipPath id="clip0_5558_9791">
<rect width="40" height="40" fill="white"/>
</clipPath>
<clipPath id="clip1_5558_9791">
<rect width="40" height="40" fill="white"/>
</clipPath>
</defs>
</svg>
