<svg width="41" height="40" viewBox="0 0 41 40" fill="none" xmlns="http://www.w3.org/2000/svg">
<g id="Layer_1" clip-path="url(#clip0_2201_1078)">
<path id="Vector" d="M28.4931 24.9801C28.4931 28.2701 26.4131 31.3901 23.4031 32.8201C22.2631 33.3601 20.9331 33.3601 19.7931 32.8201C16.7831 31.3801 14.7031 28.2701 14.7031 24.9801V24.4801C14.7031 22.2501 16.3931 19.7401 18.4531 18.8901C20.4731 18.0601 22.7331 18.0601 24.7531 18.8901C26.8131 19.7301 28.5031 22.2501 28.5031 24.4801V24.9801H28.4931Z" fill="#FFCB09"/>
<g id="Group">
<path id="Vector_2" d="M20.2891 33.7199C19.9991 33.7199 19.7091 33.6799 19.4191 33.6099C12.0991 31.7399 6.78906 25.4199 6.78906 18.5699V12.6699C6.78906 11.3499 7.81906 9.91992 9.12906 9.41992L17.2491 6.34992C19.2091 5.60992 21.3591 5.60992 23.3091 6.34992L31.4291 9.41992C32.7391 9.91992 33.7691 11.3399 33.7691 12.6699V18.5699C33.7691 25.4199 28.4591 31.7499 21.1391 33.6099C20.8591 33.6799 20.5591 33.7199 20.2691 33.7199H20.2891ZM20.2891 6.79992C19.3791 6.79992 18.4791 6.95992 17.6091 7.28992L9.48906 10.3599C8.56906 10.7099 7.78906 11.7699 7.78906 12.6699V18.5699C7.78906 24.9699 12.7891 30.8899 19.6691 32.6399C20.0691 32.7399 20.5191 32.7399 20.9191 32.6399C27.7991 30.8899 32.7991 24.9699 32.7991 18.5699V12.6699C32.7991 11.7699 32.0191 10.7099 31.0991 10.3599L22.9791 7.28992C22.1191 6.95992 21.2091 6.79992 20.2991 6.79992H20.2891Z" fill="#121212"/>
<path id="Vector_3" d="M18.8394 22.94C18.7194 22.94 18.5993 22.9 18.4994 22.81L15.5994 20.13C15.3994 19.94 15.3793 19.63 15.5693 19.42C15.7593 19.22 16.0693 19.2 16.2793 19.39L18.8394 21.75L24.2993 16.71C24.4993 16.52 24.8194 16.54 25.0093 16.74C25.1993 16.94 25.1793 17.26 24.9793 17.45L19.1794 22.8C19.0794 22.89 18.9594 22.93 18.8394 22.93V22.94Z" fill="#121212"/>
</g>
</g>
<defs>
<clipPath id="clip0_2201_1078">
<rect width="40" height="40" fill="white" transform="translate(0.5)"/>
</clipPath>
</defs>
</svg>
