<svg width="34" height="34" viewBox="0 0 34 34" fill="none" xmlns="http://www.w3.org/2000/svg">
<mask id="mask0_5558_10628" style="mask-type:luminance" maskUnits="userSpaceOnUse" x="0" y="0" width="34" height="34">
<path d="M33.3333 0H0V33.3333H33.3333V0Z" fill="white"/>
</mask>
<g mask="url(#mask0_5558_10628)">
<path d="M24.1665 16.6667C18.4998 15.6667 16.8082 21.25 16.6665 24.1667C17.9998 24.5 22.2248 22.9167 24.1665 22.0833V16.6667Z" fill="#FFCB09"/>
<mask id="mask1_5558_10628" style="mask-type:luminance" maskUnits="userSpaceOnUse" x="0" y="0" width="34" height="34">
<path d="M33.3333 0H0V33.3333H33.3333V0Z" fill="white"/>
</mask>
<g mask="url(#mask1_5558_10628)">
<path d="M16.3248 16.7666C16.2581 16.7666 16.1998 16.75 16.1415 16.725L5.03314 11.275C4.89147 11.2083 4.7998 11.0583 4.7998 10.9C4.7998 10.7416 4.89147 10.5916 5.03314 10.525L16.1415 5.0833C16.2581 5.02497 16.3915 5.02497 16.5081 5.0833L27.6248 10.525C27.7665 10.5916 27.8581 10.7416 27.8581 10.9C27.8581 11.0583 27.7665 11.2083 27.6248 11.275L16.5081 16.725C16.4498 16.75 16.3831 16.7666 16.3248 16.7666ZM6.15814 10.9L16.3248 15.8833L26.4915 10.9L16.3248 5.91663L6.15814 10.9Z" fill="#131313"/>
<path d="M24.4084 17.7916C24.175 17.7916 23.9917 17.6082 23.9917 17.3749V12.3832C23.9917 12.1499 24.175 11.9666 24.4084 11.9666C24.6417 11.9666 24.825 12.1499 24.825 12.3832V17.3749C24.825 17.6082 24.6417 17.7916 24.4084 17.7916Z" fill="#131313"/>
<path d="M27.4416 14.1667C27.2082 14.1667 27.0249 13.9834 27.0249 13.7501V10.9001C27.0249 10.6667 27.2082 10.4834 27.4416 10.4834C27.6749 10.4834 27.8582 10.6667 27.8582 10.9001V13.7501C27.8582 13.9834 27.6749 14.1667 27.4416 14.1667Z" fill="#131313"/>
<path d="M28.1162 17.0999H26.7746C26.5412 17.0999 26.3579 16.9165 26.3579 16.6832V14.0749C26.3579 13.8415 26.5412 13.6582 26.7746 13.6582H28.1162C28.3496 13.6582 28.5329 13.8415 28.5329 14.0749V16.6832C28.5329 16.9165 28.3496 17.0999 28.1162 17.0999ZM27.1912 16.2665H27.6996V14.4915H27.1912V16.2665Z" fill="#131313"/>
</g>
<path d="M8.3999 12.6499V21.0416C8.3999 21.4582 8.60824 21.8416 8.95824 22.0582C10.7082 23.1499 16.4249 26.0249 23.7249 22.6749C24.1499 22.4832 24.4082 22.0499 24.4082 21.5832V13.3082" stroke="#231F20" stroke-width="0.833333" stroke-miterlimit="10" stroke-linecap="round"/>
</g>
</svg>
