<svg width="249" height="160" viewBox="0 0 249 160" fill="none" xmlns="http://www.w3.org/2000/svg">
<rect width="249" height="160" fill="url(#paint0_linear_7214_6470)"/>
<path opacity="0.1" d="M124.5 131.487C169.511 131.487 206 128.694 206 125.248C206 121.802 169.511 119.009 124.5 119.009C79.4888 119.009 43 121.802 43 125.248C43 128.694 79.4888 131.487 124.5 131.487Z" fill="black"/>
<g opacity="0.7">
<path d="M107.665 38.1189C106.987 36.2621 105.98 34.5883 104.671 33.1465C103.357 31.6998 101.807 30.5606 100.064 29.7622C98.2545 28.9335 96.3207 28.5127 94.319 28.5127C92.3181 28.5127 90.3697 28.9335 88.5312 29.7622C86.7599 30.5606 85.1705 31.6998 83.8069 33.1465C82.4479 34.5883 81.3822 36.2621 80.6392 38.1189C79.8729 40.0338 79.4856 42.0562 79.4856 44.1302C79.4856 44.5771 79.5039 45.0207 79.539 45.4603C79.6692 47.0511 80.032 48.5914 80.6229 50.0564C80.9838 50.9512 81.4212 51.7978 81.9309 52.5924C82.4464 53.3946 83.036 54.143 83.6964 54.8331C85.0066 56.2021 86.5315 57.2738 88.231 58.0214C89.9884 58.7945 91.8565 59.186 93.7855 59.186C95.7152 59.186 97.597 58.7945 99.3812 58.0214C101.034 57.3049 102.538 56.2908 103.855 55.0033C103.913 54.947 103.97 54.89 104.027 54.8331C104.138 54.7211 104.248 54.6071 104.355 54.4917C104.441 54.3998 104.526 54.3066 104.609 54.2126C104.695 54.1172 104.779 54.0204 104.862 53.9222C104.922 53.8512 104.981 53.7801 105.04 53.7076C105.169 53.5501 105.295 53.389 105.417 53.2258C105.42 53.2223 105.423 53.2188 105.426 53.2153L105.426 53.2146C105.544 53.0576 105.659 52.8984 105.771 52.7364C106.351 51.9007 106.851 51.0052 107.266 50.0564C108.085 48.1869 108.538 46.194 108.61 44.1302C108.682 42.0562 108.365 40.0338 107.665 38.1189V38.1189ZM93.8806 53.7223C91.0013 53.7223 88.4452 52.3226 86.791 50.1323C86.5662 49.8341 86.3575 49.5224 86.1677 49.1963C86.088 49.061 86.0123 48.9228 85.9393 48.7825C85.7481 48.4156 85.5797 48.0343 85.4355 47.6399C85.038 46.5543 84.8234 45.3707 84.8313 44.1302C84.8657 38.7457 89.077 34.3132 94.2181 34.3132C99.3599 34.3132 103.416 38.7457 103.264 44.1302C103.113 49.4464 98.9045 53.7223 93.8806 53.7223Z" fill="#FFEFAB"/>
<path d="M141.581 66.4706C140.987 64.7367 140.069 63.1745 138.852 61.8285C137.631 60.4781 136.171 59.4141 134.514 58.669C132.794 57.8957 130.94 57.5029 129.006 57.5029C127.073 57.5029 125.177 57.8957 123.373 58.669C121.635 59.4141 120.06 60.4781 118.694 61.8285C117.332 63.1745 116.245 64.7367 115.464 66.4706C114.658 68.259 114.215 70.1488 114.144 72.0858C114.073 74.0142 114.376 75.8773 115.041 77.6248C115.68 79.3038 116.626 80.8057 117.85 82.0901C119.07 83.3704 120.509 84.3733 122.127 85.0726C123.801 85.7958 125.594 86.162 127.46 86.162C129.326 86.162 131.159 85.7958 132.911 85.0726C134.604 84.3733 136.151 83.3704 137.51 82.0901C138.873 80.8057 139.981 79.3038 140.801 77.6248C141.654 75.8773 142.158 74.0142 142.296 72.0858C142.434 70.1488 142.194 68.259 141.581 66.4706V66.4706ZM127.736 81.0514C122.878 81.0514 119.098 77.0546 119.311 72.0858C119.527 67.0559 123.746 62.917 128.714 62.917C133.682 62.917 137.454 67.0559 137.128 72.0858C136.805 77.0546 132.594 81.0514 127.736 81.0514V81.0514Z" fill="#FFEFAB"/>
<path d="M131.616 28.8057L99.33 85.9789H90.5332L122.403 28.8057L131.616 28.8057Z" fill="#FFEFAB"/>
</g>
<path d="M148.309 121.431H120.172V127.65H148.309V121.431Z" fill="#FFCB09"/>
<g opacity="0.1">
<path d="M121.333 121.996C121.507 122.827 121.547 123.654 121.556 124.485C121.552 125.315 121.511 126.142 121.333 126.973C121.154 126.142 121.114 125.315 121.109 124.485C121.118 123.654 121.159 122.827 121.333 121.996Z" fill="black"/>
<path d="M123.427 121.996C123.601 122.827 123.641 123.654 123.65 124.485C123.645 125.315 123.605 126.142 123.427 126.973C123.248 126.142 123.208 125.315 123.203 124.485C123.212 123.654 123.252 122.827 123.427 121.996Z" fill="black"/>
<path d="M124.452 121.996C124.627 122.827 124.667 123.654 124.676 124.485C124.671 125.315 124.631 126.142 124.452 126.973C124.274 126.142 124.233 125.315 124.229 124.485C124.238 123.654 124.278 122.827 124.452 121.996Z" fill="black"/>
<path d="M130.07 121.996C130.244 122.827 130.285 123.654 130.293 124.485C130.289 125.315 130.249 126.142 130.07 126.973C129.891 126.142 129.851 125.315 129.847 124.485C129.856 123.654 129.896 122.827 130.07 121.996Z" fill="black"/>
<path d="M131.596 121.996C131.771 122.827 131.811 123.654 131.82 124.485C131.815 125.315 131.775 126.142 131.596 126.973C131.418 126.142 131.378 125.315 131.373 124.485C131.382 123.654 131.422 122.827 131.596 121.996Z" fill="black"/>
<path d="M137.876 121.996C138.05 122.827 138.09 123.654 138.099 124.485C138.095 125.315 138.055 126.142 137.876 126.973C137.697 126.142 137.657 125.315 137.653 124.485C137.662 123.654 137.702 122.827 137.876 121.996Z" fill="black"/>
<path d="M139.334 121.996C139.509 122.827 139.549 123.654 139.558 124.485C139.553 125.315 139.513 126.142 139.334 126.973C139.156 126.142 139.116 125.315 139.111 124.485C139.12 123.654 139.16 122.827 139.334 121.996Z" fill="black"/>
<path d="M142.009 121.996C142.183 122.827 142.223 123.654 142.232 124.485C142.227 125.315 142.187 126.142 142.009 126.973C141.83 126.142 141.79 125.315 141.785 124.485C141.794 123.654 141.834 122.827 142.009 121.996Z" fill="black"/>
<path d="M136.66 121.996C136.835 122.827 136.875 123.654 136.884 124.485C136.879 125.315 136.839 126.142 136.66 126.973C136.482 126.142 136.441 125.315 136.437 124.485C136.446 123.654 136.486 122.827 136.66 121.996Z" fill="black"/>
<path d="M126.316 121.996C126.49 122.827 126.531 123.654 126.54 124.485C126.535 125.315 126.495 126.142 126.316 126.973C126.137 126.142 126.097 125.315 126.093 124.485C126.102 123.654 126.142 122.827 126.316 121.996Z" fill="black"/>
<path d="M133.595 121.996C133.769 122.827 133.809 123.654 133.818 124.485C133.814 125.315 133.774 126.142 133.595 126.973C133.416 126.142 133.376 125.315 133.372 124.485C133.381 123.654 133.421 122.827 133.595 121.996Z" fill="black"/>
<path d="M134.648 121.996C134.822 122.827 134.863 123.654 134.872 124.485C134.867 125.315 134.827 126.142 134.648 126.973C134.469 126.142 134.429 125.315 134.425 124.485C134.434 123.654 134.474 122.827 134.648 121.996Z" fill="black"/>
<path d="M145.479 121.996C145.654 122.827 145.694 123.654 145.703 124.485C145.698 125.315 145.658 126.142 145.479 126.973C145.301 126.142 145.261 125.315 145.256 124.485C145.265 123.654 145.305 122.827 145.479 121.996Z" fill="black"/>
<path d="M147.046 121.996C147.22 122.827 147.26 123.654 147.269 124.485C147.265 125.315 147.225 126.142 147.046 126.973C146.867 126.142 146.827 125.315 146.823 124.485C146.831 123.654 146.872 122.827 147.046 121.996Z" fill="black"/>
<path d="M143.237 121.996C143.411 122.827 143.451 123.654 143.46 124.485C143.456 125.315 143.416 126.142 143.237 126.973C143.058 126.142 143.018 125.315 143.014 124.485C143.023 123.654 143.063 122.827 143.237 121.996Z" fill="black"/>
<path d="M128.855 121.996C129.029 122.827 129.069 123.654 129.078 124.485C129.074 125.315 129.033 126.142 128.855 126.973C128.676 126.142 128.636 125.315 128.631 124.485C128.64 123.654 128.68 122.827 128.855 121.996Z" fill="black"/>
</g>
<path opacity="0.1" d="M148.304 121.431V122.753L120.172 123.642V121.431H148.304Z" fill="black"/>
<path d="M146.371 115.225H118.234V121.443H146.371V115.225Z" fill="#FFCB09"/>
<g opacity="0.1">
<path d="M119.402 115.794C119.576 116.625 119.616 117.451 119.625 118.282C119.621 119.113 119.581 119.94 119.402 120.771C119.223 119.94 119.183 119.113 119.178 118.282C119.187 117.451 119.228 116.625 119.402 115.794Z" fill="black"/>
<path d="M121.496 115.794C121.67 116.625 121.71 117.451 121.719 118.282C121.715 119.113 121.674 119.94 121.496 120.771C121.317 119.94 121.277 119.113 121.272 118.282C121.281 117.451 121.321 116.625 121.496 115.794Z" fill="black"/>
<path d="M122.521 115.794C122.695 116.625 122.736 117.451 122.745 118.282C122.74 119.113 122.7 119.94 122.521 120.771C122.343 119.94 122.302 119.113 122.298 118.282C122.307 117.451 122.347 116.625 122.521 115.794Z" fill="black"/>
<path d="M128.139 115.794C128.313 116.625 128.354 117.451 128.363 118.282C128.358 119.113 128.318 119.94 128.139 120.771C127.96 119.94 127.92 119.113 127.916 118.282C127.925 117.451 127.965 116.625 128.139 115.794Z" fill="black"/>
<path d="M129.665 115.794C129.84 116.625 129.88 117.451 129.889 118.282C129.884 119.113 129.844 119.94 129.665 120.771C129.487 119.94 129.446 119.113 129.442 118.282C129.451 117.451 129.491 116.625 129.665 115.794Z" fill="black"/>
<path d="M135.945 115.794C136.119 116.625 136.16 117.451 136.168 118.282C136.164 119.113 136.124 119.94 135.945 120.771C135.766 119.94 135.726 119.113 135.722 118.282C135.731 117.451 135.771 116.625 135.945 115.794Z" fill="black"/>
<path d="M137.391 115.794C137.565 116.625 137.605 117.451 137.614 118.282C137.61 119.113 137.569 119.94 137.391 120.771C137.212 119.94 137.172 119.113 137.167 118.282C137.176 117.451 137.216 116.625 137.391 115.794Z" fill="black"/>
<path d="M140.064 115.794C140.238 116.625 140.278 117.451 140.287 118.282C140.283 119.113 140.243 119.94 140.064 120.771C139.885 119.94 139.845 119.113 139.841 118.282C139.85 117.451 139.89 116.625 140.064 115.794Z" fill="black"/>
<path d="M134.729 115.794C134.904 116.625 134.944 117.451 134.953 118.282C134.948 119.113 134.908 119.94 134.729 120.771C134.551 119.94 134.511 119.113 134.506 118.282C134.515 117.451 134.555 116.625 134.729 115.794Z" fill="black"/>
<path d="M124.385 115.794C124.559 116.625 124.599 117.451 124.608 118.282C124.604 119.113 124.564 119.94 124.385 120.771C124.206 119.94 124.166 119.113 124.162 118.282C124.171 117.451 124.211 116.625 124.385 115.794Z" fill="black"/>
<path d="M131.664 115.794C131.838 116.625 131.878 117.451 131.887 118.282C131.883 119.113 131.843 119.94 131.664 120.771C131.485 119.94 131.445 119.113 131.44 118.282C131.449 117.451 131.49 116.625 131.664 115.794Z" fill="black"/>
<path d="M132.704 115.794C132.878 116.625 132.918 117.451 132.927 118.282C132.923 119.113 132.882 119.94 132.704 120.771C132.525 119.94 132.485 119.113 132.48 118.282C132.489 117.451 132.529 116.625 132.704 115.794Z" fill="black"/>
<path d="M143.535 115.794C143.709 116.625 143.749 117.451 143.758 118.282C143.754 119.113 143.713 119.94 143.535 120.771C143.356 119.94 143.316 119.113 143.311 118.282C143.32 117.451 143.36 116.625 143.535 115.794Z" fill="black"/>
<path d="M145.115 115.794C145.289 116.625 145.329 117.451 145.338 118.282C145.334 119.113 145.294 119.94 145.115 120.771C144.936 119.94 144.896 119.113 144.892 118.282C144.901 117.451 144.941 116.625 145.115 115.794Z" fill="black"/>
<path d="M141.307 115.794C141.481 116.625 141.521 117.451 141.53 118.282C141.526 119.113 141.486 119.94 141.307 120.771C141.128 119.94 141.088 119.113 141.083 118.282C141.092 117.451 141.133 116.625 141.307 115.794Z" fill="black"/>
<path d="M126.924 115.794C127.098 116.625 127.138 117.451 127.147 118.282C127.142 119.113 127.102 119.94 126.924 120.771C126.745 119.94 126.705 119.113 126.7 118.282C126.709 117.451 126.749 116.625 126.924 115.794Z" fill="black"/>
</g>
<path opacity="0.1" d="M146.371 115.225V116.547L118.234 117.432V115.225H146.371Z" fill="black"/>
<path d="M150.73 102.846H122.593V109.065H150.73V102.846Z" fill="#FFCB09"/>
<g opacity="0.1">
<path d="M123.757 103.415C123.931 104.246 123.972 105.073 123.98 105.903C123.976 106.734 123.936 107.561 123.757 108.392C123.578 107.561 123.538 106.734 123.534 105.903C123.543 105.073 123.583 104.246 123.757 103.415Z" fill="black"/>
<path d="M125.85 103.415C126.024 104.246 126.065 105.073 126.073 105.903C126.069 106.734 126.029 107.561 125.85 108.392C125.671 107.561 125.631 106.734 125.627 105.903C125.636 105.073 125.676 104.246 125.85 103.415Z" fill="black"/>
<path d="M126.877 103.415C127.051 104.246 127.091 105.073 127.1 105.903C127.096 106.734 127.055 107.561 126.877 108.392C126.698 107.561 126.658 106.734 126.653 105.903C126.662 105.073 126.702 104.246 126.877 103.415Z" fill="black"/>
<path d="M132.494 103.415C132.669 104.246 132.709 105.073 132.718 105.903C132.713 106.734 132.673 107.561 132.494 108.392C132.316 107.561 132.275 106.734 132.271 105.903C132.28 105.073 132.32 104.246 132.494 103.415Z" fill="black"/>
<path d="M134.021 103.415C134.195 104.246 134.235 105.073 134.244 105.903C134.24 106.734 134.199 107.561 134.021 108.392C133.842 107.561 133.802 106.734 133.797 105.903C133.806 105.073 133.847 104.246 134.021 103.415Z" fill="black"/>
<path d="M140.3 103.415C140.475 104.246 140.515 105.073 140.524 105.903C140.519 106.734 140.479 107.561 140.3 108.392C140.122 107.561 140.081 106.734 140.077 105.903C140.086 105.073 140.126 104.246 140.3 103.415Z" fill="black"/>
<path d="M141.746 103.415C141.92 104.246 141.96 105.073 141.969 105.903C141.965 106.734 141.925 107.561 141.746 108.392C141.567 107.561 141.527 106.734 141.522 105.903C141.531 105.073 141.572 104.246 141.746 103.415Z" fill="black"/>
<path d="M144.419 103.415C144.593 104.246 144.634 105.073 144.643 105.903C144.638 106.734 144.598 107.561 144.419 108.392C144.24 107.561 144.2 106.734 144.196 105.903C144.205 105.073 144.245 104.246 144.419 103.415Z" fill="black"/>
<path d="M139.085 103.415C139.259 104.246 139.299 105.073 139.308 105.903C139.304 106.734 139.263 107.561 139.085 108.392C138.906 107.561 138.866 106.734 138.861 105.903C138.87 105.073 138.91 104.246 139.085 103.415Z" fill="black"/>
<path d="M128.74 103.415C128.915 104.246 128.955 105.073 128.964 105.903C128.959 106.734 128.919 107.561 128.74 108.392C128.562 107.561 128.522 106.734 128.517 105.903C128.526 105.073 128.566 104.246 128.74 103.415Z" fill="black"/>
<path d="M136.019 103.415C136.194 104.246 136.234 105.073 136.243 105.903C136.238 106.734 136.198 107.561 136.019 108.392C135.841 107.561 135.8 106.734 135.796 105.903C135.805 105.073 135.845 104.246 136.019 103.415Z" fill="black"/>
<path d="M137.059 103.415C137.233 104.246 137.273 105.073 137.282 105.903C137.278 106.734 137.238 107.561 137.059 108.392C136.88 107.561 136.84 106.734 136.835 105.903C136.844 105.073 136.885 104.246 137.059 103.415Z" fill="black"/>
<path d="M147.891 103.415C148.065 104.246 148.105 105.073 148.114 105.903C148.11 106.734 148.069 107.561 147.891 108.392C147.712 107.561 147.672 106.734 147.667 105.903C147.676 105.073 147.716 104.246 147.891 103.415Z" fill="black"/>
<path d="M149.47 103.415C149.644 104.246 149.685 105.073 149.694 105.903C149.689 106.734 149.649 107.561 149.47 108.392C149.292 107.561 149.251 106.734 149.247 105.903C149.256 105.073 149.296 104.246 149.47 103.415Z" fill="black"/>
<path d="M145.662 103.415C145.836 104.246 145.877 105.073 145.885 105.903C145.881 106.734 145.841 107.561 145.662 108.392C145.483 107.561 145.443 106.734 145.439 105.903C145.448 105.073 145.488 104.246 145.662 103.415Z" fill="black"/>
<path d="M131.279 103.415C131.453 104.246 131.493 105.073 131.502 105.903C131.498 106.734 131.458 107.561 131.279 108.392C131.1 107.561 131.06 106.734 131.056 105.903C131.065 105.073 131.105 104.246 131.279 103.415Z" fill="black"/>
</g>
<path opacity="0.1" d="M150.73 102.846V104.168L122.593 105.053V102.846H150.73Z" fill="black"/>
<path d="M150.007 96.625H121.871V102.844H150.007V96.625Z" fill="#FFCB09"/>
<g opacity="0.1">
<path d="M148.741 102.176C148.567 101.345 148.527 100.519 148.518 99.6877C148.522 98.8567 148.562 98.0302 148.741 97.1992C148.92 98.0302 148.96 98.8567 148.965 99.6877C148.956 100.519 148.915 101.345 148.741 102.176Z" fill="black"/>
<path d="M146.647 102.176C146.473 101.345 146.433 100.519 146.424 99.6877C146.429 98.8567 146.469 98.0302 146.647 97.1992C146.826 98.0302 146.866 98.8567 146.871 99.6877C146.862 100.519 146.822 101.345 146.647 102.176Z" fill="black"/>
<path d="M145.621 102.176C145.447 101.345 145.407 100.519 145.398 99.6877C145.402 98.8567 145.443 98.0302 145.621 97.1992C145.8 98.0302 145.84 98.8567 145.845 99.6877C145.836 100.519 145.796 101.345 145.621 102.176Z" fill="black"/>
<path d="M140.003 102.176C139.829 101.345 139.788 100.519 139.78 99.6877C139.784 98.8567 139.824 98.0302 140.003 97.1992C140.182 98.0302 140.222 98.8567 140.226 99.6877C140.217 100.519 140.177 101.345 140.003 102.176Z" fill="black"/>
<path d="M138.477 102.176C138.303 101.345 138.263 100.519 138.254 99.6877C138.258 98.8567 138.299 98.0302 138.477 97.1992C138.656 98.0302 138.696 98.8567 138.701 99.6877C138.692 100.519 138.652 101.345 138.477 102.176Z" fill="black"/>
<path d="M132.197 102.176C132.023 101.345 131.983 100.519 131.974 99.6877C131.978 98.8567 132.018 98.0302 132.197 97.1992C132.376 98.0302 132.416 98.8567 132.42 99.6877C132.411 100.519 132.371 101.345 132.197 102.176Z" fill="black"/>
<path d="M130.739 102.176C130.565 101.345 130.525 100.519 130.516 99.6877C130.52 98.8567 130.561 98.0302 130.739 97.1992C130.918 98.0302 130.958 98.8567 130.963 99.6877C130.954 100.519 130.913 101.345 130.739 102.176Z" fill="black"/>
<path d="M128.078 102.176C127.904 101.345 127.864 100.519 127.855 99.6877C127.859 98.8567 127.899 98.0302 128.078 97.1992C128.257 98.0302 128.297 98.8567 128.301 99.6877C128.293 100.519 128.252 101.345 128.078 102.176Z" fill="black"/>
<path d="M133.4 102.176C133.225 101.345 133.185 100.519 133.176 99.6877C133.181 98.8567 133.221 98.0302 133.4 97.1992C133.578 98.0302 133.619 98.8567 133.623 99.6877C133.614 100.519 133.574 101.345 133.4 102.176Z" fill="black"/>
<path d="M143.758 102.176C143.584 101.345 143.543 100.519 143.534 99.6877C143.539 98.8567 143.579 98.0302 143.758 97.1992C143.937 98.0302 143.977 98.8567 143.981 99.6877C143.972 100.519 143.932 101.345 143.758 102.176Z" fill="black"/>
<path d="M136.478 102.176C136.304 101.345 136.264 100.519 136.255 99.6877C136.259 98.8567 136.299 98.0302 136.478 97.1992C136.657 98.0302 136.697 98.8567 136.701 99.6877C136.692 100.519 136.652 101.345 136.478 102.176Z" fill="black"/>
<path d="M135.425 102.176C135.251 101.345 135.21 100.519 135.201 99.6877C135.206 98.8567 135.246 98.0302 135.425 97.1992C135.603 98.0302 135.644 98.8567 135.648 99.6877C135.639 100.519 135.599 101.345 135.425 102.176Z" fill="black"/>
<path d="M124.594 102.176C124.42 101.345 124.38 100.519 124.371 99.6877C124.376 98.8567 124.416 98.0302 124.594 97.1992C124.773 98.0302 124.813 98.8567 124.818 99.6877C124.809 100.519 124.769 101.345 124.594 102.176Z" fill="black"/>
<path d="M123.028 102.176C122.853 101.345 122.813 100.519 122.804 99.6877C122.809 98.8567 122.849 98.0302 123.028 97.1992C123.206 98.0302 123.246 98.8567 123.251 99.6877C123.242 100.519 123.202 101.345 123.028 102.176Z" fill="black"/>
<path d="M126.836 102.176C126.662 101.345 126.621 100.519 126.613 99.6877C126.617 98.8567 126.657 98.0302 126.836 97.1992C127.015 98.0302 127.055 98.8567 127.059 99.6877C127.05 100.519 127.01 101.345 126.836 102.176Z" fill="black"/>
<path d="M141.218 102.176C141.044 101.345 141.004 100.519 140.995 99.6877C141 98.8567 141.04 98.0302 141.218 97.1992C141.397 98.0302 141.437 98.8567 141.442 99.6877C141.433 100.519 141.393 101.345 141.218 102.176Z" fill="black"/>
</g>
<path opacity="0.1" d="M150.007 96.625V97.9474L121.871 98.8365V96.625H150.007Z" fill="black"/>
<path d="M148.309 90.4043H120.172V96.6232H148.309V90.4043Z" fill="#FFCB09"/>
<g opacity="0.1">
<path d="M121.346 90.9707C121.52 91.8017 121.56 92.6282 121.569 93.4591C121.565 94.2901 121.525 95.1166 121.346 95.9476C121.167 95.1166 121.127 94.2901 121.123 93.4591C121.131 92.6282 121.172 91.8017 121.346 90.9707Z" fill="black"/>
<path d="M123.44 90.9707C123.614 91.8017 123.654 92.6282 123.663 93.4591C123.659 94.2901 123.619 95.1166 123.44 95.9476C123.261 95.1166 123.221 94.2901 123.217 93.4591C123.225 92.6282 123.266 91.8017 123.44 90.9707Z" fill="black"/>
<path d="M124.466 90.9707C124.64 91.8017 124.68 92.6282 124.689 93.4591C124.685 94.2901 124.645 95.1166 124.466 95.9476C124.287 95.1166 124.247 94.2901 124.242 93.4591C124.251 92.6282 124.292 91.8017 124.466 90.9707Z" fill="black"/>
<path d="M130.083 90.9707C130.258 91.8017 130.298 92.6282 130.307 93.4591C130.302 94.2901 130.262 95.1166 130.083 95.9476C129.905 95.1166 129.865 94.2901 129.86 93.4591C129.869 92.6282 129.909 91.8017 130.083 90.9707Z" fill="black"/>
<path d="M131.61 90.9707C131.784 91.8017 131.824 92.6282 131.833 93.4591C131.829 94.2901 131.789 95.1166 131.61 95.9476C131.431 95.1166 131.391 94.2901 131.386 93.4591C131.395 92.6282 131.436 91.8017 131.61 90.9707Z" fill="black"/>
<path d="M137.89 90.9707C138.064 91.8017 138.104 92.6282 138.113 93.4591C138.109 94.2901 138.068 95.1166 137.89 95.9476C137.711 95.1166 137.671 94.2901 137.666 93.4591C137.675 92.6282 137.715 91.8017 137.89 90.9707Z" fill="black"/>
<path d="M139.335 90.9707C139.509 91.8017 139.549 92.6282 139.558 93.4591C139.554 94.2901 139.514 95.1166 139.335 95.9476C139.156 95.1166 139.116 94.2901 139.112 93.4591C139.121 92.6282 139.161 91.8017 139.335 90.9707Z" fill="black"/>
<path d="M142.009 90.9707C142.183 91.8017 142.223 92.6282 142.232 93.4591C142.227 94.2901 142.187 95.1166 142.009 95.9476C141.83 95.1166 141.79 94.2901 141.785 93.4591C141.794 92.6282 141.834 91.8017 142.009 90.9707Z" fill="black"/>
<path d="M136.674 90.9707C136.848 91.8017 136.889 92.6282 136.897 93.4591C136.893 94.2901 136.853 95.1166 136.674 95.9476C136.495 95.1166 136.455 94.2901 136.451 93.4591C136.46 92.6282 136.5 91.8017 136.674 90.9707Z" fill="black"/>
<path d="M126.316 90.9707C126.49 91.8017 126.53 92.6282 126.539 93.4591C126.535 94.2901 126.495 95.1166 126.316 95.9476C126.137 95.1166 126.097 94.2901 126.093 93.4591C126.101 92.6282 126.142 91.8017 126.316 90.9707Z" fill="black"/>
<path d="M133.608 90.9707C133.783 91.8017 133.823 92.6282 133.832 93.4591C133.827 94.2901 133.787 95.1166 133.608 95.9476C133.43 95.1166 133.389 94.2901 133.385 93.4591C133.394 92.6282 133.434 91.8017 133.608 90.9707Z" fill="black"/>
<path d="M134.648 90.9707C134.822 91.8017 134.863 92.6282 134.872 93.4591C134.867 94.2901 134.827 95.1166 134.648 95.9476C134.469 95.1166 134.429 94.2901 134.425 93.4591C134.434 92.6282 134.474 91.8017 134.648 90.9707Z" fill="black"/>
<path d="M145.48 90.9707C145.654 91.8017 145.694 92.6282 145.703 93.4591C145.699 94.2901 145.659 95.1166 145.48 95.9476C145.301 95.1166 145.261 94.2901 145.257 93.4591C145.266 92.6282 145.306 91.8017 145.48 90.9707Z" fill="black"/>
<path d="M147.06 90.9707C147.234 91.8017 147.274 92.6282 147.283 93.4591C147.278 94.2901 147.238 95.1166 147.06 95.9476C146.881 95.1166 146.841 94.2901 146.836 93.4591C146.845 92.6282 146.885 91.8017 147.06 90.9707Z" fill="black"/>
<path d="M143.251 90.9707C143.426 91.8017 143.466 92.6282 143.475 93.4591C143.47 94.2901 143.43 95.1166 143.251 95.9476C143.073 95.1166 143.033 94.2901 143.028 93.4591C143.037 92.6282 143.077 91.8017 143.251 90.9707Z" fill="black"/>
<path d="M128.868 90.9707C129.042 91.8017 129.082 92.6282 129.091 93.4591C129.087 94.2901 129.047 95.1166 128.868 95.9476C128.689 95.1166 128.649 94.2901 128.645 93.4591C128.653 92.6282 128.694 91.8017 128.868 90.9707Z" fill="black"/>
</g>
<path opacity="0.1" d="M148.309 90.4043V91.7267L120.172 92.6113V90.4043H148.309Z" fill="black"/>
<path d="M148.309 109.059H120.172V115.277H148.309V109.059Z" fill="#FFCB09"/>
<g opacity="0.1">
<path d="M147.046 114.608C146.872 113.777 146.831 112.95 146.823 112.119C146.827 111.288 146.867 110.462 147.046 109.631C147.225 110.462 147.265 111.288 147.269 112.119C147.26 112.95 147.22 113.777 147.046 114.608Z" fill="black"/>
<path d="M144.952 114.608C144.778 113.777 144.738 112.95 144.729 112.119C144.733 111.288 144.774 110.462 144.952 109.631C145.131 110.462 145.171 111.288 145.176 112.119C145.167 112.95 145.127 113.777 144.952 114.608Z" fill="black"/>
<path d="M143.927 114.608C143.752 113.777 143.712 112.95 143.703 112.119C143.708 111.288 143.748 110.462 143.927 109.631C144.105 110.462 144.145 111.288 144.15 112.119C144.141 112.95 144.101 113.777 143.927 114.608Z" fill="black"/>
<path d="M138.308 114.608C138.134 113.777 138.093 112.95 138.084 112.119C138.089 111.288 138.129 110.462 138.308 109.631C138.487 110.462 138.527 111.288 138.531 112.119C138.522 112.95 138.482 113.777 138.308 114.608Z" fill="black"/>
<path d="M136.782 114.608C136.608 113.777 136.568 112.95 136.559 112.119C136.564 111.288 136.604 110.462 136.782 109.631C136.961 110.462 137.001 111.288 137.006 112.119C136.997 112.95 136.957 113.777 136.782 114.608Z" fill="black"/>
<path d="M130.502 114.608C130.328 113.777 130.287 112.95 130.279 112.119C130.283 111.288 130.323 110.462 130.502 109.631C130.681 110.462 130.721 111.288 130.725 112.119C130.716 112.95 130.676 113.777 130.502 114.608Z" fill="black"/>
<path d="M129.044 114.608C128.87 113.777 128.83 112.95 128.821 112.119C128.825 111.288 128.865 110.462 129.044 109.631C129.223 110.462 129.263 111.288 129.268 112.119C129.259 112.95 129.218 113.777 129.044 114.608Z" fill="black"/>
<path d="M126.383 114.608C126.209 113.777 126.169 112.95 126.16 112.119C126.164 111.288 126.204 110.462 126.383 109.631C126.562 110.462 126.602 111.288 126.606 112.119C126.597 112.95 126.557 113.777 126.383 114.608Z" fill="black"/>
<path d="M131.718 114.608C131.543 113.777 131.503 112.95 131.494 112.119C131.499 111.288 131.539 110.462 131.718 109.631C131.896 110.462 131.936 111.288 131.941 112.119C131.932 112.95 131.892 113.777 131.718 114.608Z" fill="black"/>
<path d="M142.076 114.608C141.902 113.777 141.862 112.95 141.853 112.119C141.857 111.288 141.898 110.462 142.076 109.631C142.255 110.462 142.295 111.288 142.3 112.119C142.291 112.95 142.251 113.777 142.076 114.608Z" fill="black"/>
<path d="M134.783 114.608C134.609 113.777 134.569 112.95 134.56 112.119C134.564 111.288 134.604 110.462 134.783 109.631C134.962 110.462 135.002 111.288 135.007 112.119C134.998 112.95 134.957 113.777 134.783 114.608Z" fill="black"/>
<path d="M133.73 114.608C133.555 113.777 133.515 112.95 133.506 112.119C133.511 111.288 133.551 110.462 133.73 109.631C133.908 110.462 133.949 111.288 133.953 112.119C133.944 112.95 133.904 113.777 133.73 114.608Z" fill="black"/>
<path d="M122.899 114.608C122.725 113.777 122.685 112.95 122.676 112.119C122.68 111.288 122.721 110.462 122.899 109.631C123.078 110.462 123.118 111.288 123.123 112.119C123.114 112.95 123.074 113.777 122.899 114.608Z" fill="black"/>
<path d="M121.333 114.608C121.159 113.777 121.118 112.95 121.109 112.119C121.114 111.288 121.154 110.462 121.333 109.631C121.511 110.462 121.552 111.288 121.556 112.119C121.547 112.95 121.507 113.777 121.333 114.608Z" fill="black"/>
<path d="M125.141 114.608C124.967 113.777 124.926 112.95 124.917 112.119C124.922 111.288 124.962 110.462 125.141 109.631C125.32 110.462 125.36 111.288 125.364 112.119C125.355 112.95 125.315 113.777 125.141 114.608Z" fill="black"/>
<path d="M139.523 114.608C139.349 113.777 139.309 112.95 139.3 112.119C139.305 111.288 139.345 110.462 139.523 109.631C139.702 110.462 139.742 111.288 139.747 112.119C139.738 112.95 139.698 113.777 139.523 114.608Z" fill="black"/>
</g>
<path opacity="0.1" d="M148.304 109.059V110.377L120.172 111.266V109.059H148.304Z" fill="black"/>
<path d="M118.23 101.894C136.752 105.218 131.86 132.653 113.306 129.325C94.7884 126.001 99.6759 98.5654 118.23 101.894Z" fill="#FFCB09"/>
<path opacity="0.1" d="M118.23 101.894C136.752 105.218 131.86 132.653 113.306 129.325C94.7884 126.001 99.6759 98.5654 118.23 101.894Z" fill="black"/>
<path d="M116.496 101.585C134.147 104.752 129.255 132.188 111.573 129.016C93.9214 125.848 98.8134 98.4129 116.496 101.585Z" fill="#FFCB09"/>
<path d="M118.183 111.23L115.374 110.565C115.785 111.133 116.023 111.866 115.959 112.794L117.815 113.233L117.634 114.215L115.796 113.779C115.257 115.742 113.643 116.692 111.45 116.254C112.485 118.159 113.564 120.505 114.622 122.867L112.988 122.479C111.999 120.319 111.071 118.316 109.831 115.973L110.055 114.755L110.991 114.977C112.83 115.413 113.98 114.763 114.348 113.436L110.467 112.516L110.647 111.534L114.478 112.442C114.449 111.247 113.651 110.463 112.17 110.113L110.961 109.826L111.196 108.55L118.363 110.248L118.183 111.23Z" fill="#FFF0C4"/>
<path opacity="0.1" d="M102.846 115.946C102.939 120.834 105.785 125.57 112 126.686C126.671 129.318 130.732 106.547 116.083 103.92C115.989 103.902 115.891 103.884 115.793 103.875C129.53 106.627 125.594 128.174 111.602 125.663C105.897 124.64 103.145 120.423 102.841 115.951L102.846 115.946Z" fill="black"/>
<path d="M73.8126 85.5902C73.8126 85.5902 66.2133 79.8758 63.6869 82.7822C61.1605 85.6886 59.153 91.9859 60.0518 93.3791C60.9507 94.7722 60.7298 93.8284 63.3643 96.4995C65.9989 99.1706 68.5794 100.019 68.8276 104.733C69.0757 109.446 68.0375 112.799 69.645 114.234C71.2526 115.667 83.7577 116.489 86.7183 115.361C89.6791 114.231 89.0205 102.681 87.9876 98.6149C86.9548 94.5463 83.8955 90.4079 81.4684 88.5157C79.0412 86.6236 73.8144 85.5946 73.8144 85.5946L73.8126 85.5902Z" fill="#5E5E5E"/>
<path d="M97.9469 112.747L96.5357 123.518L98.1446 123.003L100.52 112.171L105.502 109.987L105.009 108.771L98.9564 109.383L96.9875 108.196L92.3374 101.982L91.6267 104.342L94.5805 110.156L97.9469 112.747Z" fill="#3B3B3F"/>
<path d="M64.156 80.6679L56.5424 115.005L55.6359 112.166L62.2208 80.1787L64.156 80.6679Z" fill="#4A4A58"/>
<path d="M97.1452 106.367C95.022 106.185 93.0895 108.487 92.83 111.512C92.5704 114.536 94.0823 117.134 96.2055 117.317C98.3287 117.499 100.261 115.196 100.521 112.172C100.78 109.147 99.2684 106.549 97.1452 106.367V106.367Z" fill="#3B3B3F"/>
<path d="M105.179 95.5678C105.179 95.5678 107.467 95.4856 107.948 96.0436C108.43 96.6016 108.432 99.204 108.25 99.5668C108.068 99.9275 105.895 99.7602 105.895 99.7602L105.176 95.5676L105.179 95.5678Z" fill="#C6C6C6"/>
<path d="M107.289 90.7285C107.289 90.7285 105.807 95.1107 106.648 98.1955C107.489 101.28 110.645 106.945 109.616 108.232C108.586 109.522 105.009 108.772 105.009 108.772L97.3743 97.3996L107.289 90.7285Z" fill="#434442"/>
<path d="M109.06 88.5895C109.06 88.5895 109.828 90.6178 109.408 91.5428C108.989 92.4677 107.179 93.3882 106.077 93.3489C104.975 93.3096 109.06 88.5895 109.06 88.5895Z" fill="#F27F4C"/>
<path d="M97.8038 107.832C96.2631 107.7 94.861 109.372 94.6728 111.565C94.4846 113.758 95.5813 115.644 97.122 115.776C98.6627 115.908 100.065 114.237 100.253 112.044C100.441 109.851 99.3445 107.964 97.8038 107.832Z" fill="#222321"/>
<path d="M56.5417 115.004L50.6535 117.618L51.154 118.97L56.8681 117.245L58.3115 118.436L59.2398 123.276L60.5376 122.82L60.3926 117.376L56.3222 110.353L52.3203 105.381L52.2145 106.613L54.936 112.632L59.8401 108.577L62.1325 110.851L66.9784 110.125L67.0091 111.427L61.0935 113.568" fill="#3B3B3F"/>
<path d="M59.468 97.6999C53.5691 97.1936 48.2023 103.592 47.4814 111.992C46.7605 120.391 50.9586 127.61 56.8575 128.117C62.7564 128.623 68.1232 122.225 68.8441 113.825C69.565 105.425 65.3669 98.2062 59.468 97.6999V97.6999ZM57.3007 122.952C53.4047 122.618 50.6313 117.849 51.1073 112.303C51.5833 106.756 55.1287 102.53 59.0247 102.864C62.9208 103.199 65.6942 107.967 65.2182 113.514C64.7422 119.06 61.1968 123.287 57.3007 122.952Z" fill="#3B3B3F"/>
<path d="M63.7429 107.567C63.7429 107.567 66.8481 109.263 68.5725 115.381C69.1479 117.42 69.5091 117.051 69.8693 116.149C70.2297 115.244 69.7019 108.166 68.8623 106.801C68.0227 105.437 65.4229 106.967 63.7408 107.567L63.7429 107.567Z" fill="#222321"/>
<path d="M57.7813 84.1118C57.7813 84.1118 57.6268 83.6818 56.9426 83.4551C56.2583 83.2284 54.9168 83.4258 54.7379 83.8506C54.559 84.2753 55.1245 84.8958 56.0899 85.3145C57.0555 85.7312 57.7653 85.3882 58.4211 85.2531C59.0769 85.118 59.9681 85.4348 59.9681 85.4348L60.1129 84.8625C60.1129 84.8625 58.973 84.669 58.5948 84.492C58.2165 84.3171 57.8494 84.2345 57.7813 84.1118V84.1118Z" fill="#F4AA4A"/>
<path d="M97.9804 96.6335C92.0815 96.1272 86.7147 102.525 85.9939 110.925C85.273 119.325 89.4711 126.544 95.37 127.05C101.269 127.557 106.636 121.158 107.357 112.759C108.077 104.359 103.879 97.1398 97.9804 96.6335ZM95.8132 121.886C91.9172 121.552 89.1437 116.783 89.6197 111.236C90.0957 105.69 93.6412 101.464 97.5372 101.798C101.433 102.132 104.207 106.901 103.731 112.447C103.255 117.994 99.7092 122.22 95.8132 121.886Z" fill="#3B3B3F"/>
<path d="M84.5406 94.1609C83.7047 94.9332 83.2706 95.5082 83.6631 95.6163C84.9905 95.979 86.0298 108.395 88.0345 108.446C90.0393 108.497 93.6654 105.585 94.077 102.82C94.2967 101.351 95.4529 100.166 96.7597 99.332C95.6515 99.239 94.5911 99.1586 93.7704 99.1095C91.7018 98.9851 87.2132 96.0422 84.5383 94.1628L84.5406 94.1609Z" fill="#A1A3A0"/>
<path d="M109.873 88.8919C110.624 87.0067 106.721 86.0871 106.721 86.0871C104.577 85.2291 92.9033 88.1711 91.6335 88.8955C90.7416 89.4037 86.514 92.3384 84.5375 94.163C87.2103 96.0422 91.7011 98.9832 93.7696 99.1096C94.5924 99.159 95.6504 99.2413 96.7588 99.3322C97.9104 98.5976 99.1769 98.1344 100.024 98.0008C101.832 97.718 109.123 90.7771 109.873 88.8919V88.8919Z" fill="#4A4A58"/>
<path d="M85.3145 85.8683C85.3145 85.8683 86.2759 87.2499 90.8128 86.1127C95.3496 84.9756 101.689 82.1052 105.437 83.3453C109.185 84.5854 108.518 86.6649 106.768 87.482C105.019 88.2992 98.2823 93.8591 94.933 92.8764C91.5839 91.8916 88.1455 89.7681 86.8658 88.8738C85.5861 87.9794 85.3145 85.8683 85.3145 85.8683V85.8683Z" fill="#494949"/>
<path d="M59.2514 107.486C57.1282 107.304 55.1957 109.607 54.9362 112.631C54.6766 115.655 56.1885 118.253 58.3117 118.436C60.4349 118.618 62.3673 116.315 62.6269 113.291C62.8865 110.267 61.3746 107.668 59.2514 107.486Z" fill="#3B3B3F"/>
<path d="M110.064 111.983C110.064 111.983 97.4877 115.702 92.5017 115.854C87.5136 116.007 82.6048 115.211 80.4269 115.964C78.2489 116.717 74.9832 103.861 73.1767 100.336C71.3678 96.8131 70.4259 98.9944 71.1173 101.467C71.8086 103.939 72.4275 105.523 72.2334 106.025C72.0396 106.525 72.1103 108.574 72.8209 110.253C73.5334 111.935 74.8814 112.033 75.5207 113.379C76.16 114.724 78.232 118.673 79.756 118.504C81.2779 118.335 85.3752 117.637 86.5172 117.733C87.659 117.831 89.6003 120.355 95.3443 119.842C101.088 119.328 110.637 117.196 112.356 116.54C114.074 115.884 113.782 112.155 112.762 111.808C111.741 111.459 110.695 112.256 110.695 112.256L110.064 111.98L110.064 111.983Z" fill="#4A4A58"/>
<path d="M73.0612 101.669C74.87 105.192 78.1356 118.05 80.3114 117.297C82.4893 116.544 87.3982 117.339 92.3862 117.187C97.3743 117.035 109.948 113.315 109.948 113.315L110.579 113.591C110.579 113.591 111.626 112.794 112.646 113.143C113.092 113.296 113.4 114.096 113.46 115.003C113.793 113.681 113.441 111.978 112.766 111.746C111.746 111.397 110.699 112.193 110.699 112.193L110.068 111.918C110.068 111.918 97.4921 115.637 92.5061 115.79C87.5181 115.942 82.6092 115.147 80.4313 115.9C78.2534 116.652 74.9876 103.796 73.1811 100.272C71.6529 97.2936 70.7444 98.3913 70.9169 100.296C71.2174 99.495 71.9866 99.5737 73.0612 101.669V101.669Z" fill="#222321"/>
<path d="M72.1533 107.095C72.1533 107.095 72.1538 107.115 72.1551 107.126C72.1559 107.117 72.1526 107.104 72.1533 107.095Z" fill="#222321"/>
<path d="M51.1205 100.638C51.1205 100.638 57.246 100.634 59.0255 102.864C60.805 105.094 62.9674 107.867 64.4434 107.662C65.9193 107.459 68.8631 106.8 68.8631 106.8C68.8631 106.8 63.3301 90.2627 51.1205 100.638Z" fill="#FFCB0A"/>
<path d="M59.7603 109.506C58.3969 109.389 57.1561 110.866 56.9894 112.808C56.8228 114.75 57.7938 116.417 59.1572 116.534C60.5206 116.651 61.7614 115.173 61.9281 113.232C62.0947 111.29 61.1237 109.623 59.7603 109.506Z" fill="#222321"/>
<path d="M71.4443 81.9284L61.0941 113.569C60.95 114.009 60.5178 114.289 60.0565 114.239L58.9148 114.115L69.6374 80.1171L71.4422 81.9282L71.4443 81.9284Z" fill="#4A4A58"/>
<path d="M61.8793 76.6236C61.8793 76.6236 59.5864 75.8677 58.3834 75.9132C57.9909 75.854 57.7621 76.5381 57.8571 76.744C57.9521 76.9499 60.1807 77.341 60.774 77.3643C61.3651 77.3874 60.0896 77.7584 60.0896 77.7584C60.0896 77.7584 58.4048 77.2736 58.0247 77.2687C57.6424 77.2635 57.5206 77.5677 57.7532 77.5579C57.9858 77.5481 59.4968 78.0753 59.9344 78.2532C60.3718 78.4332 62.0182 77.5816 61.8814 76.6238L61.8793 76.6236Z" fill="#222321"/>
<path d="M75.6466 77.5222C75.6466 77.5222 76.2329 76.3883 78.5569 75.6927C80.8786 74.999 81.8207 73.4598 86.5117 73.8453L91.2027 74.2309C91.2027 74.2309 91.2804 75.4069 91.0694 75.7843C90.8585 76.1616 86.187 75.2504 85.428 75.5233C84.669 75.7962 89.858 76.6966 91.0388 77.0828C92.2198 77.4669 90.8567 77.52 88.8042 77.059C86.7515 76.6 85.6838 76.5063 84.9961 76.6173C84.3083 76.7284 84.0886 77.307 83.0959 77.007C82.1033 76.7071 81.8112 76.1718 80.7858 76.2539C79.7603 76.336 78.3376 76.4392 77.6808 76.8336C77.0239 77.2301 76.6564 78.2169 76.6564 78.2169" fill="#222321"/>
<path d="M58.0947 81.0768C57.205 82.5758 57.2441 86.1085 58.4821 87.6371C58.6685 87.8678 58.9698 88.0977 59.3508 88.3154C59.266 87.6937 58.294 87.0788 57.8717 85.8307C57.4786 84.6637 57.8084 82.4809 58.0947 81.0768Z" fill="#FFCB0A"/>
<path d="M79.5302 78.4232C79.3932 77.3931 76.6501 77.7211 75.6487 77.5224C74.796 77.3515 74.9139 77.0172 75.0211 76.3141C72.4343 78.3627 66.7846 82.9294 66.6207 83.8232C66.4085 84.9828 67.8405 84.1022 67.2807 85.3489C66.721 86.5935 63.8008 87.9694 63.9788 89.66C65.87 89.8457 67.6493 89.5753 68.256 88.4772C69.598 86.0432 72.3123 85.1599 73.4179 83.5986C74.5256 82.0375 79.6692 79.4535 79.5323 78.4234L79.5302 78.4232Z" fill="#FFCB0A"/>
<path d="M80.5008 74.87C80.5008 74.87 79.7429 73.8908 80.9208 73.3455C82.0986 72.8003 82.7642 72.9722 82.7642 72.9722C82.7642 72.9722 83.5291 73.9436 83.317 74.4335C83.1049 74.9234 80.5029 74.8702 80.5029 74.8702L80.5008 74.87Z" fill="#222321"/>
<path d="M83.3168 74.4356C83.3168 74.4356 82.3904 71.0352 83.6966 70.282C82.6497 70.8873 86.9623 68.7211 87.2754 67.6488C87.7576 65.9935 89.9588 63.6567 92.0101 63.9093C94.0634 64.162 95.0303 63.5477 94.9588 65.5209C94.9208 66.5828 93.6413 68.7585 89.6543 68.6417C88.76 68.8562 88.3816 68.7557 87.6601 68.9638C87.1694 69.1066 86.9051 69.3136 85.3707 70.0493C84.7327 70.4474 83.6013 70.5757 83.597 71.4428C83.5927 72.3098 84.1146 74.132 84.1146 74.132" fill="#222321"/>
<path d="M64.2466 76.2593L62.5063 72.3341C61.4773 70.5002 59.818 70.1155 61.0303 68.7483C62.1579 67.4759 59.0578 64.9774 57.7183 64.2098C56.7355 63.6471 55.9215 64.0641 55.7 66.0266C55.5797 67.0814 56.7189 69.8346 58.8695 70.2424C59.3196 70.5723 59.5364 70.5229 59.8954 70.8237C60.1393 71.0296 60.4306 71.1779 61.3273 72.0755C61.6158 72.5532 62.1326 72.8484 62.0207 73.7062C61.9089 74.5641 61.1134 76.4007 61.1134 76.4007" fill="#222321"/>
<path d="M70.179 72.4939C64.7654 71.6594 63.8297 73.2969 63.8297 73.2969C60.5801 73.6559 59.4289 79.4144 58.3328 80.7405C58.7016 81.1506 59.4638 81.4605 61.0019 81.3246C64.1469 81.046 67.0974 80.5062 69.0608 81.2381C70.9569 79.5576 73.5099 77.506 75.0178 76.3109C75.0367 76.1892 75.0543 76.0589 75.0668 75.9133C75.151 74.9319 75.5907 73.3262 70.1771 72.4916L70.179 72.4939Z" fill="#4A4A58"/>
<path d="M61.0033 81.3276C59.463 81.4633 58.7029 81.1535 58.3341 80.7435C58.3246 80.7554 58.3151 80.7673 58.3079 80.7773C58.2323 80.8644 58.1619 80.9668 58.0971 81.0782C57.8128 82.4825 57.4809 84.6651 57.874 85.832C58.2942 87.08 59.2685 87.693 59.3531 88.3168C60.4635 88.9542 62.2669 89.4938 63.979 89.6599C63.8008 87.9714 66.721 86.5956 67.2808 85.3488C67.8407 84.1021 66.4064 84.9846 66.6209 83.8231C66.689 83.4505 67.7111 82.4412 69.0663 81.2414C67.103 80.5095 64.1503 81.0491 61.0075 81.3279L61.0033 81.3276Z" fill="#F5F5F5"/>
<path d="M58.4428 90.4025L69.6108 90.5042L69.4474 92.4079L58.0214 91.9439" fill="#F5F5F5"/>
<path d="M83.8668 115.116C83.8668 115.116 87.3611 116.589 87.7313 117.255C88.0993 117.922 87.9391 118.327 86.9087 118.491C85.8783 118.656 84.709 116.797 83.6818 116.331C82.6568 115.862 82.4328 115.475 82.6148 115.41C82.799 115.345 83.8647 115.116 83.8647 115.116L83.8668 115.116Z" fill="#222321"/>
<path d="M99.0253 112.049C99.0253 112.049 102.813 112.259 103.384 112.763C103.955 113.267 103.941 113.702 103.027 114.204C102.112 114.706 100.385 113.35 99.2619 113.256C98.1391 113.159 97.7982 112.871 97.9491 112.748C98.1 112.625 99.0274 112.049 99.0274 112.049L99.0253 112.049Z" fill="#222321"/>
<path d="M99.93 98.7828L98.4998 110.543C98.4757 110.749 98.3172 110.912 98.1125 110.943C97.3885 111.055 96.735 110.495 96.7363 109.762L96.7609 99.6397C96.7621 99.4527 96.8744 99.2838 97.0485 99.2116L99.2979 98.2948C99.6241 98.1612 99.9731 98.4293 99.9325 98.7787L99.93 98.7828Z" fill="#303033"/>
<path d="M85.9931 110.925C85.9931 110.925 93.6207 113.212 98.6985 112.015C98.6985 112.015 100.197 111.523 99.2596 113.256C98.322 114.989 89.9889 114.233 88.7231 113.872C87.4574 113.508 86.0618 113.816 85.1159 113.69C84.1699 113.564 84.7312 110.591 85.9908 110.927L85.9931 110.925Z" fill="#222321"/>
<path d="M87.1529 86.9408C86.2075 86.0156 84.6992 85.1845 83.0761 84.5265C82.2 85.7418 80.2363 88.8538 81.3651 90.9364C82.6277 93.2687 83.6669 94.6122 84.3964 96.9625C85.4473 96.5339 86.2065 96.4566 87.6826 96.6981C89.8252 97.0499 91.5563 92.585 91.5563 92.585L94.9311 92.8746C94.9311 92.8746 89.7595 89.4925 87.1508 86.9406L87.1529 86.9408Z" fill="#CCD1DD"/>
<path d="M83.0761 84.5276C80.222 83.3748 77.0067 82.763 75.8192 83.1479C73.956 83.7513 71.2176 84.0244 71.9825 85.6399C72.7475 87.2555 68.7081 94.5116 73.1612 93.1866C80.7824 90.9152 78.7149 99.3993 78.7149 99.3993C78.7149 99.3993 80.4984 98.8572 82.7034 97.7644C83.3896 97.4236 83.9226 97.1589 84.3962 96.9657C83.6666 94.6176 82.6274 93.274 81.365 90.9397C80.2364 88.8549 82.1999 85.7451 83.076 84.5297L83.0761 84.5276Z" fill="#FFCB0A"/>
<path d="M74.4964 85.4999C74.4964 85.4999 74.7897 84.9808 75.7178 84.8436C76.646 84.7064 78.323 85.2564 78.46 85.8401C78.597 86.4238 77.7314 87.0957 76.3984 87.4172C75.0654 87.7386 74.2324 87.1399 73.4199 86.8214C72.6075 86.5029 71.4796 86.4656 71.4796 86.4656L71.6628 85.9413C71.6628 85.9413 72.8421 85.949 73.3667 85.8069C73.8912 85.6649 74.3823 85.6411 74.4964 85.4999V85.4999Z" fill="#F4AA4A"/>
<path d="M107.707 93.8475C107.707 93.8475 107.938 93.4378 108.672 93.3286C109.406 93.2194 110.732 93.6542 110.839 94.1162C110.946 94.5783 110.263 95.1086 109.21 95.3626C108.157 95.6167 107.498 95.1434 106.856 94.8927C106.214 94.6421 105.324 94.6124 105.324 94.6124L105.468 94.1996C105.468 94.1996 106.401 94.2052 106.814 94.094C107.228 93.9828 107.616 93.963 107.706 93.8517L107.707 93.8475Z" fill="#434442"/>
<path d="M100.68 84.095C100.68 84.095 102.137 82.5256 103.638 82.5799C105.236 82.6384 107.794 83.2108 108.324 84.0175C108.875 84.8578 108.075 86.5666 106.911 87.2278C105.746 87.889 109.451 86.5932 109.796 84.6519C110.141 82.7107 107.905 82.5316 106.538 82.1867C105.173 81.8421 102.852 81.4048 101.985 82.0682C101.348 82.5556 100.606 83.2573 100.681 84.0908L100.68 84.095Z" fill="#494949"/>
<path d="M70.6443 96.1911C70.6443 96.1911 74.1627 93.8653 75.0964 96.165C76.0301 98.4648 75.9415 100.364 76.4807 103.719C77.0219 107.073 76.4225 108.757 78.4495 109.762C80.4744 110.767 78.7123 112.2 80.0091 113.217C81.3059 114.234 84.5083 113.756 84.859 110.165C85.2097 106.575 84.6151 105.873 84.058 104.09C83.5009 102.308 84.1249 99.1233 81.388 100.296C78.651 101.468 78.4295 102.787 78.086 101.19C77.7425 99.594 77.8744 96.3226 76.8945 95.4285C75.9146 94.5344 75.1767 93.0742 71.3511 94.3468C68.9512 94.8382 68.0591 95.5717 67.72 96.8714C67.381 98.1711 69.128 98.8717 69.3606 100.992C69.5932 103.113 68.5038 96.5326 70.6445 96.189L70.6443 96.1911Z" fill="#757575"/>
<path d="M145.338 128.192H155.199C155.906 127.713 155.008 123.027 155.008 123.027C155.008 123.027 152.316 122.006 151.852 124.082C151.386 126.158 148.424 126.817 146.857 127.071C145.785 127.245 145.446 127.836 145.338 128.192V128.192Z" fill="#3C1F0E"/>
<path d="M159.964 128.192H169.824C170.532 127.713 169.634 123.027 169.634 123.027C169.634 123.027 166.941 122.006 166.477 124.082C166.011 126.158 163.05 126.817 161.482 127.071C160.411 127.245 160.072 127.836 159.964 128.192V128.192Z" fill="#3C1F0E"/>
<path d="M147.991 80.4027C147.991 80.4027 148.433 85.9335 148.955 92.5807C149.662 101.611 151.573 123.999 151.573 123.999C151.573 123.999 152.825 125.067 155.597 124.482C155.597 124.482 157.957 116.759 158.665 107.942C158.675 107.798 158.686 107.652 158.699 107.506C159.355 98.5309 160.376 79.6338 160.376 79.6338L147.993 80.4006L147.991 80.4027Z" fill="#965E26"/>
<path d="M147.841 78.4902C147.841 78.4902 148.436 85.9317 148.957 92.5789L158.667 107.943C158.678 107.799 158.689 107.653 158.701 107.506C159.358 98.5313 160.379 79.6341 160.379 79.6341L147.843 78.4902H147.841Z" fill="#7C4A1D"/>
<path d="M150.67 78.4915C150.67 78.4915 157.711 96.0202 159.963 102.665C161.567 107.398 166.089 124.003 166.089 124.003C166.089 124.003 168.055 124.602 169.709 123.443C169.709 123.443 171.391 106.48 167.993 101.697C166.191 99.1595 167.544 75.3162 160.234 75.1128C152.924 74.9095 150.67 78.4915 150.67 78.4915V78.4915Z" fill="#965E26"/>
<path d="M153.816 52.6505C154.892 53.2161 155.941 53.2521 156.85 53.0593C157.682 52.8835 158.396 52.5171 158.904 52.1909C159.428 51.8562 159.733 51.566 159.733 51.566C159.733 51.566 159.697 51.513 159.635 51.4092C159.317 50.8669 158.354 48.9139 158.784 45.7746C158.79 45.7343 158.479 45.7915 158.008 45.9038C156.61 46.2343 153.801 47.0307 153.678 47.0667H153.674C153.674 47.0667 153.64 47.7276 153.524 48.9096C153.513 49.0134 153.505 49.1236 153.492 49.2359C153.477 49.3735 153.462 49.5218 153.445 49.6722C153.316 50.9029 153.814 52.6484 153.814 52.6484L153.816 52.6505Z" fill="#FFAE73"/>
<path d="M153.524 48.9101C155.61 49.3889 158.722 46.3089 158.722 46.3089C158.496 46.1394 158.256 46.006 158.008 45.9043C156.61 46.2347 153.801 47.0312 153.679 47.0672H153.674C153.674 47.0672 153.64 47.7281 153.524 48.9101V48.9101Z" fill="#F9924F"/>
<path d="M146.889 75.5396C147.042 77.5499 147.465 78.9882 148.397 78.9882C148.397 78.9882 152.534 80.4456 157.478 80.4837C158.444 80.4901 159.815 80.3015 160.948 80.113C162.107 79.916 163.026 79.719 163.026 79.719C164.02 79.4902 165.117 78.8759 164.971 77.7427C164.892 77.1389 164.837 76.3637 164.797 75.4676C164.795 75.4104 164.793 75.3532 164.789 75.2939C164.681 72.6673 164.698 69.0492 164.685 65.5859C164.674 63.4591 164.655 61.3895 164.583 59.6462C164.583 59.6462 165.56 52.7936 164.475 51.6688C163.204 50.3533 159.478 49.9487 159.243 49.9996C159.173 49.9847 159.103 49.9678 159.031 49.9551C159.031 49.9551 155.788 51.7238 153.43 50.3999C153.43 50.3999 149.99 51.1837 148.999 52.2301C148.658 52.5902 147.294 54.8017 147.256 57.2314C147.205 60.6185 147.336 64.4653 147.336 64.4674C147.3 65.0182 147.241 65.7278 147.177 66.537C147.107 67.3991 147.031 68.3735 146.968 69.3903C146.936 69.9029 146.906 70.424 146.881 70.9472C146.807 72.5592 146.785 74.1818 146.887 75.5418L146.889 75.5396Z" fill="#FDDBBA"/>
<path d="M159.23 50C159.23 50 155.716 53.6244 153.204 52.8809C153.204 52.8809 152.869 52.3915 154 52.2348C155.132 52.078 156.354 52.1416 159.228 50H159.23Z" fill="#F8CAA4"/>
<path d="M153.835 48.1842C153.835 48.1842 154.746 48.1504 155.816 47.8771C157.379 47.481 159.283 46.5786 159.173 44.5366C158.991 41.1007 159.58 38.7579 156.047 38.7452C154.155 38.7388 153.1 39.1222 152.494 39.6582C151.967 40.1221 151.781 40.7025 151.679 41.2426C151.461 42.4056 152.393 48.1482 153.833 48.1821L153.835 48.1842Z" fill="#FFAE73"/>
<path d="M150.714 39.5129C150.096 39.9556 150.221 41.1609 151.055 41.3473C152.551 41.682 153.854 40.7902 154.476 40.8135C155.366 40.8453 156.012 42.0569 156.188 42.4552C156.364 42.8534 156.552 43.1712 157.482 42.5166C157.635 42.4107 157.76 42.3726 157.864 42.3895C158.391 42.47 158.34 43.9126 158.281 44.2451C158.281 44.2451 158.397 45.2174 159.092 45.4335C159.177 45.4589 160.386 45.4949 161.34 40.7012C161.49 39.9493 161.323 38.4559 160.2 37.4073C159.079 36.3567 156.576 35.5051 154.343 36.4033C152.576 37.1129 152.023 38.5787 150.712 39.5171L150.714 39.5129Z" fill="#1E0E0A"/>
<path d="M153.052 46.0135C153.052 46.0135 152.338 46.3736 153.374 46.3715C153.374 46.3715 155.03 46.4329 155.03 45.9733C155.03 45.9733 154.208 45.5983 153.049 46.0114L153.052 46.0135Z" fill="white"/>
<path d="M164.403 81.4214C164.403 81.4214 163.478 84.4484 162.762 85.1856C162.275 85.6855 160.091 87.3462 159.858 87.0878C159.529 86.7235 160.508 85.2449 160.722 84.8128C160.936 84.3806 161.057 83.9866 160.934 83.8426C160.811 83.6986 159.902 85.2618 159.781 84.8276C159.658 84.3912 160.408 82.8385 160.656 82.5441C160.904 82.2497 162.109 81.7921 162.336 81.3197C162.563 80.8474 164.408 81.4193 164.408 81.4193L164.403 81.4214Z" fill="#F9924F"/>
<path d="M161.626 59.7688C161.275 60.4276 162.505 79.8522 162.505 79.8522C162.505 79.8522 164.367 79.4286 164.797 75.4653C164.795 75.4081 164.793 75.3509 164.789 75.2916C164.681 72.6649 164.698 69.0469 164.685 65.5835C164.685 65.5835 162.204 58.68 161.626 59.7688V59.7688Z" fill="#F8CAA4"/>
<path d="M163.56 51.0283C163.56 51.0283 165.369 51.793 167.522 55.8135C169.674 59.834 171.707 68.3453 170.837 69.7306C169.964 71.1138 168.854 80.161 163.99 82.6309C163.99 82.6309 161.9 81.5718 162.219 81.0147C162.219 81.0147 165.685 67.0573 165.691 66.5341C165.698 66.0109 161.862 61.5011 161.643 59.2536C161.425 57.0082 163.562 51.0283 163.562 51.0283H163.56Z" fill="#FDDBBA"/>
<path d="M138.149 75.7726C137.73 75.5608 137.241 75.5439 136.815 75.7197C136.273 75.9442 135.521 76.2768 135.245 76.4865C134.796 76.8297 133.521 77.2173 133.726 77.5202C133.932 77.8231 134.843 77.4334 135.141 77.6897C135.44 77.946 134.487 80.4392 134.841 80.6595C135.192 80.8777 136.359 80.9476 136.827 80.0664C137.294 79.1852 138.471 77.0097 138.721 76.4886C138.855 76.2132 138.516 75.9569 138.149 75.7705V75.7726Z" fill="#F9924F"/>
<path d="M172.594 87.1675L173.948 87.4174C173.948 87.4174 177.653 81.7044 177.759 79.9632C177.86 78.3004 181.201 71.022 177.29 66.4761C177.115 66.2707 176.922 66.0694 176.714 65.8767C176.708 65.8682 176.699 65.8618 176.693 65.8555C176.693 65.8555 176.687 65.8661 176.674 65.8872C176.596 66.0207 176.284 66.5799 175.92 67.8212C175.35 69.7595 174.645 73.3584 174.479 79.5756C174.479 79.5756 173.571 84.8967 172.592 87.1654L172.594 87.1675Z" fill="#FFA166"/>
<path d="M172.594 87.1696C172.594 87.1696 171.361 88.5422 171.323 89.0422C171.272 89.7052 171.787 90.7982 172.121 90.6923C172.456 90.5864 172.496 90.0483 172.594 89.6374C172.691 89.2265 173.13 88.7859 173.104 88.9701C173.079 89.1566 172.82 89.8874 172.901 90.0039C172.981 90.1204 173.077 90.0992 173.267 89.7497C173.496 89.3281 173.988 88.7414 173.924 88.3092C173.854 87.8432 173.846 87.7437 174.022 87.1802C174.197 86.6189 174.492 85.9431 174.492 85.9431L173.445 85.7207L172.594 87.1696V87.1696Z" fill="#FFA166"/>
<path d="M185.172 111.974C185.172 111.991 185.168 112.006 185.168 112.02C185.164 112.048 185.162 112.073 185.16 112.095C184.969 113.906 184.573 115.74 184.1 117.445C182.868 121.892 181.095 125.281 181.095 125.281L179.622 125.145C179.622 125.145 180.427 121.724 180.497 117.077C180.546 113.827 180.235 109.978 179.038 106.282C178.339 104.119 177.784 102.06 177.347 100.131C175.922 93.835 175.737 88.9312 175.774 86.3766C175.79 85.1162 175.86 84.4277 175.86 84.4277L184.13 85.5949L184.516 85.65C184.461 89.4608 184.435 94.6357 184.425 98.6816C184.422 99.656 184.42 100.567 184.418 101.376C184.418 102.499 184.416 103.429 184.416 104.071V105.045C184.888 106.127 185.145 107.341 185.242 108.623C185.323 109.703 185.291 110.832 185.174 111.972L185.172 111.974Z" fill="#4A4A58"/>
<path d="M181.999 123.715C182.035 123.522 182.086 123.279 182.145 123.01C182.742 121.608 183.488 119.657 184.102 117.443C182.02 117.617 180.993 117.337 180.499 117.072C180.472 118.877 180.334 120.495 180.177 121.802C179.959 122.616 179.561 123.916 179.103 124.463C178.375 125.329 177.572 126.077 176.604 126.566C176.496 126.621 179.027 127.511 180.321 127.376C181.616 127.24 182.685 127.009 182.567 126.208C182.524 125.927 182.452 125.636 182.34 125.38C182.132 124.91 181.893 124.287 182.001 123.715H181.999Z" fill="#FFAE73"/>
<path d="M185.172 111.974C185.303 110.457 182.715 105.223 182.715 105.223L184.414 104.07V105.045C184.886 106.127 185.142 107.341 185.24 108.622C185.32 109.703 185.289 110.832 185.172 111.971V111.974Z" fill="#3B3B48"/>
<path d="M180.218 127.602C178.917 127.534 179.282 127.839 177.477 127.977C175.672 128.117 175.011 127.557 174.907 127.305C174.814 127.081 175.672 126.833 176.589 126.547L176.602 126.564C176.602 126.564 177.805 127.115 179.284 126.871C180.489 126.674 181.694 126.089 182.525 125.945C182.595 126.216 182.667 126.494 182.662 126.778C182.654 127.587 181.516 127.667 180.218 127.6V127.602Z" fill="#2D1935"/>
<path d="M184.515 85.65C184.46 89.4608 184.435 94.6357 184.424 98.6816C184.422 99.656 182.719 104.414 182.717 105.223C181.34 103.261 180.148 89.6938 178.241 86.26C178.258 84.9997 175.86 84.4277 175.86 84.4277L184.13 85.5949L184.515 85.65V85.65Z" fill="#3B3B48"/>
<path d="M185.823 50.1117C185.872 49.9401 186.495 48.0082 189.509 48.6479C189.509 48.6479 187.999 48.4573 187.586 49.0398C187.586 49.0398 188.782 48.4912 189.532 48.9508C190.282 49.4084 190.405 50.9526 190.293 51.4229C190.18 51.8931 189.354 53.2912 188.806 53.2912C188.598 53.2912 188.376 53.2213 188.181 53.1366C188.266 53.3844 188.34 53.6555 188.403 53.9521C188.986 56.691 187.164 58.7712 186.223 58.2564C185.62 57.926 185.162 58.983 185.162 58.983L180.15 52.3401C180.15 52.3401 183.643 48.1438 185.823 50.1117V50.1117Z" fill="#1E0E0A"/>
<path d="M177.949 82.3948C180.221 75.127 177.73 73.5467 177.968 69.9096C178.205 66.2726 181.02 62.3622 181.02 62.3622C181.02 62.3622 181.164 62.3474 181.408 62.3262C181.596 62.2266 181.647 61.4365 181.645 60.6019C181.643 59.6 181.567 58.5387 181.567 58.5387L184.943 57.8693L185.144 57.8291C185.136 60.1804 185.754 61.7225 186.203 62.0826C186.625 62.1313 188.426 62.358 189.533 62.8219C189.951 62.9956 190.271 63.2053 190.381 63.4489C191.309 65.4888 192.234 70.6341 192.885 74.3051C193.247 76.3513 193.524 77.94 193.668 78.2768C194.071 79.2152 195.301 84.3817 196.352 86.9321L195.399 88.1035C195.399 88.1035 190.582 79.9884 190.179 78.0756C190.048 77.4528 189.726 76.2073 189.351 74.8113C189.294 74.5995 189.237 74.3856 189.178 74.1695C188.514 75.9679 188.176 76.8025 188.195 77.5799C188.22 78.6857 188.97 79.6813 190.54 83.1976C191.406 85.1401 175.631 89.8215 177.953 82.399L177.949 82.3948Z" fill="#FFAE73"/>
<path d="M181.565 59.0707C181.565 59.0707 181.641 60.1341 181.643 61.1339C183.533 61.081 184.532 59.3567 184.941 58.4014L181.565 59.0707V59.0707Z" fill="#F48F4E"/>
<path d="M185.29 58.0334C185.29 58.0334 186.282 56.468 186.519 55.1314C186.689 54.176 186.201 50.6343 182.645 51.1448C182.645 51.1448 181.611 51.2464 180.639 51.9031C179.866 52.4242 178.751 53.5511 179.997 56.6417L180.321 57.686L185.29 58.0355V58.0334Z" fill="#1E0E0A"/>
<path d="M180.934 60.0191C180.934 60.0191 185.405 60.0932 185.408 57.3077C185.41 54.5222 185.99 52.656 183.135 52.4907C180.279 52.3255 179.724 53.3889 179.498 54.3167C179.271 55.2466 179.771 59.9259 180.934 60.017V60.0191Z" fill="#FFAE73"/>
<path d="M183.17 106.405C183.454 106.936 186.267 110.319 189.095 114.067C189.337 114.386 189.589 114.732 189.845 115.096C191.51 117.441 193.427 120.5 194.573 121.989C195.615 123.343 196.55 121.648 196.024 120.438C195.196 118.53 194.493 115.196 193.69 112.741C193.506 112.173 193.315 111.652 193.116 111.207C192.252 109.273 190.794 106.568 188.746 104.471C188.39 104.106 191.489 96.0146 191.269 89.3209C191.182 86.6688 190.813 84.3345 189.966 82.9131L181.554 83.3304C181.554 83.3304 180.404 101.211 183.17 106.405V106.405Z" fill="#4A4A58"/>
<path d="M179.631 52.7674C180.322 51.9307 180.843 52.1128 181.135 52.3649C183.533 51.0346 185.156 53.0089 185.156 53.0089C185.454 55.0064 186.897 56.1524 186.897 56.1524C186.897 56.1524 186.081 56.6565 184.203 56.1736C183.628 56.0253 183.118 55.6186 182.682 55.125C183.442 56.3981 184.476 57.3153 184.476 57.3153C182.233 56.2774 181.33 53.1572 181.241 52.8267C180.968 53.0724 180.43 53.6041 180.267 54.1273C180.044 54.8369 179.943 56.2964 179.519 56.2477C179.519 56.2477 178.598 54.0256 179.633 52.7695L179.631 52.7674Z" fill="#1E0E0A"/>
<path d="M196.242 86.6895C196.242 86.6895 196.651 87.6512 197.075 87.9202C197.5 88.1892 197.765 88.7484 197.653 89.2632C197.541 89.7779 197.767 90.6718 197.231 90.6718C196.695 90.6718 195.441 88.3015 195.285 87.8545C195.128 87.4075 194.994 87.3186 194.994 87.3186L196.242 86.6916V86.6895Z" fill="#FFAE73"/>
<path d="M191.591 86.2264C191.606 86.5166 191.591 86.7475 191.538 86.9127C191.358 87.4889 190.744 87.7494 189.259 87.5927C188.35 87.4952 187.946 85.9425 187.766 84.6165C187.219 86.5145 186.457 87.5778 185.469 87.8024C184.029 88.1307 176.244 88.6793 175.768 85.1524C175.245 81.2717 177.329 74.7538 177.414 71.0489C177.2 69.7356 177.128 68.5959 177.151 67.6152C177.212 64.9758 177.971 63.4972 178.553 62.902C178.718 62.7728 178.884 62.6923 179.547 62.5758C179.886 62.5165 180.356 62.4487 181.021 62.3597C181.021 62.3597 181.307 62.3216 181.301 62.3322C181.178 62.5567 179.856 64.5458 179.983 65.2003C180.117 65.8845 185.203 65.7871 185.605 65.41C186.008 65.033 187.058 62.1924 187.058 62.1924C187.058 62.1924 189.126 62.4233 190.136 63.1731L190.125 63.1859C190.248 63.2748 190.339 63.3701 190.392 63.4718C191.471 65.5689 192.549 70.8625 193.305 74.6394C191.468 75.6731 189.865 75.366 189.367 75.2283C190.017 79.5771 191.494 84.2458 191.591 86.2285V86.2264Z" fill="#FFCB0A"/>
<path d="M182.22 58.3725C182.22 58.3725 182.135 58.7156 181.28 58.6521C181.28 58.6521 180.562 58.5991 180.589 58.2221C180.589 58.2221 181.288 57.9615 182.22 58.3725V58.3725Z" fill="white"/>
<path d="M189.846 115.095C191.511 117.44 193.428 120.499 194.574 121.988C195.616 123.341 196.55 121.647 196.025 120.437C195.196 118.529 194.493 115.194 193.69 112.739C193.15 113.559 192.049 114.618 189.844 115.093L189.846 115.095Z" fill="#FFAE73"/>
<path d="M195.484 87.6447C195.484 87.6447 195.238 88.7081 195.416 89.0428C195.594 89.3774 195.476 89.8117 195.834 89.6888C196.192 89.566 195.484 87.6426 195.484 87.6426V87.6447Z" fill="#FFAE73"/>
<path d="M198.081 121C198.759 121.443 198.216 122.445 197.46 123.504C196.704 124.563 197.157 124.421 196.304 126.018C195.45 127.615 194.626 127.874 194.357 127.825C194.118 127.783 194.37 126.925 194.622 125.999C194.653 125.883 194.685 125.766 194.715 125.648C194.988 124.597 194.637 123.608 194.469 122.487C194.31 121.426 192.779 119.324 192.779 119.324L193.876 117.104C193.876 117.104 195.223 119.036 195.831 119.82C196.189 120.28 196.812 120.513 197.303 120.67C197.57 120.756 197.841 120.845 198.081 121V121Z" fill="#FFAE73"/>
<path d="M197.461 123.503C196.704 124.562 197.158 124.42 196.304 126.018C195.45 127.615 194.626 127.873 194.357 127.824C194.118 127.782 194.37 126.924 194.622 125.999H194.643C194.643 125.999 195.755 125.278 196.344 123.901C196.825 122.779 196.98 121.448 197.306 120.669C197.573 120.756 197.844 120.845 198.083 120.999C198.761 121.442 198.219 122.444 197.463 123.503H197.461Z" fill="#2D1935"/>
<path d="M179.14 62.6553C179.14 62.6553 177.793 62.6489 176.852 64.46C175.912 66.2712 174.495 72.1579 174.495 72.1579C174.495 72.1579 176.147 74.0008 178.085 73.5814C180.021 73.1598 179.142 62.6574 179.142 62.6574L179.14 62.6553Z" fill="#FFCB0A"/>
<path d="M149.445 60.5302C149.445 60.5302 148.717 63.6187 145.336 68.1476C141.955 72.6765 140.417 75.6442 139.032 76.9681C138.197 77.7667 136.111 75.7797 136.111 75.7797C136.111 75.7797 139.398 67.0715 140.585 65.2159C141.773 63.3603 146.086 52.0529 148.998 52.2266C151.911 52.4003 149.445 60.5281 149.445 60.5281V60.5302Z" fill="#FDDBBA"/>
<path d="M131.439 122.125C131.439 122.125 131.829 122.82 131.53 123.587C131.342 124.07 131.323 124.576 131.481 125.006C131.615 125.369 132.104 125.428 132.318 125.106L134.574 121.706C134.767 121.416 134.667 121.024 134.358 120.863C134.089 120.721 133.778 120.554 133.547 120.416C133.038 120.115 132.316 120.344 132.316 120.344L131.439 122.128V122.125Z" fill="#2A3967"/>
<path d="M125.16 115.259C125.757 117.136 131.224 123.037 131.224 123.037C131.224 123.037 133.563 121.319 133.506 120.078C133.506 120.078 130.627 114.717 130.597 114.06C130.591 113.903 130.917 113.261 131.417 112.363C131.485 112.24 131.555 112.115 131.629 111.984C132.491 110.45 133.735 108.349 134.707 106.597C134.73 106.555 134.753 106.513 134.777 106.472C135.647 104.896 136.283 103.627 136.196 103.354C135.942 102.56 128.445 101.492 128.445 101.492C128.445 101.492 124.565 113.382 125.162 115.259H125.16Z" fill="#72471C"/>
<path d="M131.627 111.983C132.489 110.451 133.733 108.35 134.705 106.596C134.728 106.554 134.752 106.511 134.775 106.471L134.771 104.598L132.174 104.2L131.627 111.981V111.983Z" fill="#3C1F0E"/>
<path d="M141.079 123.962C141.079 123.962 141.488 125.663 141.072 126.373C140.81 126.82 140.71 127.317 140.801 127.766C140.878 128.146 141.35 128.281 141.611 127.995L144.373 124.992C144.608 124.735 144.572 124.333 144.292 124.125C144.049 123.943 143.769 123.727 143.559 123.555C143.106 123.178 142.356 123.293 142.356 123.293L141.077 123.962H141.079Z" fill="#2A3967"/>
<path d="M132.102 102.597C132.102 102.597 135.01 112.714 136.093 115.258C136.847 117.028 140.486 125.214 140.486 125.214C140.486 125.214 144.117 124.106 143.873 122.987C143.873 122.987 141.556 114.595 141.14 113.646C140.602 112.415 140.939 104.035 138.893 102.525C136.845 101.014 132.104 102.599 132.104 102.599L132.102 102.597Z" fill="#72471C"/>
<path d="M132.119 88.6335C132.119 88.6335 127.524 83.7974 127.27 83.1641C127.018 82.5307 126.061 76.9766 126.061 76.9766L124.866 77.0232C124.866 77.0232 124.553 83.5623 124.944 84.8735C125.338 86.1847 130.736 92.0693 130.736 92.0693L132.119 88.6335V88.6335Z" fill="#FFAE73"/>
<path d="M132.978 87.21C133.123 86.9939 133.231 86.7545 133.307 86.5046C133.48 85.9411 133.508 85.3353 133.493 84.8841C133.478 84.4668 133.43 84.1787 133.43 84.1787L136.594 82.876C136.472 83.6661 136.457 84.3863 136.495 85.0112C136.588 86.494 136.988 87.4282 136.988 87.4282L136.933 87.5701C137.287 87.6357 137.66 87.7141 138.058 87.8031L133.963 89.9659L131.595 87.5044C131.595 87.5044 131.93 87.2714 132.974 87.2079L132.978 87.21Z" fill="#FFAE73"/>
<path d="M133.307 86.5043C135.037 86.6017 136.497 85.0088 136.497 85.0088L133.493 84.8838C133.508 85.335 133.48 85.9408 133.307 86.5043Z" fill="#F5975D"/>
<path d="M139.069 88.8159C139.069 88.8159 142.878 84.6471 144.666 83.4037C144.666 83.4037 147.422 77.947 147.64 77.5911C147.856 77.2352 148.989 78.0148 148.989 78.0148C148.989 78.0148 147.695 83.4333 146.674 84.986C145.653 86.5387 142.45 91.7709 140.493 91.8132C138.536 91.8556 139.071 88.8159 139.071 88.8159H139.069Z" fill="#FFAE73"/>
<path d="M132.549 85.4728C132.549 85.4728 135.917 86.6675 137.332 84.026C138.859 81.1769 137.631 78.9061 136.472 78.6646C134.163 78.1816 132.735 78.959 132.248 79.8657C131.761 80.7723 130.687 84.8309 132.549 85.4728V85.4728Z" fill="#FFAE73"/>
<path d="M134.208 84.0321C134.208 84.0321 133.814 84.5236 132.92 84.2503C132.92 84.2503 132.107 84.0321 132.346 83.4877C132.346 83.4877 133.318 83.3691 134.206 84.0321H134.208Z" fill="white"/>
<path d="M136.64 84.9351C136.64 84.9351 137.142 83.7828 137.146 83.1473C137.146 83.1473 138.14 82.0754 137.64 81.7492C137.14 81.423 136.801 82.0775 136.693 81.9335C136.585 81.7916 136.583 79.5229 135.941 79.542C135.299 79.561 132.886 80.0948 131.929 79.1204C130.971 78.146 133.761 74.8775 137.89 76.57C142.02 78.2625 140.764 82.9058 136.642 84.9372L136.64 84.9351Z" fill="#1E0E0A"/>
<path d="M139.826 78.5903C139.826 78.5903 140.065 78.0332 139.894 77.6074C139.894 77.6074 139.836 78.1709 139.595 78.4018C139.353 78.6348 139.826 78.5903 139.826 78.5903V78.5903Z" fill="#1E0E0A"/>
<path d="M139.771 78.1817C139.771 78.1817 140.3 78.1648 140.514 78.5906C140.514 78.5906 140.165 78.3109 139.771 78.544V78.1817Z" fill="#1E0E0A"/>
<path d="M128.701 103.973C132.761 105.33 138.097 105.199 139.413 105.142C139.61 105.133 139.716 105.127 139.716 105.127C140.182 105.066 140.525 104.72 140.559 104.309C140.563 104.256 140.561 104.201 140.557 104.146L139.836 97.8889L140.506 94.8322L140.887 93.0889L141.756 89.1086C140.048 88.1469 138.47 87.5771 137.006 87.2636C136.396 87.7402 135.214 88.4181 133.975 88.1681C133.043 87.9796 132.867 87.5199 132.925 87.0391C130.933 87.1683 129.866 87.5877 129.866 87.5877L127.392 101.95C127.243 102.812 127.79 103.665 128.703 103.973H128.701Z" fill="#F8951D"/>
<path d="M143.833 89.838C143.833 89.838 141.276 91.2996 140.992 92.596C140.992 92.596 137.449 89.7639 137.004 87.2643C137.004 87.2643 137.766 87.2664 138.694 87.6265C138.694 87.6265 139.173 87.4528 139.664 87.4804L141.628 86.1416C141.628 86.1416 143.736 86.8809 143.833 89.8401V89.838Z" fill="#F8951D"/>
<path d="M132.922 87.0408C132.922 87.0408 131.89 86.865 131.511 86.9243C131.511 86.9243 131.337 86.7654 130.905 86.7061L128.776 85.0771C128.776 85.0771 127.15 86.4837 127.368 88.6422C127.368 88.6422 129.139 89.9344 129.137 90.2161C129.134 90.4978 129.086 92.0929 129.086 92.0929L132.92 87.0408H132.922Z" fill="#F8951D"/>
<path d="M126.061 76.9769C126.061 76.9769 126.08 76.4621 126.281 76.0448C126.483 75.6275 126.478 74.5006 126.26 74.5451C126.044 74.5917 126.106 75.0005 125.873 74.9327C125.64 74.865 125.368 73.5326 125.051 73.6258C124.733 73.719 124.472 74.1384 124.489 75.0916C124.506 76.0448 124.864 77.0214 124.864 77.0214L126.059 76.9748L126.061 76.9769Z" fill="#FFAE73"/>
<path d="M147.667 77.5826C147.667 77.5826 147.839 77.0298 147.779 76.5108C147.72 75.9918 148.146 74.7971 148.36 74.9263C148.574 75.0555 148.355 75.4686 148.627 75.4834C148.898 75.4982 149.681 74.1849 149.984 74.401C150.287 74.617 150.406 75.1593 150.035 76.1655C149.662 77.1717 148.919 78.0741 148.919 78.0741L147.669 77.5805L147.667 77.5826Z" fill="#FFAE73"/>
<defs>
<linearGradient id="paint0_linear_7214_6470" x1="84.7292" y1="-3.7584e-06" x2="188.105" y2="99.002" gradientUnits="userSpaceOnUse">
<stop stop-color="#F3EFFF"/>
<stop offset="1" stop-color="#E9FBFF"/>
</linearGradient>
</defs>
</svg>
