<svg width="112" height="20" viewBox="0 0 112 20" fill="none" xmlns="http://www.w3.org/2000/svg">
<g clip-path="url(#clip0_5558_9837)">
<g clip-path="url(#clip1_5558_9837)">
<g clip-path="url(#clip2_5558_9837)">
<path d="M10.0025 5.46268C10.0025 5.66396 9.9959 5.86126 9.98403 6.05062C9.97215 6.23998 9.93125 6.48893 9.86397 6.7988C9.79537 7.10733 9.70566 7.39204 9.59484 7.65158C9.48402 7.9098 9.31911 8.18258 9.10274 8.46596C8.88638 8.75066 8.62912 8.98769 8.33096 9.17705C8.03412 9.36642 7.65549 9.52399 7.1977 9.65112C6.73859 9.77692 6.22538 9.84048 5.65545 9.84048H1.13031C0.79653 9.84048 0.524757 9.56372 0.524757 9.2234V7.48473H0.527396C1.22662 7.48473 2.10658 7.48473 3.02876 7.48341H5.77815C6.1304 7.48341 6.39557 7.30596 6.5275 6.98551C6.65811 6.67035 6.5961 6.35916 6.35204 6.10889C5.4879 5.22433 4.61454 4.33711 3.80054 3.50817C3.6132 3.31748 3.37969 3.23935 3.12507 3.28173C2.81503 3.3347 2.59999 3.51876 2.50104 3.81538C2.39946 4.12392 2.46674 4.40994 2.69498 4.64433C3.02876 4.98597 3.36518 5.32761 3.71611 5.6825L3.9074 5.87848H0.524757L0.523438 1.52981C0.524757 1.1895 0.79521 0.914062 1.12767 0.914062H5.65282C6.87975 0.914062 7.91143 1.32192 8.74654 2.1363C9.58428 2.952 10.0025 4.06036 10.0025 5.46268Z" fill="#3C67B1"/>
<path d="M10.0025 14.7016C10.0025 14.9029 9.9959 15.1002 9.98403 15.2895C9.97215 15.4789 9.93125 15.7278 9.86397 16.0377C9.79537 16.3462 9.70566 16.6309 9.59484 16.8905C9.48402 17.1487 9.31911 17.4215 9.10274 17.7049C8.88638 17.9896 8.62912 18.2266 8.33096 18.416C8.03412 18.6053 7.65549 18.7629 7.1977 18.89C6.73859 19.0158 6.22538 19.0794 5.65545 19.0794H1.13031C0.79653 19.0794 0.524757 18.8026 0.524757 18.4623V17.5804L0.523438 10.77C0.524757 10.4297 0.79521 10.1543 1.12767 10.1543H5.65282C6.87975 10.1543 7.91143 10.5621 8.74654 11.3765C9.10538 11.7274 9.38903 12.1313 9.59352 12.5895C8.9563 12.5895 8.16737 12.5895 7.33358 12.5908H4.32562C3.97337 12.5908 3.70819 12.7669 3.57494 13.0887C3.44565 13.4039 3.50766 13.7164 3.75041 13.9653C4.60794 14.8433 5.48263 15.7345 6.30058 16.5661C6.45494 16.7236 6.63964 16.8044 6.84149 16.8044C6.88635 16.8044 6.92988 16.8004 6.97606 16.7925C7.28609 16.7395 7.50113 16.5555 7.60008 16.2575C7.70166 15.9503 7.63438 15.6643 7.40614 15.4299C7.07236 15.0869 6.73595 14.7466 6.3837 14.3904L6.19372 14.1957H9.98271C9.9959 14.3586 10.0025 14.5281 10.0025 14.7016Z" fill="#3C67B1"/>
</g>
</g>
</g>
<g clip-path="url(#clip3_5558_9837)">
<path d="M18 2H112L106.865 10L112 18H18L23.1346 10L18 2Z" fill="#009D58"/>
<path d="M29.899 5.56538L26.7687 9.37042C26.6361 9.53153 26.7044 9.77538 26.9014 9.84421L29.0091 10.5809C29.1535 10.6313 29.2368 10.7824 29.2024 10.9314L28.4954 13.9992C28.4253 14.3034 28.8086 14.499 29.0138 14.2637L32.7328 9.99973C32.876 9.83555 32.802 9.57829 32.5934 9.51534L30.1858 8.78856C30.041 8.74485 29.9513 8.60019 29.9767 8.45107L30.4264 5.80626C30.4779 5.50311 30.0943 5.32791 29.899 5.56538Z" fill="#FFCB09"/>
<path d="M42.1709 7.47995H38.2009V9.46995H41.6609V10.41H38.2009V12.51H42.1609V13.5H37.1309V6.49995H42.1709V7.47995ZM45.4146 13.63C43.9946 13.63 42.9146 12.5 42.9146 10.98C42.9146 9.46995 43.9946 8.33995 45.4146 8.33995C46.2246 8.33995 46.8446 8.68995 47.2246 9.22995V8.46995H48.2646V13.5H47.2246V12.74C46.8446 13.28 46.2246 13.63 45.4146 13.63ZM45.5846 12.69C46.5046 12.69 47.2446 11.97 47.2446 10.98C47.2446 9.99995 46.5046 9.27995 45.5846 9.27995C44.6246 9.27995 43.9446 9.98995 43.9446 10.98C43.9446 11.97 44.6246 12.69 45.5846 12.69ZM50.7102 9.26995C51.0102 8.65995 51.6002 8.29995 52.4302 8.40995V9.38995C51.3602 9.22995 50.7102 9.76995 50.7102 11.23V13.5H49.6602V8.46995H50.7102V9.26995ZM56.1413 8.33995C57.4313 8.33995 58.1413 9.18995 58.1413 10.55V13.5H57.1013V10.74C57.1013 9.85995 56.6813 9.31995 55.8613 9.31995C54.9813 9.31995 54.4113 9.98995 54.4113 11V13.5H53.3613V8.46995H54.4113V9.21995C54.7613 8.71995 55.3413 8.33995 56.1413 8.33995ZM66.5834 13.5L64.8734 10.9H63.1034V13.5H62.0234V6.49995H65.3534C66.8334 6.49995 67.6534 7.63995 67.6534 8.70995C67.6534 9.62995 67.0834 10.53 66.0234 10.81L67.8334 13.5H66.5834ZM63.1034 7.46995V9.93995H65.2934C66.1134 9.93995 66.6034 9.35995 66.6034 8.70995C66.6034 8.05995 66.1034 7.46995 65.3234 7.46995H63.1034ZM71.0536 13.63C69.4836 13.63 68.3736 12.58 68.3736 10.99C68.3736 9.48995 69.4036 8.33995 70.9636 8.33995C72.5936 8.33995 73.5236 9.46995 73.5236 10.89C73.5236 11.04 73.5136 11.16 73.4936 11.31H69.4036C69.4736 12.14 70.0536 12.73 71.0736 12.73C71.8236 12.73 72.2936 12.36 72.5036 11.92L73.4636 12.2C73.1536 12.88 72.3636 13.63 71.0536 13.63ZM69.4036 10.61L72.4936 10.6C72.4336 9.82995 71.8836 9.23995 70.9636 9.23995C70.0636 9.23995 69.4736 9.88995 69.4036 10.61ZM80.3877 8.46995H81.4777L79.7477 13.5H78.7477L77.5977 9.97995L76.4477 13.5H75.4577L73.7277 8.46995H74.8077L75.9877 12.19L77.1577 8.46995H78.0477L79.2077 12.18L80.3877 8.46995ZM84.2623 13.63C82.8423 13.63 81.7623 12.5 81.7623 10.98C81.7623 9.46995 82.8423 8.33995 84.2623 8.33995C85.0723 8.33995 85.6923 8.68995 86.0723 9.22995V8.46995H87.1123V13.5H86.0723V12.74C85.6923 13.28 85.0723 13.63 84.2623 13.63ZM84.4323 12.69C85.3523 12.69 86.0923 11.97 86.0923 10.98C86.0923 9.99995 85.3523 9.27995 84.4323 9.27995C83.4723 9.27995 82.7923 9.98995 82.7923 10.98C82.7923 11.97 83.4723 12.69 84.4323 12.69ZM89.5578 9.26995C89.8578 8.65995 90.4478 8.29995 91.2778 8.40995V9.38995C90.2078 9.22995 89.5578 9.76995 89.5578 11.23V13.5H88.5078V8.46995H89.5578V9.26995ZM95.9063 6.19995H96.9463V13.5H95.9063V12.74C95.5263 13.28 94.9063 13.63 94.0963 13.63C92.6763 13.63 91.5963 12.5 91.5963 10.98C91.5963 9.46995 92.6763 8.33995 94.0963 8.33995C94.9063 8.33995 95.5263 8.68995 95.9063 9.22995V6.19995ZM94.2663 12.69C95.1863 12.69 95.9263 11.97 95.9263 10.98C95.9263 9.99995 95.1863 9.27995 94.2663 9.27995C93.3063 9.27995 92.6263 9.98995 92.6263 10.98C92.6263 11.97 93.3063 12.69 94.2663 12.69ZM100.252 13.63C99.0618 13.63 98.1318 12.92 97.8818 12.1L98.8318 11.82C99.0118 12.35 99.5618 12.77 100.282 12.77C100.922 12.77 101.332 12.45 101.332 12.09C101.332 11.78 101.132 11.62 100.682 11.49L99.3318 11.09C98.6618 10.89 98.1318 10.52 98.1318 9.79995C98.1318 8.99995 98.9818 8.33995 100.052 8.33995C101.142 8.33995 101.932 8.87995 102.232 9.60995L101.302 9.87995C101.112 9.49995 100.672 9.17995 100.042 9.17995C99.5118 9.17995 99.1618 9.48995 99.1618 9.78995C99.1618 10.04 99.3618 10.18 99.7018 10.29L101.042 10.68C101.752 10.88 102.362 11.2 102.362 12.05C102.362 12.95 101.492 13.63 100.252 13.63Z" fill="white"/>
</g>
<defs>
<clipPath id="clip0_5558_9837">
<rect width="10" height="20" fill="white"/>
</clipPath>
<clipPath id="clip1_5558_9837">
<rect width="10" height="20" fill="white"/>
</clipPath>
<clipPath id="clip2_5558_9837">
<rect width="10" height="20" fill="white"/>
</clipPath>
<clipPath id="clip3_5558_9837">
<rect width="94" height="16" fill="white" transform="translate(18 2)"/>
</clipPath>
</defs>
</svg>
