<svg width="60" height="60" viewBox="0 0 60 60" fill="none" xmlns="http://www.w3.org/2000/svg">
<path d="M27.1201 21.89C27.1201 21.89 37.7001 14.58 38.7001 22.94L27.1201 21.89Z" fill="#FFCB09"/>
<path d="M14.1898 46.37C16.7304 46.37 18.7898 44.3105 18.7898 41.77C18.7898 39.2295 16.7304 37.17 14.1898 37.17C11.6493 37.17 9.58984 39.2295 9.58984 41.77C9.58984 44.3105 11.6493 46.37 14.1898 46.37Z" fill="#FFCB09"/>
<path d="M11.9996 47.3C7.61957 47.3 4.05957 43.74 4.05957 39.36C4.05957 34.98 7.61957 31.42 11.9996 31.42C16.3796 31.42 19.9396 34.98 19.9396 39.36C19.9396 43.74 16.3796 47.3 11.9996 47.3ZM11.9996 33.3C8.65957 33.3 5.93957 36.02 5.93957 39.36C5.93957 42.7 8.65957 45.42 11.9996 45.42C15.3396 45.42 18.0596 42.7 18.0596 39.36C18.0596 36.02 15.3396 33.3 11.9996 33.3Z" fill="black"/>
<path d="M50.1898 46.37C52.7304 46.37 54.7898 44.3105 54.7898 41.77C54.7898 39.2295 52.7304 37.17 50.1898 37.17C47.6493 37.17 45.5898 39.2295 45.5898 41.77C45.5898 44.3105 47.6493 46.37 50.1898 46.37Z" fill="#FFCB09"/>
<path d="M47.9996 47.3C43.6196 47.3 40.0596 43.74 40.0596 39.36C40.0596 34.98 43.6196 31.42 47.9996 31.42C52.3796 31.42 55.9396 34.98 55.9396 39.36C55.9396 43.74 52.3796 47.3 47.9996 47.3ZM47.9996 33.3C44.6596 33.3 41.9396 36.02 41.9396 39.36C41.9396 42.7 44.6596 45.42 47.9996 45.42C51.3396 45.42 54.0596 42.7 54.0596 39.36C54.0596 36.02 51.3396 33.3 47.9996 33.3Z" fill="black"/>
<path d="M48.0001 40.29C47.7401 40.29 47.4901 40.19 47.3001 39.98L38.9401 30.74C38.5901 30.36 38.6201 29.76 39.0101 29.42C39.3901 29.07 39.9901 29.1 40.3301 29.49L48.6901 38.73C49.0401 39.11 49.0101 39.71 48.6201 40.05C48.4401 40.21 48.2201 40.29 47.9901 40.29H48.0001Z" fill="black"/>
<path d="M38.6997 23.44C38.2297 23.44 37.8297 23.09 37.7697 22.62C37.4897 20.37 36.6597 18.96 35.2297 18.3C31.5997 16.63 24.6997 20.28 22.3497 21.82C21.9097 22.11 21.3397 21.98 21.0497 21.55C20.7597 21.12 20.8797 20.54 21.3197 20.25C21.6997 20 30.6897 14.14 36.0097 16.59C38.0397 17.53 39.2597 19.47 39.6197 22.38C39.6797 22.89 39.3197 23.36 38.8097 23.43C38.7697 23.43 38.7297 23.43 38.6897 23.43L38.6997 23.44Z" fill="black"/>
<path d="M28.1203 40.37H12.0003C11.6703 40.37 11.3603 40.19 11.1903 39.91C11.0203 39.62 11.0203 39.27 11.1803 38.98L17.6103 27.26C17.8603 26.8 18.4303 26.64 18.8803 26.89C19.3303 27.14 19.5003 27.71 19.2503 28.16L13.5803 38.49H28.1103C28.6303 38.49 29.0503 38.91 29.0503 39.43C29.0503 39.95 28.6303 40.37 28.1103 40.37H28.1203Z" fill="black"/>
<path d="M35.5701 40.37H28.8801C25.0001 40.37 21.8501 37.22 21.8501 33.34C21.8501 32.58 21.9701 31.84 22.2001 31.14L5.53008 20.89C5.25008 20.72 5.08008 20.42 5.08008 20.09V13.63C5.08008 13.3 5.25008 12.99 5.54008 12.82C5.83008 12.65 6.17008 12.64 6.47008 12.8C27.2001 24.09 35.1401 23.28 38.0201 21.8C39.9801 20.79 40.1901 19.23 40.2001 19.16C40.2201 18.2 40.2601 16.79 40.2301 15.31C40.2201 14.59 40.5101 13.9 41.0301 13.4C41.5501 12.9 42.2501 12.64 42.9701 12.69C49.4801 13.11 53.0701 18.27 53.2201 18.49C54.5701 20.32 54.8801 22.89 53.9601 24.7C53.2701 26.06 52.0101 26.81 50.4001 26.81C37.4901 26.81 36.5401 38.97 36.5001 39.49C36.4701 39.98 36.0601 40.37 35.5601 40.37H35.5701ZM24.1901 31.2C23.8901 31.86 23.7301 32.59 23.7301 33.34C23.7301 36.18 26.0401 38.5 28.8901 38.5H34.7501C35.2601 35.37 37.8901 24.95 50.4001 24.95C51.2901 24.95 51.9201 24.59 52.2901 23.87C52.8801 22.7 52.6301 20.86 51.6901 19.59C51.6401 19.52 48.4301 14.94 42.8501 14.58C42.5801 14.54 42.4101 14.69 42.3301 14.77C42.2501 14.85 42.1001 15.03 42.1101 15.29C42.1401 16.8 42.1001 18.24 42.0701 19.22C42.0501 19.46 41.7901 21.93 38.9701 23.43C33.5201 26.32 22.4801 23.47 6.96008 15.2V19.57L23.0301 29.44C23.2701 29.07 23.5501 28.73 23.8701 28.41C24.2301 28.04 24.8301 28.03 25.2001 28.4C25.5701 28.76 25.5701 29.36 25.2101 29.73C24.8101 30.14 24.4901 30.6 24.2501 31.1C24.2401 31.14 24.2201 31.17 24.2001 31.21L24.1901 31.2Z" fill="black"/>
<path d="M48.0503 22.56C47.7403 22.56 47.4403 22.41 47.2603 22.13C46.8103 21.43 45.8403 21.4 45.8303 21.4C45.3203 21.39 44.9003 20.97 44.9103 20.45C44.9103 19.94 45.3303 19.52 45.8403 19.52C46.5703 19.52 48.0203 19.85 48.8303 21.11C49.1103 21.55 48.9903 22.13 48.5503 22.41C48.3903 22.51 48.2203 22.56 48.0403 22.56H48.0503Z" fill="black"/>
<path d="M47.9997 41.69C46.7197 41.69 45.6797 40.65 45.6797 39.37C45.6797 38.09 46.7197 37.05 47.9997 37.05C49.2797 37.05 50.3197 38.09 50.3197 39.37C50.3197 40.65 49.2797 41.69 47.9997 41.69ZM47.9997 38.92C47.7497 38.92 47.5597 39.12 47.5597 39.36C47.5597 39.85 48.4497 39.85 48.4497 39.36C48.4497 39.11 48.2497 38.92 48.0097 38.92H47.9997Z" fill="black"/>
<path d="M11.9997 41.69C10.7197 41.69 9.67969 40.65 9.67969 39.37C9.67969 38.09 10.7197 37.05 11.9997 37.05C13.2797 37.05 14.3197 38.09 14.3197 39.37C14.3197 40.65 13.2797 41.69 11.9997 41.69ZM11.9997 38.92C11.7497 38.92 11.5497 39.12 11.5497 39.36C11.5497 39.85 12.4397 39.86 12.4397 39.36C12.4397 39.11 12.2397 38.92 11.9997 38.92Z" fill="black"/>
</svg>
