<?xml version="1.0" encoding="UTF-8"?>
<svg id="Layer_1" data-name="Layer 1" xmlns="http://www.w3.org/2000/svg" viewBox="0 0 32 32">
  <g>
    <path d="M20.92,23.31c0,3.36-2.84,6.05-6.25,5.79s-5.74-3.6-5.28-6.98c.27-2.01,1.21-3.85,2.24-5.34,1.69-2.43,5.26-2.42,6.95,.02,1.25,1.8,2.35,4.08,2.35,6.51Z" fill="#ffcb09"/>
    <path d="M21.17,21.29c0,5.25-4.64,9.41-10.04,8.61-4.54-.67-7.62-4.75-7.37-9.33,.46-8.26,8.69-14.81,8.69-14.81,0,0,8.71,7.15,8.71,15.52Z" fill="none" stroke="#000" stroke-linecap="round" stroke-linejoin="round"/>
    <path d="M12.46,25.78c-2.79,0-5.05-2.26-5.05-5.05" fill="none" stroke="#000" stroke-linecap="round" stroke-linejoin="round"/>
    <path d="M28.26,8.32c0,2.11-1.85,3.8-4.02,3.52-1.85-.24-3.19-2.01-3.06-3.88,.23-3.33,3.54-5.96,3.54-5.96,0,0,3.55,2.91,3.55,6.32Z" fill="none" stroke="#000" stroke-linecap="round" stroke-linejoin="round"/>
  </g>
  <rect width="32" height="32" fill="none" opacity="0"/>
</svg>