<svg width="40" height="40" viewBox="0 0 40 40" fill="none" xmlns="http://www.w3.org/2000/svg">
<g clip-path="url(#clip0_6495_23)">
<path d="M25.5001 26.46C26.1463 26.46 26.6701 25.9362 26.6701 25.29C26.6701 24.6438 26.1463 24.12 25.5001 24.12C24.8539 24.12 24.3301 24.6438 24.3301 25.29C24.3301 25.9362 24.8539 26.46 25.5001 26.46Z" fill="#FFCB09"/>
<path d="M15.5001 26.46C16.1463 26.46 16.6701 25.9362 16.6701 25.29C16.6701 24.6438 16.1463 24.12 15.5001 24.12C14.8539 24.12 14.3301 24.6438 14.3301 25.29C14.3301 25.9362 14.8539 26.46 15.5001 26.46Z" fill="#FFCB09"/>
<path d="M24.3601 18.3599H20.0601V14.8199H21.8601C22.4001 14.8199 22.8801 15.1299 23.1001 15.6199L24.3501 18.3599H24.3601Z" fill="#FFCB09"/>
<path d="M14.8701 18.3599H20.0601V14.8199H17.7201C17.1701 14.8199 16.6601 15.1199 16.4001 15.5999L14.8801 18.3599H14.8701Z" fill="#FFCB09"/>
<path d="M28.0499 25.2699H26.8899C26.6099 25.2699 26.3899 25.0499 26.3899 24.7699C26.3899 24.4899 26.6099 24.2699 26.8899 24.2699H28.0499C28.8799 24.2699 29.5599 23.5899 29.5599 22.7499V20.9599C29.5599 19.5699 28.4299 18.4399 27.0399 18.4399H12.9599C11.5699 18.4399 10.4399 19.5699 10.4399 20.9599V22.7499C10.4399 23.5899 11.1199 24.2699 11.9499 24.2699H13.1399C13.4199 24.2699 13.6399 24.4899 13.6399 24.7699C13.6399 25.0499 13.4199 25.2699 13.1399 25.2699H11.9499C10.5699 25.2699 9.43994 24.1399 9.43994 22.7499V20.9599C9.43994 19.0199 11.0199 17.4399 12.9599 17.4399H27.0399C28.9799 17.4399 30.5599 19.0199 30.5599 20.9599V22.7499C30.5599 24.1399 29.4299 25.2699 28.0499 25.2699Z" fill="black"/>
<path d="M23.3702 25.2699H16.6602C16.3802 25.2699 16.1602 25.0499 16.1602 24.7699C16.1602 24.4899 16.3802 24.2699 16.6602 24.2699H23.3702C23.6502 24.2699 23.8702 24.4899 23.8702 24.7699C23.8702 25.0499 23.6502 25.2699 23.3702 25.2699Z" fill="black"/>
<path d="M25.92 18.45H20C19.72 18.45 19.5 18.23 19.5 17.95V13.08C19.5 12.8 19.72 12.58 20 12.58H22.48C23.41 12.58 24.26 13.13 24.65 13.97L26.38 17.74C26.45 17.89 26.44 18.07 26.35 18.22C26.26 18.36 26.1 18.45 25.93 18.45H25.92ZM20.5 17.45H25.14L23.74 14.39C23.51 13.9 23.02 13.58 22.48 13.58H20.5V17.45Z" fill="black"/>
<path d="M19.9998 18.45H12.8598C12.6798 18.45 12.5198 18.36 12.4298 18.2C12.3398 18.04 12.3398 17.86 12.4298 17.7L14.5298 13.91C14.9798 13.09 15.8498 12.58 16.7798 12.58H19.9998C20.2798 12.58 20.4998 12.8 20.4998 13.08V17.95C20.4998 18.23 20.2798 18.45 19.9998 18.45ZM13.7098 17.45H19.4998V13.58H16.7798C16.2098 13.58 15.6798 13.89 15.3998 14.39L13.7098 17.44V17.45Z" fill="black"/>
<path d="M20 25.2699C19.72 25.2699 19.5 25.0499 19.5 24.7699V17.2699C19.5 16.9899 19.72 16.7699 20 16.7699C20.28 16.7699 20.5 16.9899 20.5 17.2699V24.7699C20.5 25.0499 20.28 25.2699 20 25.2699Z" fill="black"/>
<path d="M14.9001 27.03C13.6501 27.03 12.6401 26.02 12.6401 24.77C12.6401 23.52 13.6501 22.51 14.9001 22.51C16.1501 22.51 17.1601 23.52 17.1601 24.77C17.1601 26.02 16.1501 27.03 14.9001 27.03ZM14.9001 23.51C14.2001 23.51 13.6401 24.08 13.6401 24.77C13.6401 25.46 14.2101 26.03 14.9001 26.03C15.5901 26.03 16.1601 25.46 16.1601 24.77C16.1601 24.08 15.5901 23.51 14.9001 23.51Z" fill="black"/>
<path d="M25.1301 27.03C23.8801 27.03 22.8701 26.02 22.8701 24.77C22.8701 23.52 23.8801 22.51 25.1301 22.51C26.3801 22.51 27.3901 23.52 27.3901 24.77C27.3901 26.02 26.3801 27.03 25.1301 27.03ZM25.1301 23.51C24.4401 23.51 23.8701 24.08 23.8701 24.77C23.8701 25.46 24.4401 26.03 25.1301 26.03C25.8201 26.03 26.3901 25.46 26.3901 24.77C26.3901 24.08 25.8201 23.51 25.1301 23.51Z" fill="black"/>
<path d="M27.3398 15.8C27.0598 15.8 26.8398 15.58 26.8398 15.3C26.8398 15.02 27.0598 14.8 27.3398 14.8C29.2698 14.8 30.8398 13.23 30.8398 11.3C30.8398 9.37005 29.2698 7.80005 27.3398 7.80005C25.4098 7.80005 23.8398 9.37005 23.8398 11.3C23.8398 11.58 23.6198 11.8 23.3398 11.8C23.0598 11.8 22.8398 11.58 22.8398 11.3C22.8398 8.82005 24.8598 6.80005 27.3398 6.80005C29.8198 6.80005 31.8398 8.82005 31.8398 11.3C31.8398 13.78 29.8198 15.8 27.3398 15.8Z" fill="black"/>
<path d="M28.7499 10.02H26.3599C26.0799 10.02 25.8599 9.80002 25.8599 9.52002C25.8599 9.24002 26.0799 9.02002 26.3599 9.02002H28.7499C29.0299 9.02002 29.2499 9.24002 29.2499 9.52002C29.2499 9.80002 29.0299 10.02 28.7499 10.02Z" fill="black"/>
<path d="M28.7497 11.3301H25.9297C25.6497 11.3301 25.4297 11.1101 25.4297 10.8301C25.4297 10.5501 25.6497 10.3301 25.9297 10.3301H28.7497C29.0297 10.3301 29.2497 10.5501 29.2497 10.8301C29.2497 11.1101 29.0297 11.3301 28.7497 11.3301Z" fill="black"/>
<path d="M27.8296 14.29C27.7096 14.29 27.5896 14.25 27.4996 14.17L25.6196 12.51C25.4096 12.33 25.3896 12.01 25.5796 11.8C25.7596 11.59 26.0796 11.57 26.2896 11.76L28.1696 13.42C28.3796 13.6 28.3996 13.92 28.2096 14.13C28.1096 14.24 27.9696 14.3 27.8296 14.3V14.29Z" fill="black"/>
<path d="M26.3595 12.63H25.9395C25.6595 12.63 25.4395 12.41 25.4395 12.13C25.4395 11.85 25.6595 11.63 25.9395 11.63H26.3595C26.6995 11.63 26.9795 11.26 26.9795 10.83C26.9795 10.4 26.6895 10.03 26.3595 10.03H25.9395C25.6595 10.03 25.4395 9.81003 25.4395 9.53003C25.4395 9.25003 25.6595 9.03003 25.9395 9.03003H26.3595C27.2595 9.03003 27.9795 9.84003 27.9795 10.83C27.9795 11.82 27.2495 12.63 26.3595 12.63Z" fill="black"/>
</g>
<defs>
<clipPath id="clip0_6495_23">
<rect width="40" height="40" fill="white"/>
</clipPath>
</defs>
</svg>
